<?xml version="1.0" encoding="utf-8" standalone="no"?>
<!DOCTYPE svg PUBLIC "-//W3C//DTD SVG 1.1//EN"
  "http://www.w3.org/Graphics/SVG/1.1/DTD/svg11.dtd">
<!-- Created with matplotlib (http://matplotlib.org/) -->
<svg height="720pt" version="1.1" viewBox="0 0 1152 720" width="1152pt" xmlns="http://www.w3.org/2000/svg" xmlns:xlink="http://www.w3.org/1999/xlink">
 <defs>
  <style type="text/css">
*{stroke-linecap:butt;stroke-linejoin:round;stroke-miterlimit:100000;}
  </style>
 </defs>
 <g id="figure_1">
  <g id="patch_1">
   <path d="M 0 720 
L 1152 720 
L 1152 0 
L 0 0 
z
" style="fill:#ffffff;"/>
  </g>
  <g id="axes_1">
   <g id="patch_2">
    <path d="M 92.16 630 
L 1094.4 630 
L 1094.4 72 
L 92.16 72 
z
" style="fill:#e5e5e5;"/>
   </g>
   <g id="matplotlib.axis_1">
    <g id="xtick_1">
     <g id="line2d_1">
      <defs>
       <path d="M 0 0 
L 0 0 
" id="m6aae65cfcb" style="stroke:#555555;stroke-width:1.6;"/>
      </defs>
      <g>
       <use style="fill:#555555;stroke:#555555;stroke-width:1.6;" x="259.2" xlink:href="#m6aae65cfcb" y="630.0"/>
      </g>
     </g>
     <g id="line2d_2">
      <g>
       <use style="fill:#555555;stroke:#555555;stroke-width:1.6;" x="259.2" xlink:href="#m6aae65cfcb" y="72.0"/>
      </g>
     </g>
     <g id="text_1">
      <!-- aI/fO -->
      <defs>
       <path d="M 73 34.71875 
Q 73 26.65625 70.671875 20.0625 
Q 68.359375 13.484375 63.96875 8.796875 
Q 59.578125 4.109375 53.21875 1.5625 
Q 46.875 -0.984375 38.8125 -0.984375 
Q 30.328125 -0.984375 23.921875 1.671875 
Q 17.53125 4.34375 13.28125 9.109375 
Q 9.03125 13.875 6.875 20.40625 
Q 4.734375 26.953125 4.734375 34.71875 
Q 4.734375 42.78125 6.984375 49.265625 
Q 9.234375 55.765625 13.578125 60.328125 
Q 17.921875 64.890625 24.296875 67.359375 
Q 30.671875 69.828125 38.921875 69.828125 
Q 47.125 69.828125 53.484375 67.328125 
Q 59.859375 64.84375 64.171875 60.25 
Q 68.5 55.671875 70.75 49.171875 
Q 73 42.671875 73 34.71875 
M 63.484375 34.71875 
Q 63.484375 40.921875 61.890625 46 
Q 60.296875 51.078125 57.203125 54.6875 
Q 54.109375 58.296875 49.515625 60.25 
Q 44.921875 62.203125 38.921875 62.203125 
Q 32.765625 62.203125 28.125 60.25 
Q 23.484375 58.296875 20.375 54.6875 
Q 17.28125 51.078125 15.734375 46 
Q 14.203125 40.921875 14.203125 34.71875 
Q 14.203125 28.515625 15.796875 23.359375 
Q 17.390625 18.21875 20.484375 14.484375 
Q 23.578125 10.75 28.1875 8.671875 
Q 32.8125 6.59375 38.8125 6.59375 
Q 45.265625 6.59375 49.921875 8.6875 
Q 54.59375 10.796875 57.59375 14.53125 
Q 60.59375 18.265625 62.03125 23.4375 
Q 63.484375 28.609375 63.484375 34.71875 
" id="LiberationSans-4f"/>
       <path d="M 17.625 46.4375 
L 17.625 0 
L 8.84375 0 
L 8.84375 46.4375 
L 1.421875 46.4375 
L 1.421875 52.828125 
L 8.84375 52.828125 
L 8.84375 58.796875 
Q 8.84375 61.671875 9.375 64.140625 
Q 9.90625 66.609375 11.34375 68.4375 
Q 12.796875 70.265625 15.28125 71.3125 
Q 17.78125 72.359375 21.734375 72.359375 
Q 23.296875 72.359375 24.96875 72.21875 
Q 26.65625 72.078125 27.9375 71.78125 
L 27.9375 65.09375 
Q 27.09375 65.234375 26 65.359375 
Q 24.90625 65.484375 24.03125 65.484375 
Q 22.078125 65.484375 20.828125 64.9375 
Q 19.578125 64.40625 18.875 63.40625 
Q 18.171875 62.40625 17.890625 60.9375 
Q 17.625 59.46875 17.625 57.5625 
L 17.625 52.828125 
L 27.9375 52.828125 
L 27.9375 46.4375 
z
" id="LiberationSans-66"/>
       <path d="M 20.21875 -0.984375 
Q 12.25 -0.984375 8.25 3.21875 
Q 4.25 7.421875 4.25 14.75 
Q 4.25 19.96875 6.21875 23.3125 
Q 8.203125 26.65625 11.390625 28.5625 
Q 14.59375 30.46875 18.6875 31.203125 
Q 22.796875 31.9375 27.046875 32.03125 
L 38.921875 32.234375 
L 38.921875 35.109375 
Q 38.921875 38.375 38.234375 40.671875 
Q 37.546875 42.96875 36.125 44.375 
Q 34.71875 45.796875 32.59375 46.453125 
Q 30.46875 47.125 27.59375 47.125 
Q 25.046875 47.125 23 46.75 
Q 20.953125 46.390625 19.4375 45.4375 
Q 17.921875 44.484375 16.984375 42.84375 
Q 16.0625 41.21875 15.765625 38.71875 
L 6.59375 39.546875 
Q 7.078125 42.671875 8.4375 45.28125 
Q 9.8125 47.90625 12.328125 49.796875 
Q 14.84375 51.703125 18.625 52.75 
Q 22.40625 53.8125 27.78125 53.8125 
Q 37.75 53.8125 42.765625 49.234375 
Q 47.796875 44.671875 47.796875 36.03125 
L 47.796875 13.28125 
Q 47.796875 9.375 48.828125 7.390625 
Q 49.859375 5.421875 52.734375 5.421875 
Q 53.46875 5.421875 54.203125 5.515625 
Q 54.9375 5.609375 55.609375 5.765625 
L 55.609375 0.296875 
Q 53.953125 -0.09375 52.3125 -0.28125 
Q 50.6875 -0.484375 48.828125 -0.484375 
Q 46.34375 -0.484375 44.5625 0.171875 
Q 42.78125 0.828125 41.65625 2.171875 
Q 40.53125 3.515625 39.9375 5.484375 
Q 39.359375 7.46875 39.203125 10.109375 
L 38.921875 10.109375 
Q 37.5 7.5625 35.8125 5.515625 
Q 34.125 3.46875 31.875 2.03125 
Q 29.640625 0.59375 26.78125 -0.1875 
Q 23.921875 -0.984375 20.21875 -0.984375 
M 22.21875 5.609375 
Q 26.421875 5.609375 29.5625 7.140625 
Q 32.71875 8.6875 34.78125 11.078125 
Q 36.859375 13.484375 37.890625 16.3125 
Q 38.921875 19.140625 38.921875 21.734375 
L 38.921875 26.078125 
L 29.296875 25.875 
Q 26.078125 25.828125 23.171875 25.40625 
Q 20.265625 25 18.0625 23.78125 
Q 15.875 22.5625 14.578125 20.359375 
Q 13.28125 18.171875 13.28125 14.59375 
Q 13.28125 10.296875 15.59375 7.953125 
Q 17.921875 5.609375 22.21875 5.609375 
" id="LiberationSans-61"/>
       <path d="M 0 -0.984375 
L 20.0625 72.46875 
L 27.78125 72.46875 
L 7.90625 -0.984375 
z
" id="LiberationSans-2f"/>
       <path d="M 9.234375 0 
L 9.234375 68.796875 
L 18.5625 68.796875 
L 18.5625 0 
z
" id="LiberationSans-49"/>
      </defs>
      <g style="fill:#555555;" transform="translate(237.5265625 655.69375)scale(0.2 -0.2)">
       <use xlink:href="#LiberationSans-61"/>
       <use x="55.615234375" xlink:href="#LiberationSans-49"/>
       <use x="83.3984375" xlink:href="#LiberationSans-2f"/>
       <use x="111.181640625" xlink:href="#LiberationSans-66"/>
       <use x="138.96484375" xlink:href="#LiberationSans-4f"/>
      </g>
     </g>
    </g>
    <g id="xtick_2">
     <g id="line2d_3">
      <g>
       <use style="fill:#555555;stroke:#555555;stroke-width:1.6;" x="593.28" xlink:href="#m6aae65cfcb" y="630.0"/>
      </g>
     </g>
     <g id="line2d_4">
      <g>
       <use style="fill:#555555;stroke:#555555;stroke-width:1.6;" x="593.28" xlink:href="#m6aae65cfcb" y="72.0"/>
      </g>
     </g>
     <g id="text_2">
      <!-- dlPFC -->
      <defs>
       <path d="M 40.09375 8.5 
Q 37.640625 3.421875 33.609375 1.21875 
Q 29.59375 -0.984375 23.640625 -0.984375 
Q 13.625 -0.984375 8.90625 5.75 
Q 4.203125 12.5 4.203125 26.171875 
Q 4.203125 53.8125 23.640625 53.8125 
Q 29.640625 53.8125 33.640625 51.609375 
Q 37.640625 49.421875 40.09375 44.625 
L 40.1875 44.625 
Q 40.1875 45.125 40.15625 46.171875 
Q 40.140625 47.21875 40.109375 48.359375 
Q 40.09375 49.515625 40.09375 50.53125 
Q 40.09375 51.5625 40.09375 52 
L 40.09375 72.46875 
L 48.875 72.46875 
L 48.875 10.890625 
Q 48.875 8.984375 48.890625 7.21875 
Q 48.921875 5.46875 48.96875 4 
Q 49.03125 2.546875 49.078125 1.484375 
Q 49.125 0.4375 49.171875 0 
L 40.765625 0 
Q 40.671875 0.484375 40.59375 1.390625 
Q 40.53125 2.296875 40.453125 3.46875 
Q 40.375 4.640625 40.328125 5.9375 
Q 40.28125 7.234375 40.28125 8.5 
z
M 13.421875 26.46875 
Q 13.421875 21 14.109375 17.09375 
Q 14.796875 13.1875 16.3125 10.671875 
Q 17.828125 8.15625 20.171875 6.984375 
Q 22.515625 5.8125 25.875 5.8125 
Q 29.34375 5.8125 32 6.9375 
Q 34.671875 8.0625 36.453125 10.578125 
Q 38.234375 13.09375 39.15625 17.140625 
Q 40.09375 21.1875 40.09375 27.046875 
Q 40.09375 32.671875 39.15625 36.546875 
Q 38.234375 40.4375 36.421875 42.828125 
Q 34.625 45.21875 32 46.265625 
Q 29.390625 47.3125 25.984375 47.3125 
Q 22.75 47.3125 20.40625 46.1875 
Q 18.0625 45.0625 16.5 42.578125 
Q 14.9375 40.09375 14.171875 36.109375 
Q 13.421875 32.125 13.421875 26.46875 
" id="LiberationSans-64"/>
       <path d="M 17.53125 61.1875 
L 17.53125 35.59375 
L 55.90625 35.59375 
L 55.90625 27.875 
L 17.53125 27.875 
L 17.53125 0 
L 8.203125 0 
L 8.203125 68.796875 
L 57.078125 68.796875 
L 57.078125 61.1875 
z
" id="LiberationSans-46"/>
       <path d="M 61.421875 48.09375 
Q 61.421875 43.609375 59.9375 39.71875 
Q 58.453125 35.84375 55.5 32.984375 
Q 52.546875 30.125 48.09375 28.46875 
Q 43.65625 26.8125 37.75 26.8125 
L 17.53125 26.8125 
L 17.53125 0 
L 8.203125 0 
L 8.203125 68.796875 
L 37.15625 68.796875 
Q 43.265625 68.796875 47.796875 67.3125 
Q 52.34375 65.828125 55.375 63.109375 
Q 58.40625 60.40625 59.90625 56.5625 
Q 61.421875 52.734375 61.421875 48.09375 
M 52.046875 48 
Q 52.046875 54.546875 48.046875 57.9375 
Q 44.046875 61.328125 36.03125 61.328125 
L 17.53125 61.328125 
L 17.53125 34.1875 
L 36.421875 34.1875 
Q 44.484375 34.1875 48.265625 37.75 
Q 52.046875 41.3125 52.046875 48 
" id="LiberationSans-50"/>
       <path d="M 38.671875 62.203125 
Q 32.8125 62.203125 28.296875 60.25 
Q 23.78125 58.296875 20.71875 54.6875 
Q 17.671875 51.078125 16.109375 46 
Q 14.546875 40.921875 14.546875 34.71875 
Q 14.546875 28.515625 16.234375 23.359375 
Q 17.921875 18.21875 21.0625 14.5 
Q 24.21875 10.796875 28.78125 8.734375 
Q 33.34375 6.6875 39.0625 6.6875 
Q 43.0625 6.6875 46.359375 7.734375 
Q 49.65625 8.796875 52.3125 10.6875 
Q 54.984375 12.59375 57.078125 15.203125 
Q 59.1875 17.828125 60.796875 21 
L 68.40625 17.1875 
Q 66.546875 13.328125 63.8125 10 
Q 61.078125 6.6875 57.390625 4.25 
Q 53.71875 1.8125 49.046875 0.40625 
Q 44.390625 -0.984375 38.625 -0.984375 
Q 30.28125 -0.984375 24 1.671875 
Q 17.71875 4.34375 13.5 9.109375 
Q 9.28125 13.875 7.171875 20.40625 
Q 5.078125 26.953125 5.078125 34.71875 
Q 5.078125 42.78125 7.296875 49.265625 
Q 9.515625 55.765625 13.78125 60.328125 
Q 18.0625 64.890625 24.3125 67.359375 
Q 30.5625 69.828125 38.578125 69.828125 
Q 49.5625 69.828125 56.9375 65.53125 
Q 64.3125 61.234375 67.78125 52.78125 
L 58.9375 49.859375 
Q 57.953125 52.296875 56.296875 54.515625 
Q 54.640625 56.734375 52.140625 58.4375 
Q 49.65625 60.15625 46.3125 61.171875 
Q 42.96875 62.203125 38.671875 62.203125 
" id="LiberationSans-43"/>
       <path d="M 6.734375 0 
L 6.734375 72.46875 
L 15.53125 72.46875 
L 15.53125 0 
z
" id="LiberationSans-6c"/>
      </defs>
      <g style="fill:#555555;" transform="translate(565.4971875 655.69375)scale(0.2 -0.2)">
       <use xlink:href="#LiberationSans-64"/>
       <use x="55.615234375" xlink:href="#LiberationSans-6c"/>
       <use x="77.83203125" xlink:href="#LiberationSans-50"/>
       <use x="144.53125" xlink:href="#LiberationSans-46"/>
       <use x="205.615234375" xlink:href="#LiberationSans-43"/>
      </g>
     </g>
    </g>
    <g id="xtick_3">
     <g id="line2d_5">
      <g>
       <use style="fill:#555555;stroke:#555555;stroke-width:1.6;" x="927.36" xlink:href="#m6aae65cfcb" y="630.0"/>
      </g>
     </g>
     <g id="line2d_6">
      <g>
       <use style="fill:#555555;stroke:#555555;stroke-width:1.6;" x="927.36" xlink:href="#m6aae65cfcb" y="72.0"/>
      </g>
     </g>
     <g id="text_3">
      <!-- S1 -->
      <defs>
       <path d="M 7.625 0 
L 7.625 7.46875 
L 25.140625 7.46875 
L 25.140625 60.40625 
L 9.625 49.3125 
L 9.625 57.625 
L 25.875 68.796875 
L 33.984375 68.796875 
L 33.984375 7.46875 
L 50.734375 7.46875 
L 50.734375 0 
z
" id="LiberationSans-31"/>
       <path d="M 62.109375 19 
Q 62.109375 14.65625 60.421875 10.984375 
Q 58.734375 7.328125 55.21875 4.65625 
Q 51.703125 2 46.359375 0.5 
Q 41.015625 -0.984375 33.6875 -0.984375 
Q 20.84375 -0.984375 13.671875 3.515625 
Q 6.5 8.015625 4.546875 16.5 
L 13.578125 18.3125 
Q 14.265625 15.625 15.671875 13.421875 
Q 17.09375 11.234375 19.5 9.640625 
Q 21.921875 8.0625 25.484375 7.171875 
Q 29.046875 6.296875 34.03125 6.296875 
Q 38.1875 6.296875 41.65625 7 
Q 45.125 7.71875 47.609375 9.171875 
Q 50.09375 10.640625 51.484375 12.953125 
Q 52.875 15.28125 52.875 18.5 
Q 52.875 21.875 51.34375 23.96875 
Q 49.8125 26.078125 47.015625 27.4375 
Q 44.234375 28.8125 40.375 29.734375 
Q 36.53125 30.671875 31.84375 31.734375 
Q 28.953125 32.375 26.046875 33.125 
Q 23.140625 33.890625 20.484375 34.9375 
Q 17.828125 35.984375 15.484375 37.390625 
Q 13.140625 38.8125 11.421875 40.796875 
Q 9.71875 42.78125 8.734375 45.390625 
Q 7.765625 48 7.765625 51.421875 
Q 7.765625 56.296875 9.734375 59.78125 
Q 11.71875 63.28125 15.234375 65.53125 
Q 18.75 67.78125 23.53125 68.796875 
Q 28.328125 69.828125 33.890625 69.828125 
Q 40.28125 69.828125 44.8125 68.828125 
Q 49.359375 67.828125 52.484375 65.8125 
Q 55.609375 63.8125 57.484375 60.859375 
Q 59.375 57.90625 60.5 54 
L 51.3125 52.390625 
Q 50.640625 54.890625 49.34375 56.84375 
Q 48.046875 58.796875 45.9375 60.109375 
Q 43.84375 61.421875 40.84375 62.109375 
Q 37.84375 62.796875 33.796875 62.796875 
Q 29 62.796875 25.75 61.9375 
Q 22.515625 61.078125 20.53125 59.609375 
Q 18.5625 58.15625 17.703125 56.171875 
Q 16.84375 54.203125 16.84375 51.90625 
Q 16.84375 48.828125 18.375 46.84375 
Q 19.921875 44.875 22.5625 43.546875 
Q 25.203125 42.234375 28.65625 41.359375 
Q 32.125 40.484375 36.03125 39.59375 
Q 39.203125 38.875 42.359375 38.109375 
Q 45.515625 37.359375 48.390625 36.296875 
Q 51.265625 35.25 53.78125 33.828125 
Q 56.296875 32.421875 58.15625 30.375 
Q 60.015625 28.328125 61.0625 25.53125 
Q 62.109375 22.75 62.109375 19 
" id="LiberationSans-53"/>
      </defs>
      <g style="fill:#555555;" transform="translate(915.12875 655.69375)scale(0.2 -0.2)">
       <use xlink:href="#LiberationSans-53"/>
       <use x="66.69921875" xlink:href="#LiberationSans-31"/>
      </g>
     </g>
    </g>
    <g id="text_4">
     <!-- Stimulation Site -->
     <defs>
      <path id="LiberationSans-Bold-20"/>
      <path d="M 57.171875 26.46875 
Q 57.171875 20.40625 55.484375 15.375 
Q 53.8125 10.359375 50.4375 6.71875 
Q 47.078125 3.078125 42.046875 1.046875 
Q 37.015625 -0.984375 30.328125 -0.984375 
Q 23.875 -0.984375 18.9375 1.015625 
Q 14.015625 3.03125 10.671875 6.640625 
Q 7.328125 10.25 5.609375 15.296875 
Q 3.90625 20.359375 3.90625 26.46875 
Q 3.90625 32.375 5.53125 37.375 
Q 7.171875 42.390625 10.484375 46.046875 
Q 13.8125 49.703125 18.84375 51.75 
Q 23.875 53.8125 30.609375 53.8125 
Q 37.75 53.8125 42.765625 51.75 
Q 47.796875 49.703125 51 46.0625 
Q 54.203125 42.4375 55.6875 37.421875 
Q 57.171875 32.421875 57.171875 26.46875 
M 42.828125 26.46875 
Q 42.828125 35.890625 39.75 40.140625 
Q 36.671875 44.390625 30.8125 44.390625 
Q 24.75 44.390625 21.53125 40.09375 
Q 18.3125 35.796875 18.3125 26.46875 
Q 18.3125 21.734375 19.15625 18.3125 
Q 20.015625 14.890625 21.578125 12.6875 
Q 23.140625 10.5 25.34375 9.453125 
Q 27.546875 8.40625 30.171875 8.40625 
Q 33.203125 8.40625 35.5625 9.453125 
Q 37.9375 10.5 39.546875 12.6875 
Q 41.15625 14.890625 41.984375 18.3125 
Q 42.828125 21.734375 42.828125 26.46875 
" id="LiberationSans-Bold-6f"/>
      <path d="M 41.21875 0 
L 41.21875 29.640625 
Q 41.21875 32.71875 40.71875 35.28125 
Q 40.234375 37.84375 39.109375 39.671875 
Q 37.984375 41.5 36.171875 42.53125 
Q 34.375 43.5625 31.78125 43.5625 
Q 29.296875 43.5625 27.265625 42.453125 
Q 25.25 41.359375 23.78125 39.328125 
Q 22.3125 37.3125 21.5 34.5 
Q 20.703125 31.6875 20.703125 28.328125 
L 20.703125 0 
L 6.984375 0 
L 6.984375 41.015625 
Q 6.984375 42.71875 6.953125 44.53125 
Q 6.9375 46.34375 6.859375 47.96875 
Q 6.78125 49.609375 6.734375 50.90625 
Q 6.6875 52.203125 6.59375 52.828125 
L 19.671875 52.828125 
Q 19.78125 52.25 19.875 50.953125 
Q 19.96875 49.65625 20.0625 48.09375 
Q 20.171875 46.53125 20.234375 44.96875 
Q 20.3125 43.40625 20.3125 42.328125 
L 20.515625 42.328125 
Q 23.296875 48.390625 27.484375 51.125 
Q 31.6875 53.859375 37.5 53.859375 
Q 42.28125 53.859375 45.578125 52.296875 
Q 48.875 50.734375 50.953125 48 
Q 53.03125 45.265625 53.953125 41.546875 
Q 54.890625 37.84375 54.890625 33.546875 
L 54.890625 0 
z
" id="LiberationSans-Bold-6e"/>
      <path d="M 38.09375 0 
L 38.09375 29.640625 
Q 38.09375 32.71875 37.671875 35.28125 
Q 37.25 37.84375 36.296875 39.671875 
Q 35.359375 41.5 33.8125 42.53125 
Q 32.28125 43.5625 30.078125 43.5625 
Q 27.984375 43.5625 26.265625 42.453125 
Q 24.5625 41.359375 23.3125 39.328125 
Q 22.078125 37.3125 21.390625 34.5 
Q 20.703125 31.6875 20.703125 28.328125 
L 20.703125 0 
L 6.984375 0 
L 6.984375 41.015625 
Q 6.984375 42.71875 6.953125 44.53125 
Q 6.9375 46.34375 6.859375 47.96875 
Q 6.78125 49.609375 6.734375 50.90625 
Q 6.6875 52.203125 6.59375 52.828125 
L 19.671875 52.828125 
Q 19.78125 52.25 19.875 50.953125 
Q 19.96875 49.65625 20.0625 48.09375 
Q 20.171875 46.53125 20.234375 44.96875 
Q 20.3125 43.40625 20.3125 42.328125 
L 20.515625 42.328125 
Q 23.046875 48.390625 26.828125 51.125 
Q 30.609375 53.859375 35.890625 53.859375 
Q 41.9375 53.859375 45.625 50.90625 
Q 49.3125 47.953125 50.59375 42.328125 
L 50.875 42.328125 
Q 52.296875 45.609375 53.921875 47.796875 
Q 55.5625 50 57.53125 51.34375 
Q 59.515625 52.6875 61.828125 53.265625 
Q 64.15625 53.859375 66.890625 53.859375 
Q 71.234375 53.859375 74.234375 52.296875 
Q 77.25 50.734375 79.125 48 
Q 81 45.265625 81.859375 41.546875 
Q 82.71875 37.84375 82.71875 33.546875 
L 82.71875 0 
L 69.09375 0 
L 69.09375 29.640625 
Q 69.09375 32.71875 68.671875 35.28125 
Q 68.265625 37.84375 67.3125 39.671875 
Q 66.359375 41.5 64.8125 42.53125 
Q 63.28125 43.5625 61.078125 43.5625 
Q 59.03125 43.5625 57.34375 42.5 
Q 55.671875 41.453125 54.421875 39.515625 
Q 53.171875 37.59375 52.484375 34.90625 
Q 51.8125 32.234375 51.703125 28.953125 
L 51.703125 0 
z
" id="LiberationSans-Bold-6d"/>
      <path d="M 6.984375 0 
L 6.984375 72.46875 
L 20.703125 72.46875 
L 20.703125 0 
z
" id="LiberationSans-Bold-6c"/>
      <path d="M 20.515625 -0.875 
Q 14.453125 -0.875 11.171875 2.421875 
Q 7.90625 5.71875 7.90625 12.40625 
L 7.90625 43.5625 
L 1.21875 43.5625 
L 1.21875 52.828125 
L 8.59375 52.828125 
L 12.890625 65.234375 
L 21.484375 65.234375 
L 21.484375 52.828125 
L 31.5 52.828125 
L 31.5 43.5625 
L 21.484375 43.5625 
L 21.484375 16.109375 
Q 21.484375 12.25 22.953125 10.421875 
Q 24.421875 8.59375 27.484375 8.59375 
Q 28.765625 8.59375 29.78125 8.78125 
Q 30.8125 8.984375 32.078125 9.28125 
L 32.078125 0.78125 
Q 29.546875 -0.046875 26.703125 -0.453125 
Q 23.875 -0.875 20.515625 -0.875 
" id="LiberationSans-Bold-74"/>
      <path d="M 62.796875 19.828125 
Q 62.796875 15.140625 61.078125 11.296875 
Q 59.375 7.46875 55.78125 4.734375 
Q 52.203125 2 46.609375 0.5 
Q 41.015625 -0.984375 33.296875 -0.984375 
Q 26.46875 -0.984375 21.234375 0.234375 
Q 16.015625 1.46875 12.28125 3.859375 
Q 8.546875 6.25 6.21875 9.78125 
Q 3.90625 13.328125 2.875 17.921875 
L 16.796875 20.21875 
Q 17.390625 17.921875 18.5 16.015625 
Q 19.625 14.109375 21.59375 12.71875 
Q 23.578125 11.328125 26.53125 10.5625 
Q 29.5 9.8125 33.6875 9.8125 
Q 41.015625 9.8125 44.890625 12.03125 
Q 48.78125 14.265625 48.78125 19 
Q 48.78125 21.828125 47.21875 23.625 
Q 45.65625 25.4375 43.0625 26.609375 
Q 40.484375 27.78125 37.109375 28.5625 
Q 33.734375 29.34375 30.078125 30.078125 
Q 27.15625 30.765625 24.21875 31.5 
Q 21.296875 32.234375 18.625 33.25 
Q 15.96875 34.28125 13.671875 35.6875 
Q 11.375 37.109375 9.6875 39.1875 
Q 8.015625 41.265625 7.0625 44.046875 
Q 6.109375 46.828125 6.109375 50.59375 
Q 6.109375 55.71875 8.15625 59.375 
Q 10.203125 63.03125 13.84375 65.34375 
Q 17.484375 67.671875 22.515625 68.75 
Q 27.546875 69.828125 33.5 69.828125 
Q 40.234375 69.828125 45.046875 68.765625 
Q 49.859375 67.71875 53.09375 65.5625 
Q 56.34375 63.421875 58.21875 60.171875 
Q 60.109375 56.9375 60.984375 52.59375 
L 47.015625 50.6875 
Q 45.953125 55.125 42.65625 57.375 
Q 39.359375 59.625 33.203125 59.625 
Q 29.390625 59.625 26.875 58.953125 
Q 24.359375 58.296875 22.875 57.171875 
Q 21.390625 56.0625 20.75 54.5625 
Q 20.125 53.078125 20.125 51.421875 
Q 20.125 48.875 21.34375 47.234375 
Q 22.5625 45.609375 24.75 44.5 
Q 26.953125 43.40625 30 42.640625 
Q 33.0625 41.890625 36.71875 41.109375 
Q 39.9375 40.4375 43.109375 39.671875 
Q 46.296875 38.921875 49.171875 37.890625 
Q 52.046875 36.859375 54.53125 35.390625 
Q 57.03125 33.9375 58.859375 31.8125 
Q 60.6875 29.6875 61.734375 26.75 
Q 62.796875 23.828125 62.796875 19.828125 
" id="LiberationSans-Bold-53"/>
      <path d="M 6.984375 62.359375 
L 6.984375 72.46875 
L 20.703125 72.46875 
L 20.703125 62.359375 
z
M 6.984375 0 
L 6.984375 52.828125 
L 20.703125 52.828125 
L 20.703125 0 
z
" id="LiberationSans-Bold-69"/>
      <path d="M 28.609375 -0.984375 
Q 22.90625 -0.984375 18.328125 0.703125 
Q 13.765625 2.390625 10.546875 5.828125 
Q 7.328125 9.28125 5.609375 14.46875 
Q 3.90625 19.671875 3.90625 26.65625 
Q 3.90625 34.234375 5.921875 39.40625 
Q 7.953125 44.578125 11.390625 47.78125 
Q 14.84375 50.984375 19.328125 52.390625 
Q 23.828125 53.8125 28.8125 53.8125 
Q 35.0625 53.8125 39.46875 51.640625 
Q 43.890625 49.46875 46.71875 45.5625 
Q 49.5625 41.65625 50.875 36.203125 
Q 52.203125 30.765625 52.203125 24.171875 
L 52.203125 23.78125 
L 18.3125 23.78125 
Q 18.3125 20.453125 18.890625 17.59375 
Q 19.484375 14.75 20.796875 12.671875 
Q 22.125 10.59375 24.21875 9.390625 
Q 26.3125 8.203125 29.296875 8.203125 
Q 32.90625 8.203125 35.203125 9.734375 
Q 37.5 11.28125 38.484375 14.5 
L 51.421875 13.375 
Q 50.53125 11.140625 48.9375 8.59375 
Q 47.359375 6.0625 44.71875 3.9375 
Q 42.09375 1.8125 38.15625 0.40625 
Q 34.234375 -0.984375 28.609375 -0.984375 
M 28.609375 45.171875 
Q 26.515625 45.171875 24.6875 44.453125 
Q 22.859375 43.75 21.515625 42.203125 
Q 20.171875 40.671875 19.328125 38.234375 
Q 18.5 35.796875 18.40625 32.375 
L 38.921875 32.375 
Q 38.53125 38.765625 35.84375 41.96875 
Q 33.15625 45.171875 28.609375 45.171875 
" id="LiberationSans-Bold-65"/>
      <path d="M 19.1875 -0.984375 
Q 15.375 -0.984375 12.375 0.0625 
Q 9.375 1.125 7.265625 3.140625 
Q 5.171875 5.171875 4.046875 8.15625 
Q 2.9375 11.140625 2.9375 14.9375 
Q 2.9375 19.625 4.5625 22.828125 
Q 6.203125 26.03125 9.03125 28 
Q 11.859375 29.984375 15.671875 30.875 
Q 19.484375 31.78125 23.78125 31.84375 
L 35.15625 32.03125 
L 35.15625 34.71875 
Q 35.15625 37.59375 34.640625 39.515625 
Q 34.125 41.453125 33.140625 42.671875 
Q 32.171875 43.890625 30.734375 44.40625 
Q 29.296875 44.921875 27.4375 44.921875 
Q 25.734375 44.921875 24.390625 44.578125 
Q 23.046875 44.234375 22.0625 43.375 
Q 21.09375 42.53125 20.484375 41.09375 
Q 19.875 39.65625 19.625 37.453125 
L 5.328125 38.140625 
Q 5.90625 41.609375 7.46875 44.453125 
Q 9.03125 47.3125 11.78125 49.40625 
Q 14.546875 51.515625 18.578125 52.65625 
Q 22.609375 53.8125 28.03125 53.8125 
Q 32.953125 53.8125 36.8125 52.59375 
Q 40.671875 51.375 43.359375 48.953125 
Q 46.046875 46.53125 47.453125 43.015625 
Q 48.875 39.5 48.875 34.859375 
L 48.875 15.625 
Q 48.875 13.765625 49.046875 12.296875 
Q 49.21875 10.84375 49.671875 9.84375 
Q 50.140625 8.84375 51 8.328125 
Q 51.859375 7.8125 53.21875 7.8125 
Q 54.78125 7.8125 56.25 8.109375 
L 56.25 0.6875 
Q 55.03125 0.390625 54.046875 0.140625 
Q 53.078125 -0.09375 52.09375 -0.234375 
Q 51.125 -0.390625 50.015625 -0.484375 
Q 48.921875 -0.59375 47.46875 -0.59375 
Q 42.28125 -0.59375 39.8125 1.953125 
Q 37.359375 4.5 36.859375 9.421875 
L 36.578125 9.421875 
Q 33.84375 4.5 29.5625 1.75 
Q 25.296875 -0.984375 19.1875 -0.984375 
M 35.15625 24.46875 
L 28.125 24.359375 
Q 25.921875 24.265625 23.9375 24 
Q 21.96875 23.734375 20.484375 22.875 
Q 19 22.015625 18.109375 20.40625 
Q 17.234375 18.796875 17.234375 16.015625 
Q 17.234375 12.25 18.96875 10.421875 
Q 20.703125 8.59375 23.578125 8.59375 
Q 26.21875 8.59375 28.359375 9.71875 
Q 30.515625 10.84375 32 12.671875 
Q 33.5 14.5 34.328125 16.890625 
Q 35.15625 19.28125 35.15625 21.78125 
z
" id="LiberationSans-Bold-61"/>
      <path d="M 19.921875 52.828125 
L 19.921875 23.1875 
Q 19.921875 20.125 20.40625 17.546875 
Q 20.90625 14.984375 22.015625 13.15625 
Q 23.140625 11.328125 24.921875 10.296875 
Q 26.703125 9.28125 29.296875 9.28125 
Q 31.78125 9.28125 33.8125 10.375 
Q 35.84375 11.46875 37.296875 13.5 
Q 38.765625 15.53125 39.5625 18.328125 
Q 40.375 21.140625 40.375 24.515625 
L 40.375 52.828125 
L 54.109375 52.828125 
L 54.109375 11.8125 
Q 54.109375 10.15625 54.125 8.328125 
Q 54.15625 6.5 54.21875 4.859375 
Q 54.296875 3.21875 54.359375 1.921875 
Q 54.4375 0.640625 54.5 0 
L 41.40625 0 
Q 41.359375 0.59375 41.234375 1.875 
Q 41.109375 3.171875 41.03125 4.734375 
Q 40.96875 6.296875 40.890625 7.859375 
Q 40.828125 9.421875 40.828125 10.5 
L 40.578125 10.5 
Q 37.84375 4.5 33.609375 1.75 
Q 29.390625 -0.984375 23.578125 -0.984375 
Q 18.84375 -0.984375 15.515625 0.578125 
Q 12.203125 2.15625 10.125 4.859375 
Q 8.0625 7.5625 7.125 11.265625 
Q 6.203125 14.984375 6.203125 19.28125 
L 6.203125 52.828125 
z
" id="LiberationSans-Bold-75"/>
     </defs>
     <g style="fill:#555555;" transform="translate(502.610625 697.23625)scale(0.24 -0.24)">
      <use xlink:href="#LiberationSans-Bold-53"/>
      <use x="66.69921875" xlink:href="#LiberationSans-Bold-74"/>
      <use x="100.0" xlink:href="#LiberationSans-Bold-69"/>
      <use x="127.783203125" xlink:href="#LiberationSans-Bold-6d"/>
      <use x="216.69921875" xlink:href="#LiberationSans-Bold-75"/>
      <use x="277.783203125" xlink:href="#LiberationSans-Bold-6c"/>
      <use x="305.56640625" xlink:href="#LiberationSans-Bold-61"/>
      <use x="361.181640625" xlink:href="#LiberationSans-Bold-74"/>
      <use x="394.482421875" xlink:href="#LiberationSans-Bold-69"/>
      <use x="422.265625" xlink:href="#LiberationSans-Bold-6f"/>
      <use x="483.349609375" xlink:href="#LiberationSans-Bold-6e"/>
      <use x="544.43359375" xlink:href="#LiberationSans-Bold-20"/>
      <use x="572.216796875" xlink:href="#LiberationSans-Bold-53"/>
      <use x="638.916015625" xlink:href="#LiberationSans-Bold-69"/>
      <use x="666.69921875" xlink:href="#LiberationSans-Bold-74"/>
      <use x="700.0" xlink:href="#LiberationSans-Bold-65"/>
     </g>
    </g>
   </g>
   <g id="matplotlib.axis_2">
    <g id="ytick_1">
     <g id="line2d_7">
      <path clip-path="url(#p7ad4a88a6a)" d="M 92.16 630 
L 1094.4 630 
" style="fill:none;stroke:#ffffff;stroke-width:1.6;"/>
     </g>
     <g id="line2d_8">
      <g>
       <use style="fill:#555555;stroke:#555555;stroke-width:1.6;" x="92.16" xlink:href="#m6aae65cfcb" y="630.0"/>
      </g>
     </g>
     <g id="line2d_9">
      <g>
       <use style="fill:#555555;stroke:#555555;stroke-width:1.6;" x="1094.4" xlink:href="#m6aae65cfcb" y="630.0"/>
      </g>
     </g>
     <g id="text_5">
      <!-- −1.5 -->
      <defs>
       <path d="M 4.9375 29.6875 
L 4.9375 36.8125 
L 53.515625 36.8125 
L 53.515625 29.6875 
z
" id="LiberationSans-2212"/>
       <path d="M 51.421875 22.40625 
Q 51.421875 17.234375 49.859375 12.9375 
Q 48.296875 8.640625 45.21875 5.53125 
Q 42.140625 2.4375 37.578125 0.71875 
Q 33.015625 -0.984375 27 -0.984375 
Q 21.578125 -0.984375 17.546875 0.28125 
Q 13.53125 1.5625 10.734375 3.78125 
Q 7.953125 6 6.3125 8.984375 
Q 4.6875 11.96875 4 15.375 
L 12.890625 16.40625 
Q 13.421875 14.453125 14.390625 12.625 
Q 15.375 10.796875 17.0625 9.34375 
Q 18.75 7.90625 21.21875 7.046875 
Q 23.6875 6.203125 27.203125 6.203125 
Q 30.609375 6.203125 33.390625 7.25 
Q 36.1875 8.296875 38.15625 10.34375 
Q 40.140625 12.40625 41.203125 15.375 
Q 42.28125 18.359375 42.28125 22.21875 
Q 42.28125 25.390625 41.25 28.046875 
Q 40.234375 30.71875 38.328125 32.640625 
Q 36.421875 34.578125 33.65625 35.640625 
Q 30.90625 36.71875 27.390625 36.71875 
Q 25.203125 36.71875 23.34375 36.328125 
Q 21.484375 35.9375 19.890625 35.25 
Q 18.3125 34.578125 17.015625 33.671875 
Q 15.71875 32.765625 14.59375 31.78125 
L 6 31.78125 
L 8.296875 68.796875 
L 47.40625 68.796875 
L 47.40625 61.328125 
L 16.3125 61.328125 
L 14.984375 39.5 
Q 17.328125 41.3125 20.84375 42.59375 
Q 24.359375 43.890625 29.203125 43.890625 
Q 34.328125 43.890625 38.421875 42.328125 
Q 42.53125 40.765625 45.40625 37.90625 
Q 48.296875 35.0625 49.859375 31.109375 
Q 51.421875 27.15625 51.421875 22.40625 
" id="LiberationSans-35"/>
       <path d="M 9.125 0 
L 9.125 10.6875 
L 18.65625 10.6875 
L 18.65625 0 
z
" id="LiberationSans-2e"/>
      </defs>
      <g style="fill:#555555;" transform="translate(41.47875 635.171875)scale(0.2 -0.2)">
       <use xlink:href="#LiberationSans-2212"/>
       <use x="58.3984375" xlink:href="#LiberationSans-31"/>
       <use x="114.013671875" xlink:href="#LiberationSans-2e"/>
       <use x="141.796875" xlink:href="#LiberationSans-35"/>
      </g>
     </g>
    </g>
    <g id="ytick_2">
     <g id="line2d_10">
      <path clip-path="url(#p7ad4a88a6a)" d="M 92.16 537 
L 1094.4 537 
" style="fill:none;stroke:#ffffff;stroke-width:1.6;"/>
     </g>
     <g id="line2d_11">
      <g>
       <use style="fill:#555555;stroke:#555555;stroke-width:1.6;" x="92.16" xlink:href="#m6aae65cfcb" y="537.0"/>
      </g>
     </g>
     <g id="line2d_12">
      <g>
       <use style="fill:#555555;stroke:#555555;stroke-width:1.6;" x="1094.4" xlink:href="#m6aae65cfcb" y="537.0"/>
      </g>
     </g>
     <g id="text_6">
      <!-- −1.0 -->
      <defs>
       <path d="M 51.703125 34.421875 
Q 51.703125 24.515625 49.828125 17.75 
Q 47.953125 10.984375 44.703125 6.8125 
Q 41.453125 2.640625 37.0625 0.828125 
Q 32.671875 -0.984375 27.6875 -0.984375 
Q 22.65625 -0.984375 18.3125 0.828125 
Q 13.96875 2.640625 10.765625 6.78125 
Q 7.5625 10.9375 5.734375 17.703125 
Q 3.90625 24.46875 3.90625 34.421875 
Q 3.90625 44.828125 5.734375 51.640625 
Q 7.5625 58.453125 10.78125 62.5 
Q 14.015625 66.546875 18.40625 68.1875 
Q 22.796875 69.828125 27.984375 69.828125 
Q 32.90625 69.828125 37.21875 68.1875 
Q 41.546875 66.546875 44.765625 62.5 
Q 48 58.453125 49.84375 51.640625 
Q 51.703125 44.828125 51.703125 34.421875 
M 42.78125 34.421875 
Q 42.78125 42.625 41.796875 48.0625 
Q 40.828125 53.515625 38.921875 56.765625 
Q 37.015625 60.015625 34.25 61.359375 
Q 31.5 62.703125 27.984375 62.703125 
Q 24.265625 62.703125 21.4375 61.328125 
Q 18.609375 59.96875 16.671875 56.71875 
Q 14.75 53.46875 13.765625 48.015625 
Q 12.796875 42.578125 12.796875 34.421875 
Q 12.796875 26.515625 13.796875 21.09375 
Q 14.796875 15.671875 16.71875 12.375 
Q 18.65625 9.078125 21.4375 7.640625 
Q 24.21875 6.203125 27.78125 6.203125 
Q 31.25 6.203125 34.03125 7.640625 
Q 36.8125 9.078125 38.734375 12.375 
Q 40.671875 15.671875 41.71875 21.09375 
Q 42.78125 26.515625 42.78125 34.421875 
" id="LiberationSans-30"/>
      </defs>
      <g style="fill:#555555;" transform="translate(41.47875 542.171875)scale(0.2 -0.2)">
       <use xlink:href="#LiberationSans-2212"/>
       <use x="58.3984375" xlink:href="#LiberationSans-31"/>
       <use x="114.013671875" xlink:href="#LiberationSans-2e"/>
       <use x="141.796875" xlink:href="#LiberationSans-30"/>
      </g>
     </g>
    </g>
    <g id="ytick_3">
     <g id="line2d_13">
      <path clip-path="url(#p7ad4a88a6a)" d="M 92.16 444 
L 1094.4 444 
" style="fill:none;stroke:#ffffff;stroke-width:1.6;"/>
     </g>
     <g id="line2d_14">
      <g>
       <use style="fill:#555555;stroke:#555555;stroke-width:1.6;" x="92.16" xlink:href="#m6aae65cfcb" y="444.0"/>
      </g>
     </g>
     <g id="line2d_15">
      <g>
       <use style="fill:#555555;stroke:#555555;stroke-width:1.6;" x="1094.4" xlink:href="#m6aae65cfcb" y="444.0"/>
      </g>
     </g>
     <g id="text_7">
      <!-- −0.5 -->
      <g style="fill:#555555;" transform="translate(41.47875 449.171875)scale(0.2 -0.2)">
       <use xlink:href="#LiberationSans-2212"/>
       <use x="58.3984375" xlink:href="#LiberationSans-30"/>
       <use x="114.013671875" xlink:href="#LiberationSans-2e"/>
       <use x="141.796875" xlink:href="#LiberationSans-35"/>
      </g>
     </g>
    </g>
    <g id="ytick_4">
     <g id="line2d_16">
      <path clip-path="url(#p7ad4a88a6a)" d="M 92.16 351 
L 1094.4 351 
" style="fill:none;stroke:#ffffff;stroke-width:1.6;"/>
     </g>
     <g id="line2d_17">
      <g>
       <use style="fill:#555555;stroke:#555555;stroke-width:1.6;" x="92.16" xlink:href="#m6aae65cfcb" y="351.0"/>
      </g>
     </g>
     <g id="line2d_18">
      <g>
       <use style="fill:#555555;stroke:#555555;stroke-width:1.6;" x="1094.4" xlink:href="#m6aae65cfcb" y="351.0"/>
      </g>
     </g>
     <g id="text_8">
      <!-- 0.0 -->
      <g style="fill:#555555;" transform="translate(53.16 356.171875)scale(0.2 -0.2)">
       <use xlink:href="#LiberationSans-30"/>
       <use x="55.615234375" xlink:href="#LiberationSans-2e"/>
       <use x="83.3984375" xlink:href="#LiberationSans-30"/>
      </g>
     </g>
    </g>
    <g id="ytick_5">
     <g id="line2d_19">
      <path clip-path="url(#p7ad4a88a6a)" d="M 92.16 258 
L 1094.4 258 
" style="fill:none;stroke:#ffffff;stroke-width:1.6;"/>
     </g>
     <g id="line2d_20">
      <g>
       <use style="fill:#555555;stroke:#555555;stroke-width:1.6;" x="92.16" xlink:href="#m6aae65cfcb" y="258.0"/>
      </g>
     </g>
     <g id="line2d_21">
      <g>
       <use style="fill:#555555;stroke:#555555;stroke-width:1.6;" x="1094.4" xlink:href="#m6aae65cfcb" y="258.0"/>
      </g>
     </g>
     <g id="text_9">
      <!-- 0.5 -->
      <g style="fill:#555555;" transform="translate(53.16 263.171875)scale(0.2 -0.2)">
       <use xlink:href="#LiberationSans-30"/>
       <use x="55.615234375" xlink:href="#LiberationSans-2e"/>
       <use x="83.3984375" xlink:href="#LiberationSans-35"/>
      </g>
     </g>
    </g>
    <g id="ytick_6">
     <g id="line2d_22">
      <path clip-path="url(#p7ad4a88a6a)" d="M 92.16 165 
L 1094.4 165 
" style="fill:none;stroke:#ffffff;stroke-width:1.6;"/>
     </g>
     <g id="line2d_23">
      <g>
       <use style="fill:#555555;stroke:#555555;stroke-width:1.6;" x="92.16" xlink:href="#m6aae65cfcb" y="165.0"/>
      </g>
     </g>
     <g id="line2d_24">
      <g>
       <use style="fill:#555555;stroke:#555555;stroke-width:1.6;" x="1094.4" xlink:href="#m6aae65cfcb" y="165.0"/>
      </g>
     </g>
     <g id="text_10">
      <!-- 1.0 -->
      <g style="fill:#555555;" transform="translate(53.16 170.171875)scale(0.2 -0.2)">
       <use xlink:href="#LiberationSans-31"/>
       <use x="55.615234375" xlink:href="#LiberationSans-2e"/>
       <use x="83.3984375" xlink:href="#LiberationSans-30"/>
      </g>
     </g>
    </g>
    <g id="ytick_7">
     <g id="line2d_25">
      <path clip-path="url(#p7ad4a88a6a)" d="M 92.16 72 
L 1094.4 72 
" style="fill:none;stroke:#ffffff;stroke-width:1.6;"/>
     </g>
     <g id="line2d_26">
      <g>
       <use style="fill:#555555;stroke:#555555;stroke-width:1.6;" x="92.16" xlink:href="#m6aae65cfcb" y="72.0"/>
      </g>
     </g>
     <g id="line2d_27">
      <g>
       <use style="fill:#555555;stroke:#555555;stroke-width:1.6;" x="1094.4" xlink:href="#m6aae65cfcb" y="72.0"/>
      </g>
     </g>
     <g id="text_11">
      <!-- 1.5 -->
      <g style="fill:#555555;" transform="translate(53.16 77.171875)scale(0.2 -0.2)">
       <use xlink:href="#LiberationSans-31"/>
       <use x="55.615234375" xlink:href="#LiberationSans-2e"/>
       <use x="83.3984375" xlink:href="#LiberationSans-35"/>
      </g>
     </g>
    </g>
    <g id="text_12">
     <!-- Change in mean CBF under coil -->
     <defs>
      <path d="M 20.515625 42.28125 
Q 23.296875 48.34375 27.484375 51.078125 
Q 31.6875 53.8125 37.5 53.8125 
Q 42.28125 53.8125 45.578125 52.25 
Q 48.875 50.6875 50.953125 47.953125 
Q 53.03125 45.21875 53.953125 41.5 
Q 54.890625 37.796875 54.890625 33.5 
L 54.890625 0 
L 41.21875 0 
L 41.21875 29.59375 
Q 41.21875 32.671875 40.71875 35.234375 
Q 40.234375 37.796875 39.109375 39.625 
Q 37.984375 41.453125 36.171875 42.46875 
Q 34.375 43.5 31.78125 43.5 
Q 29.296875 43.5 27.265625 42.40625 
Q 25.25 41.3125 23.78125 39.28125 
Q 22.3125 37.25 21.5 34.4375 
Q 20.703125 31.640625 20.703125 28.265625 
L 20.703125 0 
L 6.984375 0 
L 6.984375 72.46875 
L 20.703125 72.46875 
L 20.703125 52.6875 
Q 20.703125 51.125 20.65625 49.53125 
Q 20.609375 47.953125 20.53125 46.5625 
Q 20.453125 45.171875 20.40625 44.046875 
Q 20.359375 42.921875 20.3125 42.28125 
z
" id="LiberationSans-Bold-68"/>
      <path d="M 6.984375 0 
L 6.984375 40.4375 
Q 6.984375 42.140625 6.953125 44.046875 
Q 6.9375 45.953125 6.859375 47.6875 
Q 6.78125 49.421875 6.734375 50.8125 
Q 6.6875 52.203125 6.59375 52.828125 
L 19.671875 52.828125 
Q 19.78125 52.25 19.875 50.796875 
Q 19.96875 49.359375 20.0625 47.65625 
Q 20.171875 45.953125 20.234375 44.265625 
Q 20.3125 42.578125 20.3125 41.546875 
L 20.515625 41.546875 
Q 21.53125 44.4375 22.546875 46.703125 
Q 23.578125 48.96875 24.96875 50.5625 
Q 26.375 52.15625 28.328125 53 
Q 30.28125 53.859375 33.15625 53.859375 
Q 34.375 53.859375 35.5625 53.640625 
Q 36.765625 53.421875 37.40625 53.125 
L 37.40625 41.65625 
Q 36.078125 41.9375 34.734375 42.15625 
Q 33.40625 42.390625 31.546875 42.390625 
Q 26.421875 42.390625 23.5625 38.234375 
Q 20.703125 34.078125 20.703125 25.921875 
L 20.703125 0 
z
" id="LiberationSans-Bold-72"/>
      <path d="M 21.09375 57.671875 
L 21.09375 36.375 
L 56.296875 36.375 
L 56.296875 25.25 
L 21.09375 25.25 
L 21.09375 0 
L 6.6875 0 
L 6.6875 68.796875 
L 57.421875 68.796875 
L 57.421875 57.671875 
z
" id="LiberationSans-Bold-46"/>
      <path d="M 38.8125 10.359375 
Q 42.875 10.359375 45.828125 11.5 
Q 48.78125 12.640625 50.953125 14.5 
Q 53.125 16.359375 54.5625 18.703125 
Q 56 21.046875 56.9375 23.4375 
L 69.484375 18.703125 
Q 67.96875 14.984375 65.53125 11.421875 
Q 63.09375 7.859375 59.421875 5.125 
Q 55.765625 2.390625 50.703125 0.703125 
Q 45.65625 -0.984375 38.8125 -0.984375 
Q 29.890625 -0.984375 23.34375 1.671875 
Q 16.796875 4.34375 12.515625 9.109375 
Q 8.25 13.875 6.171875 20.40625 
Q 4.109375 26.953125 4.109375 34.71875 
Q 4.109375 42.78125 6.171875 49.265625 
Q 8.25 55.765625 12.453125 60.328125 
Q 16.65625 64.890625 23.078125 67.359375 
Q 29.5 69.828125 38.1875 69.828125 
Q 44.921875 69.828125 49.96875 68.40625 
Q 55.03125 67 58.71875 64.421875 
Q 62.40625 61.859375 64.8125 58.375 
Q 67.234375 54.890625 68.609375 50.6875 
L 55.90625 47.21875 
Q 55.21875 49.421875 53.796875 51.4375 
Q 52.390625 53.46875 50.21875 55.03125 
Q 48.046875 56.59375 45.109375 57.546875 
Q 42.1875 58.5 38.484375 58.5 
Q 33.25 58.5 29.484375 56.8125 
Q 25.734375 55.125 23.3125 52 
Q 20.90625 48.875 19.75 44.5 
Q 18.609375 40.140625 18.609375 34.71875 
Q 18.609375 29.34375 19.75 24.875 
Q 20.90625 20.40625 23.34375 17.1875 
Q 25.78125 13.96875 29.609375 12.15625 
Q 33.453125 10.359375 38.8125 10.359375 
" id="LiberationSans-Bold-43"/>
      <path d="M 67.671875 19.625 
Q 67.671875 14.40625 65.578125 10.671875 
Q 63.484375 6.9375 59.84375 4.5625 
Q 56.203125 2.203125 51.359375 1.09375 
Q 46.53125 0 41.109375 0 
L 6.6875 0 
L 6.6875 68.796875 
L 38.1875 68.796875 
Q 44.28125 68.796875 49.046875 67.75 
Q 53.8125 66.703125 57.078125 64.546875 
Q 60.359375 62.40625 62.03125 59.15625 
Q 63.71875 55.90625 63.71875 51.515625 
Q 63.71875 45.65625 60.46875 41.625 
Q 57.234375 37.59375 50.59375 36.1875 
Q 58.9375 35.203125 63.296875 30.921875 
Q 67.671875 26.65625 67.671875 19.625 
M 49.21875 49.5625 
Q 49.21875 54.203125 46.265625 56.15625 
Q 43.3125 58.109375 37.5 58.109375 
L 21.09375 58.109375 
L 21.09375 41.0625 
L 37.59375 41.0625 
Q 43.703125 41.0625 46.453125 43.1875 
Q 49.21875 45.3125 49.21875 49.5625 
M 53.21875 20.75 
Q 53.21875 23.484375 52.140625 25.34375 
Q 51.078125 27.203125 49.1875 28.3125 
Q 47.3125 29.4375 44.796875 29.921875 
Q 42.28125 30.421875 39.359375 30.421875 
L 21.09375 30.421875 
L 21.09375 10.6875 
L 39.890625 10.6875 
Q 42.71875 10.6875 45.15625 11.15625 
Q 47.609375 11.625 49.390625 12.765625 
Q 51.171875 13.921875 52.1875 15.875 
Q 53.21875 17.828125 53.21875 20.75 
" id="LiberationSans-Bold-42"/>
      <path d="M 29.109375 -21.1875 
Q 23.875 -21.1875 19.890625 -20.140625 
Q 15.921875 -19.09375 13.109375 -17.203125 
Q 10.296875 -15.328125 8.609375 -12.71875 
Q 6.9375 -10.109375 6.296875 -6.984375 
L 20.015625 -5.375 
Q 20.75 -8.546875 23.171875 -10.34375 
Q 25.59375 -12.15625 29.5 -12.15625 
Q 31.9375 -12.15625 33.953125 -11.46875 
Q 35.984375 -10.796875 37.421875 -9.15625 
Q 38.875 -7.515625 39.671875 -4.828125 
Q 40.484375 -2.15625 40.484375 1.8125 
Q 40.484375 3.171875 40.484375 4.578125 
Q 40.484375 6 40.53125 7.171875 
Q 40.578125 8.546875 40.578125 9.8125 
L 40.484375 9.8125 
Q 38.09375 4.6875 33.765625 2.390625 
Q 29.4375 0.09375 23.484375 0.09375 
Q 18.453125 0.09375 14.8125 2.0625 
Q 11.1875 4.046875 8.78125 7.59375 
Q 6.390625 11.140625 5.25 16.046875 
Q 4.109375 20.953125 4.109375 26.859375 
Q 4.109375 32.953125 5.328125 37.90625 
Q 6.546875 42.875 9.0625 46.4375 
Q 11.578125 50 15.40625 51.921875 
Q 19.234375 53.859375 24.515625 53.859375 
Q 29.78125 53.859375 33.953125 51.609375 
Q 38.140625 49.359375 40.484375 44.34375 
L 40.71875 44.34375 
Q 40.71875 45.359375 40.796875 46.703125 
Q 40.875 48.046875 40.96875 49.28125 
Q 41.0625 50.53125 41.1875 51.5 
Q 41.3125 52.484375 41.40625 52.828125 
L 54.390625 52.828125 
Q 54.296875 51.078125 54.203125 47.90625 
Q 54.109375 44.734375 54.109375 40.625 
L 54.109375 1.609375 
Q 54.109375 -4.15625 52.4375 -8.421875 
Q 50.78125 -12.703125 47.578125 -15.53125 
Q 44.390625 -18.359375 39.71875 -19.765625 
Q 35.0625 -21.1875 29.109375 -21.1875 
M 40.578125 27.15625 
Q 40.578125 32.125 39.59375 35.4375 
Q 38.625 38.765625 37.0625 40.765625 
Q 35.5 42.78125 33.46875 43.609375 
Q 31.453125 44.4375 29.390625 44.4375 
Q 26.765625 44.4375 24.734375 43.40625 
Q 22.703125 42.390625 21.28125 40.234375 
Q 19.875 38.09375 19.140625 34.765625 
Q 18.40625 31.453125 18.40625 26.859375 
Q 18.40625 18.3125 21.140625 13.96875 
Q 23.875 9.625 29.296875 9.625 
Q 31.34375 9.625 33.375 10.421875 
Q 35.40625 11.234375 37.015625 13.25 
Q 38.625 15.28125 39.59375 18.640625 
Q 40.578125 22.015625 40.578125 27.15625 
" id="LiberationSans-Bold-67"/>
      <path d="M 41.21875 0 
Q 41.109375 0.390625 40.984375 1.390625 
Q 40.875 2.390625 40.75 3.65625 
Q 40.625 4.9375 40.546875 6.25 
Q 40.484375 7.5625 40.484375 8.59375 
L 40.28125 8.59375 
Q 37.890625 3.46875 33.609375 1.234375 
Q 29.34375 -0.984375 23.390625 -0.984375 
Q 18.40625 -0.984375 14.765625 1.0625 
Q 11.140625 3.125 8.765625 6.78125 
Q 6.390625 10.453125 5.25 15.453125 
Q 4.109375 20.453125 4.109375 26.375 
Q 4.109375 32.375 5.296875 37.40625 
Q 6.5 42.4375 8.984375 46.0625 
Q 11.46875 49.703125 15.296875 51.75 
Q 19.140625 53.8125 24.421875 53.8125 
Q 27 53.8125 29.390625 53.265625 
Q 31.78125 52.734375 33.828125 51.609375 
Q 35.890625 50.484375 37.546875 48.71875 
Q 39.203125 46.96875 40.375 44.484375 
L 40.484375 44.484375 
Q 40.484375 44.96875 40.453125 45.921875 
Q 40.4375 46.875 40.4375 48.09375 
Q 40.4375 49.3125 40.40625 50.625 
Q 40.375 51.953125 40.375 53.171875 
L 40.375 72.46875 
L 54.109375 72.46875 
L 54.109375 11.53125 
Q 54.109375 7.671875 54.25 4.65625 
Q 54.390625 1.65625 54.5 0 
z
M 40.578125 26.703125 
Q 40.578125 31.9375 39.59375 35.375 
Q 38.625 38.8125 37.03125 40.84375 
Q 35.453125 42.875 33.421875 43.671875 
Q 31.390625 44.484375 29.296875 44.484375 
Q 26.65625 44.484375 24.625 43.453125 
Q 22.609375 42.4375 21.21875 40.234375 
Q 19.828125 38.03125 19.109375 34.609375 
Q 18.40625 31.203125 18.40625 26.375 
Q 18.40625 8.40625 29.203125 8.40625 
Q 31.25 8.40625 33.296875 9.28125 
Q 35.359375 10.15625 36.96875 12.25 
Q 38.578125 14.359375 39.578125 17.890625 
Q 40.578125 21.4375 40.578125 26.703125 
" id="LiberationSans-Bold-64"/>
      <path d="M 29 -0.984375 
Q 22.703125 -0.984375 17.984375 0.96875 
Q 13.28125 2.9375 10.15625 6.5 
Q 7.03125 10.0625 5.46875 15.0625 
Q 3.90625 20.0625 3.90625 26.125 
Q 3.90625 32.71875 5.609375 37.859375 
Q 7.328125 43.015625 10.546875 46.546875 
Q 13.765625 50.09375 18.46875 51.953125 
Q 23.1875 53.8125 29.203125 53.8125 
Q 34.328125 53.8125 38.296875 52.4375 
Q 42.28125 51.078125 45.15625 48.703125 
Q 48.046875 46.34375 49.828125 43.109375 
Q 51.609375 39.890625 52.296875 36.1875 
L 38.484375 35.5 
Q 37.890625 39.546875 35.546875 41.96875 
Q 33.203125 44.390625 28.90625 44.390625 
Q 23.390625 44.390625 20.84375 39.84375 
Q 18.3125 35.296875 18.3125 26.65625 
Q 18.3125 8.40625 29.109375 8.40625 
Q 33.015625 8.40625 35.640625 10.859375 
Q 38.28125 13.328125 38.921875 18.21875 
L 52.6875 17.578125 
Q 52.203125 13.921875 50.46875 10.578125 
Q 48.734375 7.234375 45.78125 4.65625 
Q 42.828125 2.09375 38.625 0.546875 
Q 34.421875 -0.984375 29 -0.984375 
" id="LiberationSans-Bold-63"/>
     </defs>
     <g style="fill:#555555;" transform="translate(16.39375 532.3425)rotate(-90.0)scale(0.24 -0.24)">
      <use xlink:href="#LiberationSans-Bold-43"/>
      <use x="72.216796875" xlink:href="#LiberationSans-Bold-68"/>
      <use x="133.30078125" xlink:href="#LiberationSans-Bold-61"/>
      <use x="188.916015625" xlink:href="#LiberationSans-Bold-6e"/>
      <use x="250.0" xlink:href="#LiberationSans-Bold-67"/>
      <use x="311.083984375" xlink:href="#LiberationSans-Bold-65"/>
      <use x="366.69921875" xlink:href="#LiberationSans-Bold-20"/>
      <use x="394.482421875" xlink:href="#LiberationSans-Bold-69"/>
      <use x="422.265625" xlink:href="#LiberationSans-Bold-6e"/>
      <use x="483.349609375" xlink:href="#LiberationSans-Bold-20"/>
      <use x="511.1328125" xlink:href="#LiberationSans-Bold-6d"/>
      <use x="600.048828125" xlink:href="#LiberationSans-Bold-65"/>
      <use x="655.6640625" xlink:href="#LiberationSans-Bold-61"/>
      <use x="711.279296875" xlink:href="#LiberationSans-Bold-6e"/>
      <use x="772.36328125" xlink:href="#LiberationSans-Bold-20"/>
      <use x="800.146484375" xlink:href="#LiberationSans-Bold-43"/>
      <use x="872.36328125" xlink:href="#LiberationSans-Bold-42"/>
      <use x="944.580078125" xlink:href="#LiberationSans-Bold-46"/>
      <use x="1005.6640625" xlink:href="#LiberationSans-Bold-20"/>
      <use x="1033.44726562" xlink:href="#LiberationSans-Bold-75"/>
      <use x="1094.53125" xlink:href="#LiberationSans-Bold-6e"/>
      <use x="1155.61523438" xlink:href="#LiberationSans-Bold-64"/>
      <use x="1216.69921875" xlink:href="#LiberationSans-Bold-65"/>
      <use x="1272.31445312" xlink:href="#LiberationSans-Bold-72"/>
      <use x="1311.23046875" xlink:href="#LiberationSans-Bold-20"/>
      <use x="1339.01367188" xlink:href="#LiberationSans-Bold-63"/>
      <use x="1394.62890625" xlink:href="#LiberationSans-Bold-6f"/>
      <use x="1455.71289062" xlink:href="#LiberationSans-Bold-69"/>
      <use x="1483.49609375" xlink:href="#LiberationSans-Bold-6c"/>
     </g>
    </g>
   </g>
   <g id="PolyCollection_1">
    <defs>
     <path d="M 260.737837 -239.904377 
L 257.662163 -239.904377 
L 257.19237 -243.01363 
L 256.613556 -246.122883 
L 255.910493 -249.232136 
L 255.068096 -252.341389 
L 254.071755 -255.450642 
L 252.907579 -258.559895 
L 251.562467 -261.669148 
L 250.023987 -264.778401 
L 248.280063 -267.887654 
L 246.318494 -270.996907 
L 244.12638 -274.10616 
L 241.689578 -277.215413 
L 238.992334 -280.324666 
L 236.017232 -283.433919 
L 232.745612 -286.543172 
L 229.158548 -289.652425 
L 225.238415 -292.761678 
L 220.970983 -295.870931 
L 216.347892 -298.980184 
L 211.369289 -302.089437 
L 206.046312 -305.19869 
L 200.403153 -308.307943 
L 194.478386 -311.417196 
L 188.325372 -314.526449 
L 182.011624 -317.635702 
L 175.617159 -320.744955 
L 169.23195 -323.854208 
L 162.952746 -326.963461 
L 156.879523 -330.072714 
L 151.111892 -333.181967 
L 145.74572 -336.29122 
L 140.870184 -339.400473 
L 136.565342 -342.509726 
L 132.900263 -345.618979 
L 129.93165 -348.728232 
L 127.702875 -351.837485 
L 126.243326 -354.946738 
L 125.568 -358.055991 
L 125.677311 -361.165244 
L 126.557147 -364.274497 
L 128.17921 -367.38375 
L 130.501726 -370.493003 
L 133.470554 -373.602256 
L 137.020727 -376.711509 
L 141.078369 -379.820762 
L 145.562927 -382.930015 
L 150.389588 -386.039268 
L 155.471761 -389.148521 
L 160.723484 -392.257774 
L 166.061678 -395.367026 
L 171.408158 -398.476279 
L 176.691372 -401.585532 
L 181.847853 -404.694785 
L 186.82336 -407.804038 
L 191.573708 -410.913291 
L 196.065252 -414.022544 
L 200.27499 -417.131797 
L 204.190255 -420.24105 
L 207.807978 -423.350303 
L 211.133534 -426.459556 
L 214.179221 -429.568809 
L 216.962486 -432.678062 
L 219.504043 -435.787315 
L 221.826025 -438.896568 
L 223.950366 -442.005821 
L 225.897521 -445.115074 
L 227.68565 -448.224327 
L 229.330275 -451.33358 
L 230.844393 -454.442833 
L 232.238975 -457.552086 
L 233.523705 -460.661339 
L 234.707841 -463.770592 
L 235.801034 -466.879845 
L 236.813994 -469.989098 
L 237.758898 -473.098351 
L 238.64948 -476.207604 
L 239.500803 -479.316857 
L 240.328715 -482.42611 
L 241.149066 -485.535363 
L 241.976764 -488.644616 
L 242.824764 -491.753869 
L 243.703128 -494.863122 
L 244.618233 -497.972375 
L 245.572243 -501.081628 
L 246.5629 -504.190881 
L 247.583672 -507.300134 
L 248.624246 -510.409387 
L 249.671331 -513.51864 
L 250.709686 -516.627893 
L 251.723268 -519.737146 
L 252.696396 -522.846399 
L 253.614815 -525.955652 
L 254.466571 -529.064905 
L 255.242631 -532.174158 
L 255.937215 -535.283411 
L 256.547843 -538.392664 
L 257.075127 -541.501917 
L 257.522361 -544.61117 
L 257.894981 -547.720423 
L 260.505019 -547.720423 
L 260.505019 -547.720423 
L 260.877639 -544.61117 
L 261.324873 -541.501917 
L 261.852157 -538.392664 
L 262.462785 -535.283411 
L 263.157369 -532.174158 
L 263.933429 -529.064905 
L 264.785185 -525.955652 
L 265.703604 -522.846399 
L 266.676732 -519.737146 
L 267.690314 -516.627893 
L 268.728669 -513.51864 
L 269.775754 -510.409387 
L 270.816328 -507.300134 
L 271.8371 -504.190881 
L 272.827757 -501.081628 
L 273.781767 -497.972375 
L 274.696872 -494.863122 
L 275.575236 -491.753869 
L 276.423236 -488.644616 
L 277.250934 -485.535363 
L 278.071285 -482.42611 
L 278.899197 -479.316857 
L 279.75052 -476.207604 
L 280.641102 -473.098351 
L 281.586006 -469.989098 
L 282.598966 -466.879845 
L 283.692159 -463.770592 
L 284.876295 -460.661339 
L 286.161025 -457.552086 
L 287.555607 -454.442833 
L 289.069725 -451.33358 
L 290.71435 -448.224327 
L 292.502479 -445.115074 
L 294.449634 -442.005821 
L 296.573975 -438.896568 
L 298.895957 -435.787315 
L 301.437514 -432.678062 
L 304.220779 -429.568809 
L 307.266466 -426.459556 
L 310.592022 -423.350303 
L 314.209745 -420.24105 
L 318.12501 -417.131797 
L 322.334748 -414.022544 
L 326.826292 -410.913291 
L 331.57664 -407.804038 
L 336.552147 -404.694785 
L 341.708628 -401.585532 
L 346.991842 -398.476279 
L 352.338322 -395.367026 
L 357.676516 -392.257774 
L 362.928239 -389.148521 
L 368.010412 -386.039268 
L 372.837073 -382.930015 
L 377.321631 -379.820762 
L 381.379273 -376.711509 
L 384.929446 -373.602256 
L 387.898274 -370.493003 
L 390.22079 -367.38375 
L 391.842853 -364.274497 
L 392.722689 -361.165244 
L 392.832 -358.055991 
L 392.156674 -354.946738 
L 390.697125 -351.837485 
L 388.46835 -348.728232 
L 385.499737 -345.618979 
L 381.834658 -342.509726 
L 377.529816 -339.400473 
L 372.65428 -336.29122 
L 367.288108 -333.181967 
L 361.520477 -330.072714 
L 355.447254 -326.963461 
L 349.16805 -323.854208 
L 342.782841 -320.744955 
L 336.388376 -317.635702 
L 330.074628 -314.526449 
L 323.921614 -311.417196 
L 317.996847 -308.307943 
L 312.353688 -305.19869 
L 307.030711 -302.089437 
L 302.052108 -298.980184 
L 297.429017 -295.870931 
L 293.161585 -292.761678 
L 289.241452 -289.652425 
L 285.654388 -286.543172 
L 282.382768 -283.433919 
L 279.407666 -280.324666 
L 276.710422 -277.215413 
L 274.27362 -274.10616 
L 272.081506 -270.996907 
L 270.119937 -267.887654 
L 268.376013 -264.778401 
L 266.837533 -261.669148 
L 265.492421 -258.559895 
L 264.328245 -255.450642 
L 263.331904 -252.341389 
L 262.489507 -249.232136 
L 261.786444 -246.122883 
L 261.20763 -243.01363 
L 260.737837 -239.904377 
z
" id="m12cd1f4f95" style="stroke:#373737;stroke-width:2.8;"/>
    </defs>
    <g clip-path="url(#p7ad4a88a6a)">
     <use style="fill:#2b8e70;stroke:#373737;stroke-width:2.8;" x="0.0" xlink:href="#m12cd1f4f95" y="720.0"/>
    </g>
   </g>
   <g id="PolyCollection_2">
    <defs>
     <path d="M 594.957752 -264.826747 
L 591.602248 -264.826747 
L 591.141181 -267.433833 
L 590.582985 -270.040919 
L 589.91535 -272.648005 
L 589.126298 -275.25509 
L 588.204608 -277.862176 
L 587.140239 -280.469262 
L 585.924716 -283.076348 
L 584.551444 -285.683434 
L 583.015915 -288.29052 
L 581.315782 -290.897606 
L 579.450769 -293.504692 
L 577.422428 -296.111778 
L 575.233738 -298.718864 
L 572.888576 -301.32595 
L 570.391113 -303.933036 
L 567.745181 -306.540122 
L 564.953703 -309.147207 
L 562.018234 -311.754293 
L 558.938715 -314.361379 
L 555.713484 -316.968465 
L 552.339595 -319.575551 
L 548.813447 -322.182637 
L 545.131723 -324.789723 
L 541.292563 -327.396809 
L 537.296896 -330.003895 
L 533.149803 -332.610981 
L 528.861792 -335.218067 
L 524.449835 -337.825153 
L 519.938045 -340.432239 
L 515.357914 -343.039324 
L 510.748036 -345.64641 
L 506.153328 -348.253496 
L 501.623782 -350.860582 
L 497.212852 -353.467668 
L 492.975587 -356.074754 
L 488.966666 -358.68184 
L 485.238473 -361.288926 
L 481.839325 -363.896012 
L 478.811972 -366.503098 
L 476.192399 -369.110184 
L 474.00896 -371.71727 
L 472.281828 -374.324356 
L 471.022719 -376.931441 
L 470.234854 -379.538527 
L 469.913115 -382.145613 
L 470.04437 -384.752699 
L 470.607966 -387.359785 
L 471.576386 -389.966871 
L 472.916098 -392.573957 
L 474.588581 -395.181043 
L 476.55154 -397.788129 
L 478.760264 -400.395215 
L 481.16907 -403.002301 
L 483.732743 -405.609387 
L 486.407896 -408.216473 
L 489.154137 -410.823559 
L 491.93498 -413.430644 
L 494.718464 -416.03773 
L 497.477461 -418.644816 
L 500.189738 -421.251902 
L 502.837819 -423.858988 
L 505.40876 -426.466074 
L 507.893915 -429.07316 
L 510.288781 -431.680246 
L 512.592946 -434.287332 
L 514.810161 -436.894418 
L 516.948463 -439.501504 
L 519.020292 -442.10859 
L 521.042471 -444.715676 
L 523.035958 -447.322761 
L 525.025276 -449.929847 
L 527.037559 -452.536933 
L 529.101227 -455.144019 
L 531.244334 -457.751105 
L 533.492704 -460.358191 
L 535.868002 -462.965277 
L 538.385917 -465.572363 
L 541.054638 -468.179449 
L 543.873775 -470.786535 
L 546.833844 -473.393621 
L 549.916388 -476.000707 
L 553.094727 -478.607793 
L 556.335288 -481.214878 
L 559.599395 -483.821964 
L 562.845376 -486.42905 
L 566.030807 -489.036136 
L 569.114714 -491.643222 
L 572.05958 -494.250308 
L 574.833003 -496.857394 
L 577.408937 -499.46448 
L 579.768435 -502.071566 
L 581.899916 -504.678652 
L 583.798976 -507.285738 
L 585.467815 -509.892824 
L 586.914366 -512.49991 
L 588.151236 -515.106995 
L 589.194541 -517.714081 
L 590.062744 -520.321167 
L 590.775564 -522.928253 
L 595.784436 -522.928253 
L 595.784436 -522.928253 
L 596.497256 -520.321167 
L 597.365459 -517.714081 
L 598.408764 -515.106995 
L 599.645634 -512.49991 
L 601.092185 -509.892824 
L 602.761024 -507.285738 
L 604.660084 -504.678652 
L 606.791565 -502.071566 
L 609.151063 -499.46448 
L 611.726997 -496.857394 
L 614.50042 -494.250308 
L 617.445286 -491.643222 
L 620.529193 -489.036136 
L 623.714624 -486.42905 
L 626.960605 -483.821964 
L 630.224712 -481.214878 
L 633.465273 -478.607793 
L 636.643612 -476.000707 
L 639.726156 -473.393621 
L 642.686225 -470.786535 
L 645.505362 -468.179449 
L 648.174083 -465.572363 
L 650.691998 -462.965277 
L 653.067296 -460.358191 
L 655.315666 -457.751105 
L 657.458773 -455.144019 
L 659.522441 -452.536933 
L 661.534724 -449.929847 
L 663.524042 -447.322761 
L 665.517529 -444.715676 
L 667.539708 -442.10859 
L 669.611537 -439.501504 
L 671.749839 -436.894418 
L 673.967054 -434.287332 
L 676.271219 -431.680246 
L 678.666085 -429.07316 
L 681.15124 -426.466074 
L 683.722181 -423.858988 
L 686.370262 -421.251902 
L 689.082539 -418.644816 
L 691.841536 -416.03773 
L 694.62502 -413.430644 
L 697.405863 -410.823559 
L 700.152104 -408.216473 
L 702.827257 -405.609387 
L 705.39093 -403.002301 
L 707.799736 -400.395215 
L 710.00846 -397.788129 
L 711.971419 -395.181043 
L 713.643902 -392.573957 
L 714.983614 -389.966871 
L 715.952034 -387.359785 
L 716.51563 -384.752699 
L 716.646885 -382.145613 
L 716.325146 -379.538527 
L 715.537281 -376.931441 
L 714.278172 -374.324356 
L 712.55104 -371.71727 
L 710.367601 -369.110184 
L 707.748028 -366.503098 
L 704.720675 -363.896012 
L 701.321527 -361.288926 
L 697.593334 -358.68184 
L 693.584413 -356.074754 
L 689.347148 -353.467668 
L 684.936218 -350.860582 
L 680.406672 -348.253496 
L 675.811964 -345.64641 
L 671.202086 -343.039324 
L 666.621955 -340.432239 
L 662.110165 -337.825153 
L 657.698208 -335.218067 
L 653.410197 -332.610981 
L 649.263104 -330.003895 
L 645.267437 -327.396809 
L 641.428277 -324.789723 
L 637.746553 -322.182637 
L 634.220405 -319.575551 
L 630.846516 -316.968465 
L 627.621285 -314.361379 
L 624.541766 -311.754293 
L 621.606297 -309.147207 
L 618.814819 -306.540122 
L 616.168887 -303.933036 
L 613.671424 -301.32595 
L 611.326262 -298.718864 
L 609.137572 -296.111778 
L 607.109231 -293.504692 
L 605.244218 -290.897606 
L 603.544085 -288.29052 
L 602.008556 -285.683434 
L 600.635284 -283.076348 
L 599.419761 -280.469262 
L 598.355392 -277.862176 
L 597.433702 -275.25509 
L 596.64465 -272.648005 
L 595.977015 -270.040919 
L 595.418819 -267.433833 
L 594.957752 -264.826747 
z
" id="mb66109e3d8" style="stroke:#373737;stroke-width:2.8;"/>
    </defs>
    <g clip-path="url(#p7ad4a88a6a)">
     <use style="fill:#be631d;stroke:#373737;stroke-width:2.8;" x="0.0" xlink:href="#mb66109e3d8" y="720.0"/>
    </g>
   </g>
   <g id="PolyCollection_3">
    <defs>
     <path d="M 928.748896 -198.310693 
L 925.971104 -198.310693 
L 925.545049 -202.691593 
L 925.019323 -207.072492 
L 924.380082 -211.453391 
L 923.61399 -215.83429 
L 922.708815 -220.215189 
L 921.65403 -224.596088 
L 920.441356 -228.976987 
L 919.065199 -233.357886 
L 917.522931 -237.738786 
L 915.814996 -242.119685 
L 913.944819 -246.500584 
L 911.918532 -250.881483 
L 909.744558 -255.262382 
L 907.433087 -259.643281 
L 904.995511 -264.02418 
L 902.443874 -268.405079 
L 899.790384 -272.785979 
L 897.047015 -277.166878 
L 894.225222 -281.547777 
L 891.335753 -285.928676 
L 888.388554 -290.309575 
L 885.392741 -294.690474 
L 882.356635 -299.071373 
L 879.287861 -303.452272 
L 876.193543 -307.833172 
L 873.080624 -312.214071 
L 869.956362 -316.59497 
L 866.829029 -320.975869 
L 863.708822 -325.356768 
L 860.60894 -329.737667 
L 857.546743 -334.118566 
L 854.544839 -338.499465 
L 851.631943 -342.880364 
L 848.843296 -347.261264 
L 846.220494 -351.642163 
L 843.810623 -356.023062 
L 841.664646 -360.403961 
L 839.835148 -364.78486 
L 838.373586 -369.165759 
L 837.327307 -373.546658 
L 836.736633 -377.927557 
L 836.632298 -382.308457 
L 837.033518 -386.689356 
L 837.946832 -391.070255 
L 839.365808 -395.451154 
L 841.271545 -399.832053 
L 843.633838 -404.212952 
L 846.412789 -408.593851 
L 849.560644 -412.97475 
L 853.023631 -417.35565 
L 856.743665 -421.736549 
L 860.659826 -426.117448 
L 864.709619 -430.498347 
L 868.830099 -434.879246 
L 872.958927 -439.260145 
L 877.035508 -443.641044 
L 881.002252 -448.021943 
L 884.805982 -452.402843 
L 888.399467 -456.783742 
L 891.742936 -461.164641 
L 894.805457 -465.54554 
L 897.565996 -469.926439 
L 900.014026 -474.307338 
L 902.149561 -478.688237 
L 903.982606 -483.069136 
L 905.532024 -487.450036 
L 906.823946 -491.830935 
L 907.889851 -496.211834 
L 908.764515 -500.592733 
L 909.483999 -504.973632 
L 910.08384 -509.354531 
L 910.597558 -513.73543 
L 911.055554 -518.116329 
L 911.484411 -522.497228 
L 911.906553 -526.878128 
L 912.340206 -531.259027 
L 912.799564 -535.639926 
L 913.295072 -540.020825 
L 913.833743 -544.401724 
L 914.419465 -548.782623 
L 915.053259 -553.163522 
L 915.733502 -557.544421 
L 916.456116 -561.925321 
L 917.214788 -566.30622 
L 918.001224 -570.687119 
L 918.805496 -575.068018 
L 919.616465 -579.448917 
L 920.422305 -583.829816 
L 921.211076 -588.210715 
L 921.971319 -592.591614 
L 922.692634 -596.972514 
L 923.366166 -601.353413 
L 923.984988 -605.734312 
L 924.544331 -610.115211 
L 925.041659 -614.49611 
L 925.47659 -618.877009 
L 925.850686 -623.257908 
L 926.167143 -627.638807 
L 926.430414 -632.019707 
L 928.289586 -632.019707 
L 928.289586 -632.019707 
L 928.552857 -627.638807 
L 928.869314 -623.257908 
L 929.24341 -618.877009 
L 929.678341 -614.49611 
L 930.175669 -610.115211 
L 930.735012 -605.734312 
L 931.353834 -601.353413 
L 932.027366 -596.972514 
L 932.748681 -592.591614 
L 933.508924 -588.210715 
L 934.297695 -583.829816 
L 935.103535 -579.448917 
L 935.914504 -575.068018 
L 936.718776 -570.687119 
L 937.505212 -566.30622 
L 938.263884 -561.925321 
L 938.986498 -557.544421 
L 939.666741 -553.163522 
L 940.300535 -548.782623 
L 940.886257 -544.401724 
L 941.424928 -540.020825 
L 941.920436 -535.639926 
L 942.379794 -531.259027 
L 942.813447 -526.878128 
L 943.235589 -522.497228 
L 943.664446 -518.116329 
L 944.122442 -513.73543 
L 944.63616 -509.354531 
L 945.236001 -504.973632 
L 945.955485 -500.592733 
L 946.830149 -496.211834 
L 947.896054 -491.830935 
L 949.187976 -487.450036 
L 950.737394 -483.069136 
L 952.570439 -478.688237 
L 954.705974 -474.307338 
L 957.154004 -469.926439 
L 959.914543 -465.54554 
L 962.977064 -461.164641 
L 966.320533 -456.783742 
L 969.914018 -452.402843 
L 973.717748 -448.021943 
L 977.684492 -443.641044 
L 981.761073 -439.260145 
L 985.889901 -434.879246 
L 990.010381 -430.498347 
L 994.060174 -426.117448 
L 997.976335 -421.736549 
L 1001.696369 -417.35565 
L 1005.159356 -412.97475 
L 1008.307211 -408.593851 
L 1011.086162 -404.212952 
L 1013.448455 -399.832053 
L 1015.354192 -395.451154 
L 1016.773168 -391.070255 
L 1017.686482 -386.689356 
L 1018.087702 -382.308457 
L 1017.983367 -377.927557 
L 1017.392693 -373.546658 
L 1016.346414 -369.165759 
L 1014.884852 -364.78486 
L 1013.055354 -360.403961 
L 1010.909377 -356.023062 
L 1008.499506 -351.642163 
L 1005.876704 -347.261264 
L 1003.088057 -342.880364 
L 1000.175161 -338.499465 
L 997.173257 -334.118566 
L 994.11106 -329.737667 
L 991.011178 -325.356768 
L 987.890971 -320.975869 
L 984.763638 -316.59497 
L 981.639376 -312.214071 
L 978.526457 -307.833172 
L 975.432139 -303.452272 
L 972.363365 -299.071373 
L 969.327259 -294.690474 
L 966.331446 -290.309575 
L 963.384247 -285.928676 
L 960.494778 -281.547777 
L 957.672985 -277.166878 
L 954.929616 -272.785979 
L 952.276126 -268.405079 
L 949.724489 -264.02418 
L 947.286913 -259.643281 
L 944.975442 -255.262382 
L 942.801468 -250.881483 
L 940.775181 -246.500584 
L 938.905004 -242.119685 
L 937.197069 -237.738786 
L 935.654801 -233.357886 
L 934.278644 -228.976987 
L 933.06597 -224.596088 
L 932.011185 -220.215189 
L 931.10601 -215.83429 
L 930.339918 -211.453391 
L 929.700677 -207.072492 
L 929.174951 -202.691593 
L 928.748896 -198.310693 
z
" id="m86139b9cbe" style="stroke:#373737;stroke-width:2.8;"/>
    </defs>
    <g clip-path="url(#p7ad4a88a6a)">
     <use style="fill:#7c78ab;stroke:#373737;stroke-width:2.8;" x="0.0" xlink:href="#m86139b9cbe" y="720.0"/>
    </g>
   </g>
   <g id="line2d_28">
    <path clip-path="url(#p7ad4a88a6a)" d="M 146.880263 384.6381 
L 371.519737 384.6381 
" style="fill:none;stroke:#373737;stroke-dasharray:4.200000,4.200000;stroke-dashoffset:0.0;stroke-width:2.8;"/>
   </g>
   <g id="line2d_29">
    <path clip-path="url(#p7ad4a88a6a)" d="M 127.883576 355.9476 
L 390.516424 355.9476 
" style="fill:none;stroke:#373737;stroke-dasharray:8.400000,8.400000;stroke-dashoffset:0.0;stroke-width:2.8;"/>
   </g>
   <g id="line2d_30">
    <path clip-path="url(#p7ad4a88a6a)" d="M 166.993061 325.332 
L 351.406939 325.332 
" style="fill:none;stroke:#373737;stroke-dasharray:4.200000,4.200000;stroke-dashoffset:0.0;stroke-width:2.8;"/>
   </g>
   <g id="line2d_31">
    <path clip-path="url(#p7ad4a88a6a)" d="M 482.953732 355.7244 
L 703.606268 355.7244 
" style="fill:none;stroke:#373737;stroke-dasharray:4.200000,4.200000;stroke-dashoffset:0.0;stroke-width:2.8;"/>
   </g>
   <g id="line2d_32">
    <path clip-path="url(#p7ad4a88a6a)" d="M 474.119737 326.727 
L 712.440263 326.727 
" style="fill:none;stroke:#373737;stroke-dasharray:8.400000,8.400000;stroke-dashoffset:0.0;stroke-width:2.8;"/>
   </g>
   <g id="line2d_33">
    <path clip-path="url(#p7ad4a88a6a)" d="M 506.287472 293.9631 
L 680.272528 293.9631 
" style="fill:none;stroke:#373737;stroke-dasharray:4.200000,4.200000;stroke-dashoffset:0.0;stroke-width:2.8;"/>
   </g>
   <g id="line2d_34">
    <path clip-path="url(#p7ad4a88a6a)" d="M 852.389224 377.2446 
L 1002.330776 377.2446 
" style="fill:none;stroke:#373737;stroke-dasharray:4.200000,4.200000;stroke-dashoffset:0.0;stroke-width:2.8;"/>
   </g>
   <g id="line2d_35">
    <path clip-path="url(#p7ad4a88a6a)" d="M 837.642866 340.3608 
L 1017.077134 340.3608 
" style="fill:none;stroke:#373737;stroke-dasharray:8.400000,8.400000;stroke-dashoffset:0.0;stroke-width:2.8;"/>
   </g>
   <g id="line2d_36">
    <path clip-path="url(#p7ad4a88a6a)" d="M 857.449829 297.2553 
L 997.270171 297.2553 
" style="fill:none;stroke:#373737;stroke-dasharray:4.200000,4.200000;stroke-dashoffset:0.0;stroke-width:2.8;"/>
   </g>
   <g id="patch_3">
    <path d="M 92.16 72 
L 1094.4 72 
" style="fill:none;stroke:#ffffff;stroke-linecap:square;stroke-linejoin:miter;"/>
   </g>
   <g id="patch_4">
    <path d="M 1094.4 630 
L 1094.4 72 
" style="fill:none;stroke:#ffffff;stroke-linecap:square;stroke-linejoin:miter;"/>
   </g>
   <g id="patch_5">
    <path d="M 92.16 630 
L 1094.4 630 
" style="fill:none;stroke:#ffffff;stroke-linecap:square;stroke-linejoin:miter;"/>
   </g>
   <g id="patch_6">
    <path d="M 92.16 630 
L 92.16 72 
" style="fill:none;stroke:#ffffff;stroke-linecap:square;stroke-linejoin:miter;"/>
   </g>
   <g id="PathCollection_1">
    <defs>
     <path d="M 0 5 
C 1.326016 5 2.597899 4.473168 3.535534 3.535534 
C 4.473168 2.597899 5 1.326016 5 0 
C 5 -1.326016 4.473168 -2.597899 3.535534 -3.535534 
C 2.597899 -4.473168 1.326016 -5 0 -5 
C -1.326016 -5 -2.597899 -4.473168 -3.535534 -3.535534 
C -4.473168 -2.597899 -5 -1.326016 -5 0 
C -5 1.326016 -4.473168 2.597899 -3.535534 3.535534 
C -2.597899 4.473168 -1.326016 5 0 5 
z
" id="C0_0_a245f19905"/>
    </defs>
    <g clip-path="url(#p7ad4a88a6a)">
     <use style="fill:#ffffff;stroke:#999999;stroke-width:1.5;" x="259.2" xlink:href="#C0_0_a245f19905" y="430.8498"/>
    </g>
    <g clip-path="url(#p7ad4a88a6a)">
     <use style="fill:#ffffff;stroke:#999999;stroke-width:1.5;" x="259.2" xlink:href="#C0_0_a245f19905" y="413.2542"/>
    </g>
    <g clip-path="url(#p7ad4a88a6a)">
     <use style="fill:#ffffff;stroke:#999999;stroke-width:1.5;" x="259.2" xlink:href="#C0_0_a245f19905" y="393.3522"/>
    </g>
    <g clip-path="url(#p7ad4a88a6a)">
     <use style="fill:#ffffff;stroke:#999999;stroke-width:1.5;" x="249.056564681" xlink:href="#C0_0_a245f19905" y="389.0184"/>
    </g>
    <g clip-path="url(#p7ad4a88a6a)">
     <use style="fill:#ffffff;stroke:#999999;stroke-width:1.5;" x="267.033036911" xlink:href="#C0_0_a245f19905" y="384.9822"/>
    </g>
    <g clip-path="url(#p7ad4a88a6a)">
     <use style="fill:#ffffff;stroke:#999999;stroke-width:1.5;" x="277.899492534" xlink:href="#C0_0_a245f19905" y="384.8148"/>
    </g>
    <g clip-path="url(#p7ad4a88a6a)">
     <use style="fill:#ffffff;stroke:#999999;stroke-width:1.5;" x="238.906708233" xlink:href="#C0_0_a245f19905" y="384.7032"/>
    </g>
    <g clip-path="url(#p7ad4a88a6a)">
     <use style="fill:#ffffff;stroke:#999999;stroke-width:1.5;" x="288.764813413" xlink:href="#C0_0_a245f19905" y="384.573"/>
    </g>
    <g clip-path="url(#p7ad4a88a6a)">
     <use style="fill:#ffffff;stroke:#999999;stroke-width:1.5;" x="259.2" xlink:href="#C0_0_a245f19905" y="371.925"/>
    </g>
    <g clip-path="url(#p7ad4a88a6a)">
     <use style="fill:#ffffff;stroke:#999999;stroke-width:1.5;" x="250.462164755" xlink:href="#C0_0_a245f19905" y="364.7454"/>
    </g>
    <g clip-path="url(#p7ad4a88a6a)">
     <use style="fill:#ffffff;stroke:#999999;stroke-width:1.5;" x="265.499474934" xlink:href="#C0_0_a245f19905" y="362.0856"/>
    </g>
    <g clip-path="url(#p7ad4a88a6a)">
     <use style="fill:#ffffff;stroke:#999999;stroke-width:1.5;" x="275.964683293" xlink:href="#C0_0_a245f19905" y="358.8306"/>
    </g>
    <g clip-path="url(#p7ad4a88a6a)">
     <use style="fill:#ffffff;stroke:#999999;stroke-width:1.5;" x="242.380085418" xlink:href="#C0_0_a245f19905" y="356.673"/>
    </g>
    <g clip-path="url(#p7ad4a88a6a)">
     <use style="fill:#ffffff;stroke:#999999;stroke-width:1.5;" x="286.517886037" xlink:href="#C0_0_a245f19905" y="355.9476"/>
    </g>
    <g clip-path="url(#p7ad4a88a6a)">
     <use style="fill:#ffffff;stroke:#999999;stroke-width:1.5;" x="256.923203286" xlink:href="#C0_0_a245f19905" y="355.0362"/>
    </g>
    <g clip-path="url(#p7ad4a88a6a)">
     <use style="fill:#ffffff;stroke:#999999;stroke-width:1.5;" x="232.831646598" xlink:href="#C0_0_a245f19905" y="350.907"/>
    </g>
    <g clip-path="url(#p7ad4a88a6a)">
     <use style="fill:#ffffff;stroke:#999999;stroke-width:1.5;" x="259.740464383" xlink:href="#C0_0_a245f19905" y="343.374"/>
    </g>
    <g clip-path="url(#p7ad4a88a6a)">
     <use style="fill:#ffffff;stroke:#999999;stroke-width:1.5;" x="249.294231391" xlink:href="#C0_0_a245f19905" y="340.0446"/>
    </g>
    <g clip-path="url(#p7ad4a88a6a)">
     <use style="fill:#ffffff;stroke:#999999;stroke-width:1.5;" x="267.459097825" xlink:href="#C0_0_a245f19905" y="334.8738"/>
    </g>
    <g clip-path="url(#p7ad4a88a6a)">
     <use style="fill:#ffffff;stroke:#999999;stroke-width:1.5;" x="257.315662506" xlink:href="#C0_0_a245f19905" y="330.54"/>
    </g>
    <g clip-path="url(#p7ad4a88a6a)">
     <use style="fill:#ffffff;stroke:#999999;stroke-width:1.5;" x="262.813223865" xlink:href="#C0_0_a245f19905" y="320.124"/>
    </g>
    <g clip-path="url(#p7ad4a88a6a)">
     <use style="fill:#ffffff;stroke:#999999;stroke-width:1.5;" x="253.0326611" xlink:href="#C0_0_a245f19905" y="314.8602"/>
    </g>
    <g clip-path="url(#p7ad4a88a6a)">
     <use style="fill:#ffffff;stroke:#999999;stroke-width:1.5;" x="271.719600235" xlink:href="#C0_0_a245f19905" y="313.2048"/>
    </g>
    <g clip-path="url(#p7ad4a88a6a)">
     <use style="fill:#ffffff;stroke:#999999;stroke-width:1.5;" x="259.2" xlink:href="#C0_0_a245f19905" y="284.226"/>
    </g>
    <g clip-path="url(#p7ad4a88a6a)">
     <use style="fill:#ffffff;stroke:#999999;stroke-width:1.5;" x="248.510448062" xlink:href="#C0_0_a245f19905" y="282.0498"/>
    </g>
    <g clip-path="url(#p7ad4a88a6a)">
     <use style="fill:#ffffff;stroke:#999999;stroke-width:1.5;" x="259.2" xlink:href="#C0_0_a245f19905" y="251.9364"/>
    </g>
    <g clip-path="url(#p7ad4a88a6a)">
     <use style="fill:#ffffff;stroke:#999999;stroke-width:1.5;" x="259.2" xlink:href="#C0_0_a245f19905" y="221.5254"/>
    </g>
   </g>
   <g id="PathCollection_2">
    <defs>
     <path d="M 0 5 
C 1.326016 5 2.597899 4.473168 3.535534 3.535534 
C 4.473168 2.597899 5 1.326016 5 0 
C 5 -1.326016 4.473168 -2.597899 3.535534 -3.535534 
C 2.597899 -4.473168 1.326016 -5 0 -5 
C -1.326016 -5 -2.597899 -4.473168 -3.535534 -3.535534 
C -4.473168 -2.597899 -5 -1.326016 -5 0 
C -5 1.326016 -4.473168 2.597899 -3.535534 3.535534 
C -2.597899 4.473168 -1.326016 5 0 5 
z
" id="C1_0_311ba0430c"/>
    </defs>
    <g clip-path="url(#p7ad4a88a6a)">
     <use style="fill:#ffffff;stroke:#999999;stroke-width:1.5;" x="593.28" xlink:href="#C1_0_311ba0430c" y="409.404"/>
    </g>
    <g clip-path="url(#p7ad4a88a6a)">
     <use style="fill:#ffffff;stroke:#999999;stroke-width:1.5;" x="593.28" xlink:href="#C1_0_311ba0430c" y="391.269"/>
    </g>
    <g clip-path="url(#p7ad4a88a6a)">
     <use style="fill:#ffffff;stroke:#999999;stroke-width:1.5;" x="583.336830843" xlink:href="#C1_0_311ba0430c" y="386.3958"/>
    </g>
    <g clip-path="url(#p7ad4a88a6a)">
     <use style="fill:#ffffff;stroke:#999999;stroke-width:1.5;" x="593.28" xlink:href="#C1_0_311ba0430c" y="369.9906"/>
    </g>
    <g clip-path="url(#p7ad4a88a6a)">
     <use style="fill:#ffffff;stroke:#999999;stroke-width:1.5;" x="584.867733371" xlink:href="#C1_0_311ba0430c" y="362.346"/>
    </g>
    <g clip-path="url(#p7ad4a88a6a)">
     <use style="fill:#ffffff;stroke:#999999;stroke-width:1.5;" x="598.094846069" xlink:href="#C1_0_311ba0430c" y="359.1654"/>
    </g>
    <g clip-path="url(#p7ad4a88a6a)">
     <use style="fill:#ffffff;stroke:#999999;stroke-width:1.5;" x="608.955523573" xlink:href="#C1_0_311ba0430c" y="358.7376"/>
    </g>
    <g clip-path="url(#p7ad4a88a6a)">
     <use style="fill:#ffffff;stroke:#999999;stroke-width:1.5;" x="578.317102432" xlink:href="#C1_0_311ba0430c" y="352.7112"/>
    </g>
    <g clip-path="url(#p7ad4a88a6a)">
     <use style="fill:#ffffff;stroke:#999999;stroke-width:1.5;" x="618.04329729" xlink:href="#C1_0_311ba0430c" y="352.116"/>
    </g>
    <g clip-path="url(#p7ad4a88a6a)">
     <use style="fill:#ffffff;stroke:#999999;stroke-width:1.5;" x="590.927696379" xlink:href="#C1_0_311ba0430c" y="350.0886"/>
    </g>
    <g clip-path="url(#p7ad4a88a6a)">
     <use style="fill:#ffffff;stroke:#999999;stroke-width:1.5;" x="594.953771247" xlink:href="#C1_0_311ba0430c" y="338.8728"/>
    </g>
    <g clip-path="url(#p7ad4a88a6a)">
     <use style="fill:#ffffff;stroke:#999999;stroke-width:1.5;" x="585.899129182" xlink:href="#C1_0_311ba0430c" y="332.1954"/>
    </g>
    <g clip-path="url(#p7ad4a88a6a)">
     <use style="fill:#ffffff;stroke:#999999;stroke-width:1.5;" x="600.335525385" xlink:href="#C1_0_311ba0430c" y="328.3824"/>
    </g>
    <g clip-path="url(#p7ad4a88a6a)">
     <use style="fill:#ffffff;stroke:#999999;stroke-width:1.5;" x="576.209918511" xlink:href="#C1_0_311ba0430c" y="326.727"/>
    </g>
    <g clip-path="url(#p7ad4a88a6a)">
     <use style="fill:#ffffff;stroke:#999999;stroke-width:1.5;" x="611.083547468" xlink:href="#C1_0_311ba0430c" y="326.5968"/>
    </g>
    <g clip-path="url(#p7ad4a88a6a)">
     <use style="fill:#ffffff;stroke:#999999;stroke-width:1.5;" x="565.369734258" xlink:href="#C1_0_311ba0430c" y="325.8714"/>
    </g>
    <g clip-path="url(#p7ad4a88a6a)">
     <use style="fill:#ffffff;stroke:#999999;stroke-width:1.5;" x="621.277468892" xlink:href="#C1_0_311ba0430c" y="322.4118"/>
    </g>
    <g clip-path="url(#p7ad4a88a6a)">
     <use style="fill:#ffffff;stroke:#999999;stroke-width:1.5;" x="593.28" xlink:href="#C1_0_311ba0430c" y="307.3086"/>
    </g>
    <g clip-path="url(#p7ad4a88a6a)">
     <use style="fill:#ffffff;stroke:#999999;stroke-width:1.5;" x="585.69644256" xlink:href="#C1_0_311ba0430c" y="298.6596"/>
    </g>
    <g clip-path="url(#p7ad4a88a6a)">
     <use style="fill:#ffffff;stroke:#999999;stroke-width:1.5;" x="600.067512939" xlink:href="#C1_0_311ba0430c" y="297.8784"/>
    </g>
    <g clip-path="url(#p7ad4a88a6a)">
     <use style="fill:#ffffff;stroke:#999999;stroke-width:1.5;" x="608.340041948" xlink:href="#C1_0_311ba0430c" y="290.0478"/>
    </g>
    <g clip-path="url(#p7ad4a88a6a)">
     <use style="fill:#ffffff;stroke:#999999;stroke-width:1.5;" x="578.095740298" xlink:href="#C1_0_311ba0430c" y="290.0292"/>
    </g>
    <g clip-path="url(#p7ad4a88a6a)">
     <use style="fill:#ffffff;stroke:#999999;stroke-width:1.5;" x="593.28" xlink:href="#C1_0_311ba0430c" y="274.554"/>
    </g>
    <g clip-path="url(#p7ad4a88a6a)">
     <use style="fill:#ffffff;stroke:#999999;stroke-width:1.5;" x="589.253925132" xlink:href="#C1_0_311ba0430c" y="263.3382"/>
    </g>
    <g clip-path="url(#p7ad4a88a6a)">
     <use style="fill:#ffffff;stroke:#999999;stroke-width:1.5;" x="597.852539232" xlink:href="#C1_0_311ba0430c" y="255.954"/>
    </g>
    <g clip-path="url(#p7ad4a88a6a)">
     <use style="fill:#ffffff;stroke:#999999;stroke-width:1.5;" x="588.177312329" xlink:href="#C1_0_311ba0430c" y="251.3226"/>
    </g>
    <g clip-path="url(#p7ad4a88a6a)">
     <use style="fill:#ffffff;stroke:#999999;stroke-width:1.5;" x="595.912501403" xlink:href="#C1_0_311ba0430c" y="242.841"/>
    </g>
   </g>
   <g id="PathCollection_3">
    <defs>
     <path d="M 0 5 
C 1.326016 5 2.597899 4.473168 3.535534 3.535534 
C 4.473168 2.597899 5 1.326016 5 0 
C 5 -1.326016 4.473168 -2.597899 3.535534 -3.535534 
C 2.597899 -4.473168 1.326016 -5 0 -5 
C -1.326016 -5 -2.597899 -4.473168 -3.535534 -3.535534 
C -4.473168 -2.597899 -5 -1.326016 -5 0 
C -5 1.326016 -4.473168 2.597899 -3.535534 3.535534 
C -2.597899 4.473168 -1.326016 5 0 5 
z
" id="C2_0_17082933cb"/>
    </defs>
    <g clip-path="url(#p7ad4a88a6a)">
     <use style="fill:#ffffff;stroke:#999999;stroke-width:1.5;" x="927.36" xlink:href="#C2_0_17082933cb" y="451.0494"/>
    </g>
    <g clip-path="url(#p7ad4a88a6a)">
     <use style="fill:#ffffff;stroke:#999999;stroke-width:1.5;" x="927.36" xlink:href="#C2_0_17082933cb" y="438.048"/>
    </g>
    <g clip-path="url(#p7ad4a88a6a)">
     <use style="fill:#ffffff;stroke:#999999;stroke-width:1.5;" x="927.36" xlink:href="#C2_0_17082933cb" y="414.9468"/>
    </g>
    <g clip-path="url(#p7ad4a88a6a)">
     <use style="fill:#ffffff;stroke:#999999;stroke-width:1.5;" x="919.277920662" xlink:href="#C2_0_17082933cb" y="406.8744"/>
    </g>
    <g clip-path="url(#p7ad4a88a6a)">
     <use style="fill:#ffffff;stroke:#999999;stroke-width:1.5;" x="927.36" xlink:href="#C2_0_17082933cb" y="394.245"/>
    </g>
    <g clip-path="url(#p7ad4a88a6a)">
     <use style="fill:#ffffff;stroke:#999999;stroke-width:1.5;" x="938.200184253" xlink:href="#C2_0_17082933cb" y="393.3894"/>
    </g>
    <g clip-path="url(#p7ad4a88a6a)">
     <use style="fill:#ffffff;stroke:#999999;stroke-width:1.5;" x="927.36" xlink:href="#C2_0_17082933cb" y="379.6254"/>
    </g>
    <g clip-path="url(#p7ad4a88a6a)">
     <use style="fill:#ffffff;stroke:#999999;stroke-width:1.5;" x="917.373130608" xlink:href="#C2_0_17082933cb" y="374.8638"/>
    </g>
    <g clip-path="url(#p7ad4a88a6a)">
     <use style="fill:#ffffff;stroke:#999999;stroke-width:1.5;" x="936.834429821" xlink:href="#C2_0_17082933cb" y="373.7106"/>
    </g>
    <g clip-path="url(#p7ad4a88a6a)">
     <use style="fill:#ffffff;stroke:#999999;stroke-width:1.5;" x="927.36" xlink:href="#C2_0_17082933cb" y="347.931"/>
    </g>
    <g clip-path="url(#p7ad4a88a6a)">
     <use style="fill:#ffffff;stroke:#999999;stroke-width:1.5;" x="917.123544569" xlink:href="#C2_0_17082933cb" y="343.8762"/>
    </g>
    <g clip-path="url(#p7ad4a88a6a)">
     <use style="fill:#ffffff;stroke:#999999;stroke-width:1.5;" x="936.718726976" xlink:href="#C2_0_17082933cb" y="341.793"/>
    </g>
    <g clip-path="url(#p7ad4a88a6a)">
     <use style="fill:#ffffff;stroke:#999999;stroke-width:1.5;" x="947.539712924" xlink:href="#C2_0_17082933cb" y="340.677"/>
    </g>
    <g clip-path="url(#p7ad4a88a6a)">
     <use style="fill:#ffffff;stroke:#999999;stroke-width:1.5;" x="906.726788048" xlink:href="#C2_0_17082933cb" y="340.3608"/>
    </g>
    <g clip-path="url(#p7ad4a88a6a)">
     <use style="fill:#ffffff;stroke:#999999;stroke-width:1.5;" x="958.250072502" xlink:href="#C2_0_17082933cb" y="338.631"/>
    </g>
    <g clip-path="url(#p7ad4a88a6a)">
     <use style="fill:#ffffff;stroke:#999999;stroke-width:1.5;" x="896.30492782" xlink:href="#C2_0_17082933cb" y="336.9384"/>
    </g>
    <g clip-path="url(#p7ad4a88a6a)">
     <use style="fill:#ffffff;stroke:#999999;stroke-width:1.5;" x="927.36" xlink:href="#C2_0_17082933cb" y="331.656"/>
    </g>
    <g clip-path="url(#p7ad4a88a6a)">
     <use style="fill:#ffffff;stroke:#999999;stroke-width:1.5;" x="927.36" xlink:href="#C2_0_17082933cb" y="315.8088"/>
    </g>
    <g clip-path="url(#p7ad4a88a6a)">
     <use style="fill:#ffffff;stroke:#999999;stroke-width:1.5;" x="938.097796806" xlink:href="#C2_0_17082933cb" y="313.9488"/>
    </g>
    <g clip-path="url(#p7ad4a88a6a)">
     <use style="fill:#ffffff;stroke:#999999;stroke-width:1.5;" x="921.507142896" xlink:href="#C2_0_17082933cb" y="305.6346"/>
    </g>
    <g clip-path="url(#p7ad4a88a6a)">
     <use style="fill:#ffffff;stroke:#999999;stroke-width:1.5;" x="927.36" xlink:href="#C2_0_17082933cb" y="288.876"/>
    </g>
    <g clip-path="url(#p7ad4a88a6a)">
     <use style="fill:#ffffff;stroke:#999999;stroke-width:1.5;" x="916.492616037" xlink:href="#C2_0_17082933cb" y="288.8202"/>
    </g>
    <g clip-path="url(#p7ad4a88a6a)">
     <use style="fill:#ffffff;stroke:#999999;stroke-width:1.5;" x="937.553921424" xlink:href="#C2_0_17082933cb" y="284.691"/>
    </g>
    <g clip-path="url(#p7ad4a88a6a)">
     <use style="fill:#ffffff;stroke:#999999;stroke-width:1.5;" x="922.067319644" xlink:href="#C2_0_17082933cb" y="278.3298"/>
    </g>
    <g clip-path="url(#p7ad4a88a6a)">
     <use style="fill:#ffffff;stroke:#999999;stroke-width:1.5;" x="927.36" xlink:href="#C2_0_17082933cb" y="227.3472"/>
    </g>
    <g clip-path="url(#p7ad4a88a6a)">
     <use style="fill:#ffffff;stroke:#999999;stroke-width:1.5;" x="927.36" xlink:href="#C2_0_17082933cb" y="197.643"/>
    </g>
    <g clip-path="url(#p7ad4a88a6a)">
     <use style="fill:#ffffff;stroke:#999999;stroke-width:1.5;" x="927.36" xlink:href="#C2_0_17082933cb" y="158.6202"/>
    </g>
   </g>
   <g id="text_13">
    <!-- CBF Changes After cTBS (post - pre) -->
    <defs>
     <path d="M 0.09375 -20.75 
Q 4 -15.046875 6.78125 -9.546875 
Q 9.578125 -4.046875 11.359375 1.609375 
Q 13.140625 7.28125 13.96875 13.25 
Q 14.796875 19.234375 14.796875 25.875 
Q 14.796875 32.46875 13.96875 38.453125 
Q 13.140625 44.4375 11.359375 50.09375 
Q 9.578125 55.765625 6.78125 61.28125 
Q 4 66.796875 0.09375 72.46875 
L 13.8125 72.46875 
Q 17.578125 67.046875 20.3125 61.6875 
Q 23.046875 56.34375 24.828125 50.703125 
Q 26.609375 45.0625 27.46875 38.984375 
Q 28.328125 32.90625 28.328125 25.921875 
Q 28.328125 19 27.46875 12.859375 
Q 26.609375 6.734375 24.828125 1.0625 
Q 23.046875 -4.59375 20.3125 -9.953125 
Q 17.578125 -15.328125 13.8125 -20.75 
z
" id="LiberationSans-Bold-29"/>
     <path d="M 19.484375 -20.75 
Q 15.71875 -15.328125 12.984375 -9.953125 
Q 10.25 -4.59375 8.46875 1.0625 
Q 6.6875 6.734375 5.828125 12.859375 
Q 4.984375 19 4.984375 25.921875 
Q 4.984375 32.90625 5.828125 38.984375 
Q 6.6875 45.0625 8.46875 50.703125 
Q 10.25 56.34375 12.984375 61.6875 
Q 15.71875 67.046875 19.484375 72.46875 
L 33.203125 72.46875 
Q 29.296875 66.796875 26.515625 61.28125 
Q 23.734375 55.765625 21.953125 50.09375 
Q 20.171875 44.4375 19.328125 38.453125 
Q 18.5 32.46875 18.5 25.875 
Q 18.5 19.234375 19.328125 13.25 
Q 20.171875 7.28125 21.953125 1.609375 
Q 23.734375 -4.046875 26.515625 -9.546875 
Q 29.296875 -15.046875 33.203125 -20.75 
z
" id="LiberationSans-Bold-28"/>
     <path d="M 56.984375 26.65625 
Q 56.984375 20.65625 55.78125 15.578125 
Q 54.59375 10.5 52.09375 6.828125 
Q 49.609375 3.171875 45.765625 1.09375 
Q 41.9375 -0.984375 36.71875 -0.984375 
Q 34.375 -0.984375 32.046875 -0.484375 
Q 29.734375 0 27.625 1.09375 
Q 25.53125 2.203125 23.75 3.984375 
Q 21.96875 5.765625 20.703125 8.40625 
L 20.40625 8.40625 
Q 20.453125 8.15625 20.5 7.171875 
Q 20.5625 6.203125 20.609375 4.90625 
Q 20.65625 3.609375 20.671875 2.171875 
Q 20.703125 0.734375 20.703125 -0.484375 
L 20.703125 -20.75 
L 6.984375 -20.75 
L 6.984375 40.671875 
Q 6.984375 44.734375 6.859375 47.90625 
Q 6.734375 51.078125 6.59375 52.828125 
L 19.921875 52.828125 
Q 20.015625 52.484375 20.140625 51.5 
Q 20.265625 50.53125 20.328125 49.265625 
Q 20.40625 48 20.453125 46.625 
Q 20.515625 45.265625 20.515625 44.234375 
L 20.703125 44.234375 
Q 23.1875 49.46875 27.53125 51.703125 
Q 31.890625 53.953125 37.59375 53.953125 
Q 42.625 53.953125 46.28125 51.90625 
Q 49.953125 49.859375 52.3125 46.234375 
Q 54.6875 42.625 55.828125 37.625 
Q 56.984375 32.625 56.984375 26.65625 
M 42.671875 26.65625 
Q 42.671875 35.6875 39.9375 40.0625 
Q 37.203125 44.4375 31.78125 44.4375 
Q 29.734375 44.4375 27.703125 43.578125 
Q 25.6875 42.71875 24.09375 40.640625 
Q 22.515625 38.578125 21.515625 35.078125 
Q 20.515625 31.59375 20.515625 26.265625 
Q 20.515625 21.09375 21.484375 17.640625 
Q 22.46875 14.203125 24.046875 12.15625 
Q 25.640625 10.109375 27.640625 9.25 
Q 29.640625 8.40625 31.6875 8.40625 
Q 34.328125 8.40625 36.375 9.453125 
Q 38.421875 10.5 39.8125 12.71875 
Q 41.21875 14.9375 41.9375 18.40625 
Q 42.671875 21.875 42.671875 26.65625 
" id="LiberationSans-Bold-70"/>
     <path d="M 37.75 57.671875 
L 37.75 0 
L 23.34375 0 
L 23.34375 57.671875 
L 1.125 57.671875 
L 1.125 68.796875 
L 60.015625 68.796875 
L 60.015625 57.671875 
z
" id="LiberationSans-Bold-54"/>
     <path d="M 51.515625 15.4375 
Q 51.515625 11.625 49.921875 8.59375 
Q 48.34375 5.5625 45.3125 3.4375 
Q 42.28125 1.3125 37.890625 0.15625 
Q 33.5 -0.984375 27.875 -0.984375 
Q 22.859375 -0.984375 18.796875 -0.25 
Q 14.75 0.484375 11.6875 2.171875 
Q 8.640625 3.859375 6.59375 6.546875 
Q 4.546875 9.234375 3.515625 13.1875 
L 15.578125 14.984375 
Q 16.15625 12.796875 17.1875 11.421875 
Q 18.21875 10.0625 19.71875 9.328125 
Q 21.234375 8.59375 23.265625 8.34375 
Q 25.296875 8.109375 27.875 8.109375 
Q 30.21875 8.109375 32.25 8.375 
Q 34.28125 8.640625 35.765625 9.296875 
Q 37.25 9.96875 38.078125 11.15625 
Q 38.921875 12.359375 38.921875 14.15625 
Q 38.921875 16.21875 37.71875 17.40625 
Q 36.53125 18.609375 34.453125 19.359375 
Q 32.375 20.125 29.5625 20.671875 
Q 26.765625 21.234375 23.578125 21.96875 
Q 20.265625 22.703125 17.03125 23.71875 
Q 13.8125 24.75 11.265625 26.5 
Q 8.734375 28.265625 7.171875 30.96875 
Q 5.609375 33.6875 5.609375 37.84375 
Q 5.609375 41.609375 7.078125 44.5625 
Q 8.546875 47.515625 11.375 49.578125 
Q 14.203125 51.65625 18.375 52.75 
Q 22.5625 53.859375 27.984375 53.859375 
Q 32.28125 53.859375 35.984375 53.046875 
Q 39.703125 52.25 42.625 50.515625 
Q 45.5625 48.78125 47.53125 46.09375 
Q 49.515625 43.40625 50.296875 39.59375 
L 38.140625 38.328125 
Q 37.796875 40.234375 36.90625 41.46875 
Q 36.03125 42.71875 34.734375 43.453125 
Q 33.453125 44.1875 31.734375 44.453125 
Q 30.03125 44.734375 27.984375 44.734375 
Q 23.09375 44.734375 20.65625 43.484375 
Q 18.21875 42.234375 18.21875 39.3125 
Q 18.21875 37.5 19.21875 36.421875 
Q 20.21875 35.359375 22.046875 34.640625 
Q 23.875 33.9375 26.390625 33.421875 
Q 28.90625 32.90625 31.890625 32.171875 
Q 35.546875 31.390625 39.078125 30.34375 
Q 42.625 29.296875 45.375 27.46875 
Q 48.140625 25.640625 49.828125 22.75 
Q 51.515625 19.875 51.515625 15.4375 
" id="LiberationSans-Bold-73"/>
     <path d="M 55.328125 0 
L 49.21875 17.578125 
L 23 17.578125 
L 16.890625 0 
L 2.484375 0 
L 27.59375 68.796875 
L 44.578125 68.796875 
L 69.578125 0 
z
M 39.203125 48.1875 
Q 38.625 49.90625 38.0625 51.640625 
Q 37.5 53.375 37.078125 54.8125 
Q 36.671875 56.25 36.40625 57.171875 
Q 36.140625 58.109375 36.078125 58.203125 
Q 36.03125 58.0625 35.78125 57.125 
Q 35.546875 56.203125 35.125 54.78125 
Q 34.71875 53.375 34.15625 51.640625 
Q 33.59375 49.90625 33.015625 48.1875 
L 26.21875 28.421875 
L 46 28.421875 
z
" id="LiberationSans-Bold-41"/>
     <path d="M 3.90625 19.96875 
L 3.90625 31.890625 
L 29.296875 31.890625 
L 29.296875 19.96875 
z
" id="LiberationSans-Bold-2d"/>
     <path d="M 23.09375 43.5625 
L 23.09375 0 
L 9.421875 0 
L 9.421875 43.5625 
L 1.703125 43.5625 
L 1.703125 52.828125 
L 9.421875 52.828125 
L 9.421875 58.34375 
Q 9.421875 61.375 10.15625 63.9375 
Q 10.890625 66.5 12.640625 68.40625 
Q 14.40625 70.3125 17.375 71.390625 
Q 20.359375 72.46875 24.8125 72.46875 
Q 27.15625 72.46875 29.421875 72.21875 
Q 31.6875 71.96875 33.5 71.6875 
L 33.5 62.84375 
Q 32.625 63.03125 31.515625 63.15625 
Q 30.421875 63.28125 29.5 63.28125 
Q 27.59375 63.28125 26.34375 62.890625 
Q 25.09375 62.5 24.390625 61.71875 
Q 23.6875 60.9375 23.390625 59.734375 
Q 23.09375 58.546875 23.09375 56.984375 
L 23.09375 52.828125 
L 33.5 52.828125 
L 33.5 43.5625 
z
" id="LiberationSans-Bold-66"/>
    </defs>
    <g style="fill:#262626;" transform="translate(365.78609375 39.1)scale(0.26 -0.26)">
     <use xlink:href="#LiberationSans-Bold-43"/>
     <use x="72.216796875" xlink:href="#LiberationSans-Bold-42"/>
     <use x="144.43359375" xlink:href="#LiberationSans-Bold-46"/>
     <use x="205.517578125" xlink:href="#LiberationSans-Bold-20"/>
     <use x="233.30078125" xlink:href="#LiberationSans-Bold-43"/>
     <use x="305.517578125" xlink:href="#LiberationSans-Bold-68"/>
     <use x="366.6015625" xlink:href="#LiberationSans-Bold-61"/>
     <use x="422.216796875" xlink:href="#LiberationSans-Bold-6e"/>
     <use x="483.30078125" xlink:href="#LiberationSans-Bold-67"/>
     <use x="544.384765625" xlink:href="#LiberationSans-Bold-65"/>
     <use x="600.0" xlink:href="#LiberationSans-Bold-73"/>
     <use x="655.615234375" xlink:href="#LiberationSans-Bold-20"/>
     <use x="683.3515625" xlink:href="#LiberationSans-Bold-41"/>
     <use x="755.568359375" xlink:href="#LiberationSans-Bold-66"/>
     <use x="788.869140625" xlink:href="#LiberationSans-Bold-74"/>
     <use x="822.169921875" xlink:href="#LiberationSans-Bold-65"/>
     <use x="877.78515625" xlink:href="#LiberationSans-Bold-72"/>
     <use x="916.701171875" xlink:href="#LiberationSans-Bold-20"/>
     <use x="944.484375" xlink:href="#LiberationSans-Bold-63"/>
     <use x="1000.09960938" xlink:href="#LiberationSans-Bold-54"/>
     <use x="1061.18359375" xlink:href="#LiberationSans-Bold-42"/>
     <use x="1133.40039062" xlink:href="#LiberationSans-Bold-53"/>
     <use x="1200.09960938" xlink:href="#LiberationSans-Bold-20"/>
     <use x="1227.8828125" xlink:href="#LiberationSans-Bold-28"/>
     <use x="1261.18359375" xlink:href="#LiberationSans-Bold-70"/>
     <use x="1322.26757812" xlink:href="#LiberationSans-Bold-6f"/>
     <use x="1383.3515625" xlink:href="#LiberationSans-Bold-73"/>
     <use x="1438.96679688" xlink:href="#LiberationSans-Bold-74"/>
     <use x="1472.26757812" xlink:href="#LiberationSans-Bold-20"/>
     <use x="1500.05078125" xlink:href="#LiberationSans-Bold-2d"/>
     <use x="1533.3515625" xlink:href="#LiberationSans-Bold-20"/>
     <use x="1561.13476562" xlink:href="#LiberationSans-Bold-70"/>
     <use x="1622.21875" xlink:href="#LiberationSans-Bold-72"/>
     <use x="1661.13476562" xlink:href="#LiberationSans-Bold-65"/>
     <use x="1716.75" xlink:href="#LiberationSans-Bold-29"/>
    </g>
   </g>
  </g>
 </g>
 <defs>
  <clipPath id="p7ad4a88a6a">
   <rect height="558.0" width="1002.24" x="92.16" y="72.0"/>
  </clipPath>
 </defs>
</svg>
