<?xml version="1.0" encoding="utf-8" standalone="no"?>
<!DOCTYPE svg PUBLIC "-//W3C//DTD SVG 1.1//EN"
  "http://www.w3.org/Graphics/SVG/1.1/DTD/svg11.dtd">
<!-- Created with matplotlib (http://matplotlib.org/) -->
<svg height="720pt" version="1.1" viewBox="0 0 1152 720" width="1152pt" xmlns="http://www.w3.org/2000/svg" xmlns:xlink="http://www.w3.org/1999/xlink">
 <defs>
  <style type="text/css">
*{stroke-linecap:butt;stroke-linejoin:round;stroke-miterlimit:100000;}
  </style>
 </defs>
 <g id="figure_1">
  <g id="patch_1">
   <path d="M 0 720 
L 1152 720 
L 1152 0 
L 0 0 
z
" style="fill:#ffffff;"/>
  </g>
  <g id="axes_1">
   <g id="patch_2">
    <path d="M 92.16 630 
L 1094.4 630 
L 1094.4 72 
L 92.16 72 
z
" style="fill:#e5e5e5;"/>
   </g>
   <g id="matplotlib.axis_1">
    <g id="xtick_1">
     <g id="line2d_1">
      <defs>
       <path d="M 0 0 
L 0 0 
" id="m3d8a1d13a2" style="stroke:#555555;stroke-width:1.6;"/>
      </defs>
      <g>
       <use style="fill:#555555;stroke:#555555;stroke-width:1.6;" x="259.2" xlink:href="#m3d8a1d13a2" y="630.0"/>
      </g>
     </g>
     <g id="line2d_2">
      <g>
       <use style="fill:#555555;stroke:#555555;stroke-width:1.6;" x="259.2" xlink:href="#m3d8a1d13a2" y="72.0"/>
      </g>
     </g>
     <g id="text_1">
      <!-- aI/fO -->
      <defs>
       <path d="M 73 34.71875 
Q 73 26.65625 70.671875 20.0625 
Q 68.359375 13.484375 63.96875 8.796875 
Q 59.578125 4.109375 53.21875 1.5625 
Q 46.875 -0.984375 38.8125 -0.984375 
Q 30.328125 -0.984375 23.921875 1.671875 
Q 17.53125 4.34375 13.28125 9.109375 
Q 9.03125 13.875 6.875 20.40625 
Q 4.734375 26.953125 4.734375 34.71875 
Q 4.734375 42.78125 6.984375 49.265625 
Q 9.234375 55.765625 13.578125 60.328125 
Q 17.921875 64.890625 24.296875 67.359375 
Q 30.671875 69.828125 38.921875 69.828125 
Q 47.125 69.828125 53.484375 67.328125 
Q 59.859375 64.84375 64.171875 60.25 
Q 68.5 55.671875 70.75 49.171875 
Q 73 42.671875 73 34.71875 
M 63.484375 34.71875 
Q 63.484375 40.921875 61.890625 46 
Q 60.296875 51.078125 57.203125 54.6875 
Q 54.109375 58.296875 49.515625 60.25 
Q 44.921875 62.203125 38.921875 62.203125 
Q 32.765625 62.203125 28.125 60.25 
Q 23.484375 58.296875 20.375 54.6875 
Q 17.28125 51.078125 15.734375 46 
Q 14.203125 40.921875 14.203125 34.71875 
Q 14.203125 28.515625 15.796875 23.359375 
Q 17.390625 18.21875 20.484375 14.484375 
Q 23.578125 10.75 28.1875 8.671875 
Q 32.8125 6.59375 38.8125 6.59375 
Q 45.265625 6.59375 49.921875 8.6875 
Q 54.59375 10.796875 57.59375 14.53125 
Q 60.59375 18.265625 62.03125 23.4375 
Q 63.484375 28.609375 63.484375 34.71875 
" id="LiberationSans-4f"/>
       <path d="M 17.625 46.4375 
L 17.625 0 
L 8.84375 0 
L 8.84375 46.4375 
L 1.421875 46.4375 
L 1.421875 52.828125 
L 8.84375 52.828125 
L 8.84375 58.796875 
Q 8.84375 61.671875 9.375 64.140625 
Q 9.90625 66.609375 11.34375 68.4375 
Q 12.796875 70.265625 15.28125 71.3125 
Q 17.78125 72.359375 21.734375 72.359375 
Q 23.296875 72.359375 24.96875 72.21875 
Q 26.65625 72.078125 27.9375 71.78125 
L 27.9375 65.09375 
Q 27.09375 65.234375 26 65.359375 
Q 24.90625 65.484375 24.03125 65.484375 
Q 22.078125 65.484375 20.828125 64.9375 
Q 19.578125 64.40625 18.875 63.40625 
Q 18.171875 62.40625 17.890625 60.9375 
Q 17.625 59.46875 17.625 57.5625 
L 17.625 52.828125 
L 27.9375 52.828125 
L 27.9375 46.4375 
z
" id="LiberationSans-66"/>
       <path d="M 20.21875 -0.984375 
Q 12.25 -0.984375 8.25 3.21875 
Q 4.25 7.421875 4.25 14.75 
Q 4.25 19.96875 6.21875 23.3125 
Q 8.203125 26.65625 11.390625 28.5625 
Q 14.59375 30.46875 18.6875 31.203125 
Q 22.796875 31.9375 27.046875 32.03125 
L 38.921875 32.234375 
L 38.921875 35.109375 
Q 38.921875 38.375 38.234375 40.671875 
Q 37.546875 42.96875 36.125 44.375 
Q 34.71875 45.796875 32.59375 46.453125 
Q 30.46875 47.125 27.59375 47.125 
Q 25.046875 47.125 23 46.75 
Q 20.953125 46.390625 19.4375 45.4375 
Q 17.921875 44.484375 16.984375 42.84375 
Q 16.0625 41.21875 15.765625 38.71875 
L 6.59375 39.546875 
Q 7.078125 42.671875 8.4375 45.28125 
Q 9.8125 47.90625 12.328125 49.796875 
Q 14.84375 51.703125 18.625 52.75 
Q 22.40625 53.8125 27.78125 53.8125 
Q 37.75 53.8125 42.765625 49.234375 
Q 47.796875 44.671875 47.796875 36.03125 
L 47.796875 13.28125 
Q 47.796875 9.375 48.828125 7.390625 
Q 49.859375 5.421875 52.734375 5.421875 
Q 53.46875 5.421875 54.203125 5.515625 
Q 54.9375 5.609375 55.609375 5.765625 
L 55.609375 0.296875 
Q 53.953125 -0.09375 52.3125 -0.28125 
Q 50.6875 -0.484375 48.828125 -0.484375 
Q 46.34375 -0.484375 44.5625 0.171875 
Q 42.78125 0.828125 41.65625 2.171875 
Q 40.53125 3.515625 39.9375 5.484375 
Q 39.359375 7.46875 39.203125 10.109375 
L 38.921875 10.109375 
Q 37.5 7.5625 35.8125 5.515625 
Q 34.125 3.46875 31.875 2.03125 
Q 29.640625 0.59375 26.78125 -0.1875 
Q 23.921875 -0.984375 20.21875 -0.984375 
M 22.21875 5.609375 
Q 26.421875 5.609375 29.5625 7.140625 
Q 32.71875 8.6875 34.78125 11.078125 
Q 36.859375 13.484375 37.890625 16.3125 
Q 38.921875 19.140625 38.921875 21.734375 
L 38.921875 26.078125 
L 29.296875 25.875 
Q 26.078125 25.828125 23.171875 25.40625 
Q 20.265625 25 18.0625 23.78125 
Q 15.875 22.5625 14.578125 20.359375 
Q 13.28125 18.171875 13.28125 14.59375 
Q 13.28125 10.296875 15.59375 7.953125 
Q 17.921875 5.609375 22.21875 5.609375 
" id="LiberationSans-61"/>
       <path d="M 0 -0.984375 
L 20.0625 72.46875 
L 27.78125 72.46875 
L 7.90625 -0.984375 
z
" id="LiberationSans-2f"/>
       <path d="M 9.234375 0 
L 9.234375 68.796875 
L 18.5625 68.796875 
L 18.5625 0 
z
" id="LiberationSans-49"/>
      </defs>
      <g style="fill:#555555;" transform="translate(226.68984375 662.940625)scale(0.3 -0.3)">
       <use xlink:href="#LiberationSans-61"/>
       <use x="55.615234375" xlink:href="#LiberationSans-49"/>
       <use x="83.3984375" xlink:href="#LiberationSans-2f"/>
       <use x="111.181640625" xlink:href="#LiberationSans-66"/>
       <use x="138.96484375" xlink:href="#LiberationSans-4f"/>
      </g>
     </g>
    </g>
    <g id="xtick_2">
     <g id="line2d_3">
      <g>
       <use style="fill:#555555;stroke:#555555;stroke-width:1.6;" x="593.28" xlink:href="#m3d8a1d13a2" y="630.0"/>
      </g>
     </g>
     <g id="line2d_4">
      <g>
       <use style="fill:#555555;stroke:#555555;stroke-width:1.6;" x="593.28" xlink:href="#m3d8a1d13a2" y="72.0"/>
      </g>
     </g>
     <g id="text_2">
      <!-- dlPFC -->
      <defs>
       <path d="M 40.09375 8.5 
Q 37.640625 3.421875 33.609375 1.21875 
Q 29.59375 -0.984375 23.640625 -0.984375 
Q 13.625 -0.984375 8.90625 5.75 
Q 4.203125 12.5 4.203125 26.171875 
Q 4.203125 53.8125 23.640625 53.8125 
Q 29.640625 53.8125 33.640625 51.609375 
Q 37.640625 49.421875 40.09375 44.625 
L 40.1875 44.625 
Q 40.1875 45.125 40.15625 46.171875 
Q 40.140625 47.21875 40.109375 48.359375 
Q 40.09375 49.515625 40.09375 50.53125 
Q 40.09375 51.5625 40.09375 52 
L 40.09375 72.46875 
L 48.875 72.46875 
L 48.875 10.890625 
Q 48.875 8.984375 48.890625 7.21875 
Q 48.921875 5.46875 48.96875 4 
Q 49.03125 2.546875 49.078125 1.484375 
Q 49.125 0.4375 49.171875 0 
L 40.765625 0 
Q 40.671875 0.484375 40.59375 1.390625 
Q 40.53125 2.296875 40.453125 3.46875 
Q 40.375 4.640625 40.328125 5.9375 
Q 40.28125 7.234375 40.28125 8.5 
z
M 13.421875 26.46875 
Q 13.421875 21 14.109375 17.09375 
Q 14.796875 13.1875 16.3125 10.671875 
Q 17.828125 8.15625 20.171875 6.984375 
Q 22.515625 5.8125 25.875 5.8125 
Q 29.34375 5.8125 32 6.9375 
Q 34.671875 8.0625 36.453125 10.578125 
Q 38.234375 13.09375 39.15625 17.140625 
Q 40.09375 21.1875 40.09375 27.046875 
Q 40.09375 32.671875 39.15625 36.546875 
Q 38.234375 40.4375 36.421875 42.828125 
Q 34.625 45.21875 32 46.265625 
Q 29.390625 47.3125 25.984375 47.3125 
Q 22.75 47.3125 20.40625 46.1875 
Q 18.0625 45.0625 16.5 42.578125 
Q 14.9375 40.09375 14.171875 36.109375 
Q 13.421875 32.125 13.421875 26.46875 
" id="LiberationSans-64"/>
       <path d="M 17.53125 61.1875 
L 17.53125 35.59375 
L 55.90625 35.59375 
L 55.90625 27.875 
L 17.53125 27.875 
L 17.53125 0 
L 8.203125 0 
L 8.203125 68.796875 
L 57.078125 68.796875 
L 57.078125 61.1875 
z
" id="LiberationSans-46"/>
       <path d="M 61.421875 48.09375 
Q 61.421875 43.609375 59.9375 39.71875 
Q 58.453125 35.84375 55.5 32.984375 
Q 52.546875 30.125 48.09375 28.46875 
Q 43.65625 26.8125 37.75 26.8125 
L 17.53125 26.8125 
L 17.53125 0 
L 8.203125 0 
L 8.203125 68.796875 
L 37.15625 68.796875 
Q 43.265625 68.796875 47.796875 67.3125 
Q 52.34375 65.828125 55.375 63.109375 
Q 58.40625 60.40625 59.90625 56.5625 
Q 61.421875 52.734375 61.421875 48.09375 
M 52.046875 48 
Q 52.046875 54.546875 48.046875 57.9375 
Q 44.046875 61.328125 36.03125 61.328125 
L 17.53125 61.328125 
L 17.53125 34.1875 
L 36.421875 34.1875 
Q 44.484375 34.1875 48.265625 37.75 
Q 52.046875 41.3125 52.046875 48 
" id="LiberationSans-50"/>
       <path d="M 38.671875 62.203125 
Q 32.8125 62.203125 28.296875 60.25 
Q 23.78125 58.296875 20.71875 54.6875 
Q 17.671875 51.078125 16.109375 46 
Q 14.546875 40.921875 14.546875 34.71875 
Q 14.546875 28.515625 16.234375 23.359375 
Q 17.921875 18.21875 21.0625 14.5 
Q 24.21875 10.796875 28.78125 8.734375 
Q 33.34375 6.6875 39.0625 6.6875 
Q 43.0625 6.6875 46.359375 7.734375 
Q 49.65625 8.796875 52.3125 10.6875 
Q 54.984375 12.59375 57.078125 15.203125 
Q 59.1875 17.828125 60.796875 21 
L 68.40625 17.1875 
Q 66.546875 13.328125 63.8125 10 
Q 61.078125 6.6875 57.390625 4.25 
Q 53.71875 1.8125 49.046875 0.40625 
Q 44.390625 -0.984375 38.625 -0.984375 
Q 30.28125 -0.984375 24 1.671875 
Q 17.71875 4.34375 13.5 9.109375 
Q 9.28125 13.875 7.171875 20.40625 
Q 5.078125 26.953125 5.078125 34.71875 
Q 5.078125 42.78125 7.296875 49.265625 
Q 9.515625 55.765625 13.78125 60.328125 
Q 18.0625 64.890625 24.3125 67.359375 
Q 30.5625 69.828125 38.578125 69.828125 
Q 49.5625 69.828125 56.9375 65.53125 
Q 64.3125 61.234375 67.78125 52.78125 
L 58.9375 49.859375 
Q 57.953125 52.296875 56.296875 54.515625 
Q 54.640625 56.734375 52.140625 58.4375 
Q 49.65625 60.15625 46.3125 61.171875 
Q 42.96875 62.203125 38.671875 62.203125 
" id="LiberationSans-43"/>
       <path d="M 6.734375 0 
L 6.734375 72.46875 
L 15.53125 72.46875 
L 15.53125 0 
z
" id="LiberationSans-6c"/>
      </defs>
      <g style="fill:#555555;" transform="translate(551.60578125 662.940625)scale(0.3 -0.3)">
       <use xlink:href="#LiberationSans-64"/>
       <use x="55.615234375" xlink:href="#LiberationSans-6c"/>
       <use x="77.83203125" xlink:href="#LiberationSans-50"/>
       <use x="144.53125" xlink:href="#LiberationSans-46"/>
       <use x="205.615234375" xlink:href="#LiberationSans-43"/>
      </g>
     </g>
    </g>
    <g id="xtick_3">
     <g id="line2d_5">
      <g>
       <use style="fill:#555555;stroke:#555555;stroke-width:1.6;" x="927.36" xlink:href="#m3d8a1d13a2" y="630.0"/>
      </g>
     </g>
     <g id="line2d_6">
      <g>
       <use style="fill:#555555;stroke:#555555;stroke-width:1.6;" x="927.36" xlink:href="#m3d8a1d13a2" y="72.0"/>
      </g>
     </g>
     <g id="text_3">
      <!-- S1 -->
      <defs>
       <path d="M 7.625 0 
L 7.625 7.46875 
L 25.140625 7.46875 
L 25.140625 60.40625 
L 9.625 49.3125 
L 9.625 57.625 
L 25.875 68.796875 
L 33.984375 68.796875 
L 33.984375 7.46875 
L 50.734375 7.46875 
L 50.734375 0 
z
" id="LiberationSans-31"/>
       <path d="M 62.109375 19 
Q 62.109375 14.65625 60.421875 10.984375 
Q 58.734375 7.328125 55.21875 4.65625 
Q 51.703125 2 46.359375 0.5 
Q 41.015625 -0.984375 33.6875 -0.984375 
Q 20.84375 -0.984375 13.671875 3.515625 
Q 6.5 8.015625 4.546875 16.5 
L 13.578125 18.3125 
Q 14.265625 15.625 15.671875 13.421875 
Q 17.09375 11.234375 19.5 9.640625 
Q 21.921875 8.0625 25.484375 7.171875 
Q 29.046875 6.296875 34.03125 6.296875 
Q 38.1875 6.296875 41.65625 7 
Q 45.125 7.71875 47.609375 9.171875 
Q 50.09375 10.640625 51.484375 12.953125 
Q 52.875 15.28125 52.875 18.5 
Q 52.875 21.875 51.34375 23.96875 
Q 49.8125 26.078125 47.015625 27.4375 
Q 44.234375 28.8125 40.375 29.734375 
Q 36.53125 30.671875 31.84375 31.734375 
Q 28.953125 32.375 26.046875 33.125 
Q 23.140625 33.890625 20.484375 34.9375 
Q 17.828125 35.984375 15.484375 37.390625 
Q 13.140625 38.8125 11.421875 40.796875 
Q 9.71875 42.78125 8.734375 45.390625 
Q 7.765625 48 7.765625 51.421875 
Q 7.765625 56.296875 9.734375 59.78125 
Q 11.71875 63.28125 15.234375 65.53125 
Q 18.75 67.78125 23.53125 68.796875 
Q 28.328125 69.828125 33.890625 69.828125 
Q 40.28125 69.828125 44.8125 68.828125 
Q 49.359375 67.828125 52.484375 65.8125 
Q 55.609375 63.8125 57.484375 60.859375 
Q 59.375 57.90625 60.5 54 
L 51.3125 52.390625 
Q 50.640625 54.890625 49.34375 56.84375 
Q 48.046875 58.796875 45.9375 60.109375 
Q 43.84375 61.421875 40.84375 62.109375 
Q 37.84375 62.796875 33.796875 62.796875 
Q 29 62.796875 25.75 61.9375 
Q 22.515625 61.078125 20.53125 59.609375 
Q 18.5625 58.15625 17.703125 56.171875 
Q 16.84375 54.203125 16.84375 51.90625 
Q 16.84375 48.828125 18.375 46.84375 
Q 19.921875 44.875 22.5625 43.546875 
Q 25.203125 42.234375 28.65625 41.359375 
Q 32.125 40.484375 36.03125 39.59375 
Q 39.203125 38.875 42.359375 38.109375 
Q 45.515625 37.359375 48.390625 36.296875 
Q 51.265625 35.25 53.78125 33.828125 
Q 56.296875 32.421875 58.15625 30.375 
Q 60.015625 28.328125 61.0625 25.53125 
Q 62.109375 22.75 62.109375 19 
" id="LiberationSans-53"/>
      </defs>
      <g style="fill:#555555;" transform="translate(909.013125 662.940625)scale(0.3 -0.3)">
       <use xlink:href="#LiberationSans-53"/>
       <use x="66.69921875" xlink:href="#LiberationSans-31"/>
      </g>
     </g>
    </g>
    <g id="text_4">
     <!-- Stimulation Site -->
     <defs>
      <path id="LiberationSans-Bold-20"/>
      <path d="M 57.171875 26.46875 
Q 57.171875 20.40625 55.484375 15.375 
Q 53.8125 10.359375 50.4375 6.71875 
Q 47.078125 3.078125 42.046875 1.046875 
Q 37.015625 -0.984375 30.328125 -0.984375 
Q 23.875 -0.984375 18.9375 1.015625 
Q 14.015625 3.03125 10.671875 6.640625 
Q 7.328125 10.25 5.609375 15.296875 
Q 3.90625 20.359375 3.90625 26.46875 
Q 3.90625 32.375 5.53125 37.375 
Q 7.171875 42.390625 10.484375 46.046875 
Q 13.8125 49.703125 18.84375 51.75 
Q 23.875 53.8125 30.609375 53.8125 
Q 37.75 53.8125 42.765625 51.75 
Q 47.796875 49.703125 51 46.0625 
Q 54.203125 42.4375 55.6875 37.421875 
Q 57.171875 32.421875 57.171875 26.46875 
M 42.828125 26.46875 
Q 42.828125 35.890625 39.75 40.140625 
Q 36.671875 44.390625 30.8125 44.390625 
Q 24.75 44.390625 21.53125 40.09375 
Q 18.3125 35.796875 18.3125 26.46875 
Q 18.3125 21.734375 19.15625 18.3125 
Q 20.015625 14.890625 21.578125 12.6875 
Q 23.140625 10.5 25.34375 9.453125 
Q 27.546875 8.40625 30.171875 8.40625 
Q 33.203125 8.40625 35.5625 9.453125 
Q 37.9375 10.5 39.546875 12.6875 
Q 41.15625 14.890625 41.984375 18.3125 
Q 42.828125 21.734375 42.828125 26.46875 
" id="LiberationSans-Bold-6f"/>
      <path d="M 41.21875 0 
L 41.21875 29.640625 
Q 41.21875 32.71875 40.71875 35.28125 
Q 40.234375 37.84375 39.109375 39.671875 
Q 37.984375 41.5 36.171875 42.53125 
Q 34.375 43.5625 31.78125 43.5625 
Q 29.296875 43.5625 27.265625 42.453125 
Q 25.25 41.359375 23.78125 39.328125 
Q 22.3125 37.3125 21.5 34.5 
Q 20.703125 31.6875 20.703125 28.328125 
L 20.703125 0 
L 6.984375 0 
L 6.984375 41.015625 
Q 6.984375 42.71875 6.953125 44.53125 
Q 6.9375 46.34375 6.859375 47.96875 
Q 6.78125 49.609375 6.734375 50.90625 
Q 6.6875 52.203125 6.59375 52.828125 
L 19.671875 52.828125 
Q 19.78125 52.25 19.875 50.953125 
Q 19.96875 49.65625 20.0625 48.09375 
Q 20.171875 46.53125 20.234375 44.96875 
Q 20.3125 43.40625 20.3125 42.328125 
L 20.515625 42.328125 
Q 23.296875 48.390625 27.484375 51.125 
Q 31.6875 53.859375 37.5 53.859375 
Q 42.28125 53.859375 45.578125 52.296875 
Q 48.875 50.734375 50.953125 48 
Q 53.03125 45.265625 53.953125 41.546875 
Q 54.890625 37.84375 54.890625 33.546875 
L 54.890625 0 
z
" id="LiberationSans-Bold-6e"/>
      <path d="M 38.09375 0 
L 38.09375 29.640625 
Q 38.09375 32.71875 37.671875 35.28125 
Q 37.25 37.84375 36.296875 39.671875 
Q 35.359375 41.5 33.8125 42.53125 
Q 32.28125 43.5625 30.078125 43.5625 
Q 27.984375 43.5625 26.265625 42.453125 
Q 24.5625 41.359375 23.3125 39.328125 
Q 22.078125 37.3125 21.390625 34.5 
Q 20.703125 31.6875 20.703125 28.328125 
L 20.703125 0 
L 6.984375 0 
L 6.984375 41.015625 
Q 6.984375 42.71875 6.953125 44.53125 
Q 6.9375 46.34375 6.859375 47.96875 
Q 6.78125 49.609375 6.734375 50.90625 
Q 6.6875 52.203125 6.59375 52.828125 
L 19.671875 52.828125 
Q 19.78125 52.25 19.875 50.953125 
Q 19.96875 49.65625 20.0625 48.09375 
Q 20.171875 46.53125 20.234375 44.96875 
Q 20.3125 43.40625 20.3125 42.328125 
L 20.515625 42.328125 
Q 23.046875 48.390625 26.828125 51.125 
Q 30.609375 53.859375 35.890625 53.859375 
Q 41.9375 53.859375 45.625 50.90625 
Q 49.3125 47.953125 50.59375 42.328125 
L 50.875 42.328125 
Q 52.296875 45.609375 53.921875 47.796875 
Q 55.5625 50 57.53125 51.34375 
Q 59.515625 52.6875 61.828125 53.265625 
Q 64.15625 53.859375 66.890625 53.859375 
Q 71.234375 53.859375 74.234375 52.296875 
Q 77.25 50.734375 79.125 48 
Q 81 45.265625 81.859375 41.546875 
Q 82.71875 37.84375 82.71875 33.546875 
L 82.71875 0 
L 69.09375 0 
L 69.09375 29.640625 
Q 69.09375 32.71875 68.671875 35.28125 
Q 68.265625 37.84375 67.3125 39.671875 
Q 66.359375 41.5 64.8125 42.53125 
Q 63.28125 43.5625 61.078125 43.5625 
Q 59.03125 43.5625 57.34375 42.5 
Q 55.671875 41.453125 54.421875 39.515625 
Q 53.171875 37.59375 52.484375 34.90625 
Q 51.8125 32.234375 51.703125 28.953125 
L 51.703125 0 
z
" id="LiberationSans-Bold-6d"/>
      <path d="M 6.984375 0 
L 6.984375 72.46875 
L 20.703125 72.46875 
L 20.703125 0 
z
" id="LiberationSans-Bold-6c"/>
      <path d="M 20.515625 -0.875 
Q 14.453125 -0.875 11.171875 2.421875 
Q 7.90625 5.71875 7.90625 12.40625 
L 7.90625 43.5625 
L 1.21875 43.5625 
L 1.21875 52.828125 
L 8.59375 52.828125 
L 12.890625 65.234375 
L 21.484375 65.234375 
L 21.484375 52.828125 
L 31.5 52.828125 
L 31.5 43.5625 
L 21.484375 43.5625 
L 21.484375 16.109375 
Q 21.484375 12.25 22.953125 10.421875 
Q 24.421875 8.59375 27.484375 8.59375 
Q 28.765625 8.59375 29.78125 8.78125 
Q 30.8125 8.984375 32.078125 9.28125 
L 32.078125 0.78125 
Q 29.546875 -0.046875 26.703125 -0.453125 
Q 23.875 -0.875 20.515625 -0.875 
" id="LiberationSans-Bold-74"/>
      <path d="M 62.796875 19.828125 
Q 62.796875 15.140625 61.078125 11.296875 
Q 59.375 7.46875 55.78125 4.734375 
Q 52.203125 2 46.609375 0.5 
Q 41.015625 -0.984375 33.296875 -0.984375 
Q 26.46875 -0.984375 21.234375 0.234375 
Q 16.015625 1.46875 12.28125 3.859375 
Q 8.546875 6.25 6.21875 9.78125 
Q 3.90625 13.328125 2.875 17.921875 
L 16.796875 20.21875 
Q 17.390625 17.921875 18.5 16.015625 
Q 19.625 14.109375 21.59375 12.71875 
Q 23.578125 11.328125 26.53125 10.5625 
Q 29.5 9.8125 33.6875 9.8125 
Q 41.015625 9.8125 44.890625 12.03125 
Q 48.78125 14.265625 48.78125 19 
Q 48.78125 21.828125 47.21875 23.625 
Q 45.65625 25.4375 43.0625 26.609375 
Q 40.484375 27.78125 37.109375 28.5625 
Q 33.734375 29.34375 30.078125 30.078125 
Q 27.15625 30.765625 24.21875 31.5 
Q 21.296875 32.234375 18.625 33.25 
Q 15.96875 34.28125 13.671875 35.6875 
Q 11.375 37.109375 9.6875 39.1875 
Q 8.015625 41.265625 7.0625 44.046875 
Q 6.109375 46.828125 6.109375 50.59375 
Q 6.109375 55.71875 8.15625 59.375 
Q 10.203125 63.03125 13.84375 65.34375 
Q 17.484375 67.671875 22.515625 68.75 
Q 27.546875 69.828125 33.5 69.828125 
Q 40.234375 69.828125 45.046875 68.765625 
Q 49.859375 67.71875 53.09375 65.5625 
Q 56.34375 63.421875 58.21875 60.171875 
Q 60.109375 56.9375 60.984375 52.59375 
L 47.015625 50.6875 
Q 45.953125 55.125 42.65625 57.375 
Q 39.359375 59.625 33.203125 59.625 
Q 29.390625 59.625 26.875 58.953125 
Q 24.359375 58.296875 22.875 57.171875 
Q 21.390625 56.0625 20.75 54.5625 
Q 20.125 53.078125 20.125 51.421875 
Q 20.125 48.875 21.34375 47.234375 
Q 22.5625 45.609375 24.75 44.5 
Q 26.953125 43.40625 30 42.640625 
Q 33.0625 41.890625 36.71875 41.109375 
Q 39.9375 40.4375 43.109375 39.671875 
Q 46.296875 38.921875 49.171875 37.890625 
Q 52.046875 36.859375 54.53125 35.390625 
Q 57.03125 33.9375 58.859375 31.8125 
Q 60.6875 29.6875 61.734375 26.75 
Q 62.796875 23.828125 62.796875 19.828125 
" id="LiberationSans-Bold-53"/>
      <path d="M 6.984375 62.359375 
L 6.984375 72.46875 
L 20.703125 72.46875 
L 20.703125 62.359375 
z
M 6.984375 0 
L 6.984375 52.828125 
L 20.703125 52.828125 
L 20.703125 0 
z
" id="LiberationSans-Bold-69"/>
      <path d="M 28.609375 -0.984375 
Q 22.90625 -0.984375 18.328125 0.703125 
Q 13.765625 2.390625 10.546875 5.828125 
Q 7.328125 9.28125 5.609375 14.46875 
Q 3.90625 19.671875 3.90625 26.65625 
Q 3.90625 34.234375 5.921875 39.40625 
Q 7.953125 44.578125 11.390625 47.78125 
Q 14.84375 50.984375 19.328125 52.390625 
Q 23.828125 53.8125 28.8125 53.8125 
Q 35.0625 53.8125 39.46875 51.640625 
Q 43.890625 49.46875 46.71875 45.5625 
Q 49.5625 41.65625 50.875 36.203125 
Q 52.203125 30.765625 52.203125 24.171875 
L 52.203125 23.78125 
L 18.3125 23.78125 
Q 18.3125 20.453125 18.890625 17.59375 
Q 19.484375 14.75 20.796875 12.671875 
Q 22.125 10.59375 24.21875 9.390625 
Q 26.3125 8.203125 29.296875 8.203125 
Q 32.90625 8.203125 35.203125 9.734375 
Q 37.5 11.28125 38.484375 14.5 
L 51.421875 13.375 
Q 50.53125 11.140625 48.9375 8.59375 
Q 47.359375 6.0625 44.71875 3.9375 
Q 42.09375 1.8125 38.15625 0.40625 
Q 34.234375 -0.984375 28.609375 -0.984375 
M 28.609375 45.171875 
Q 26.515625 45.171875 24.6875 44.453125 
Q 22.859375 43.75 21.515625 42.203125 
Q 20.171875 40.671875 19.328125 38.234375 
Q 18.5 35.796875 18.40625 32.375 
L 38.921875 32.375 
Q 38.53125 38.765625 35.84375 41.96875 
Q 33.15625 45.171875 28.609375 45.171875 
" id="LiberationSans-Bold-65"/>
      <path d="M 19.1875 -0.984375 
Q 15.375 -0.984375 12.375 0.0625 
Q 9.375 1.125 7.265625 3.140625 
Q 5.171875 5.171875 4.046875 8.15625 
Q 2.9375 11.140625 2.9375 14.9375 
Q 2.9375 19.625 4.5625 22.828125 
Q 6.203125 26.03125 9.03125 28 
Q 11.859375 29.984375 15.671875 30.875 
Q 19.484375 31.78125 23.78125 31.84375 
L 35.15625 32.03125 
L 35.15625 34.71875 
Q 35.15625 37.59375 34.640625 39.515625 
Q 34.125 41.453125 33.140625 42.671875 
Q 32.171875 43.890625 30.734375 44.40625 
Q 29.296875 44.921875 27.4375 44.921875 
Q 25.734375 44.921875 24.390625 44.578125 
Q 23.046875 44.234375 22.0625 43.375 
Q 21.09375 42.53125 20.484375 41.09375 
Q 19.875 39.65625 19.625 37.453125 
L 5.328125 38.140625 
Q 5.90625 41.609375 7.46875 44.453125 
Q 9.03125 47.3125 11.78125 49.40625 
Q 14.546875 51.515625 18.578125 52.65625 
Q 22.609375 53.8125 28.03125 53.8125 
Q 32.953125 53.8125 36.8125 52.59375 
Q 40.671875 51.375 43.359375 48.953125 
Q 46.046875 46.53125 47.453125 43.015625 
Q 48.875 39.5 48.875 34.859375 
L 48.875 15.625 
Q 48.875 13.765625 49.046875 12.296875 
Q 49.21875 10.84375 49.671875 9.84375 
Q 50.140625 8.84375 51 8.328125 
Q 51.859375 7.8125 53.21875 7.8125 
Q 54.78125 7.8125 56.25 8.109375 
L 56.25 0.6875 
Q 55.03125 0.390625 54.046875 0.140625 
Q 53.078125 -0.09375 52.09375 -0.234375 
Q 51.125 -0.390625 50.015625 -0.484375 
Q 48.921875 -0.59375 47.46875 -0.59375 
Q 42.28125 -0.59375 39.8125 1.953125 
Q 37.359375 4.5 36.859375 9.421875 
L 36.578125 9.421875 
Q 33.84375 4.5 29.5625 1.75 
Q 25.296875 -0.984375 19.1875 -0.984375 
M 35.15625 24.46875 
L 28.125 24.359375 
Q 25.921875 24.265625 23.9375 24 
Q 21.96875 23.734375 20.484375 22.875 
Q 19 22.015625 18.109375 20.40625 
Q 17.234375 18.796875 17.234375 16.015625 
Q 17.234375 12.25 18.96875 10.421875 
Q 20.703125 8.59375 23.578125 8.59375 
Q 26.21875 8.59375 28.359375 9.71875 
Q 30.515625 10.84375 32 12.671875 
Q 33.5 14.5 34.328125 16.890625 
Q 35.15625 19.28125 35.15625 21.78125 
z
" id="LiberationSans-Bold-61"/>
      <path d="M 19.921875 52.828125 
L 19.921875 23.1875 
Q 19.921875 20.125 20.40625 17.546875 
Q 20.90625 14.984375 22.015625 13.15625 
Q 23.140625 11.328125 24.921875 10.296875 
Q 26.703125 9.28125 29.296875 9.28125 
Q 31.78125 9.28125 33.8125 10.375 
Q 35.84375 11.46875 37.296875 13.5 
Q 38.765625 15.53125 39.5625 18.328125 
Q 40.375 21.140625 40.375 24.515625 
L 40.375 52.828125 
L 54.109375 52.828125 
L 54.109375 11.8125 
Q 54.109375 10.15625 54.125 8.328125 
Q 54.15625 6.5 54.21875 4.859375 
Q 54.296875 3.21875 54.359375 1.921875 
Q 54.4375 0.640625 54.5 0 
L 41.40625 0 
Q 41.359375 0.59375 41.234375 1.875 
Q 41.109375 3.171875 41.03125 4.734375 
Q 40.96875 6.296875 40.890625 7.859375 
Q 40.828125 9.421875 40.828125 10.5 
L 40.578125 10.5 
Q 37.84375 4.5 33.609375 1.75 
Q 29.390625 -0.984375 23.578125 -0.984375 
Q 18.84375 -0.984375 15.515625 0.578125 
Q 12.203125 2.15625 10.125 4.859375 
Q 8.0625 7.5625 7.125 11.265625 
Q 6.203125 14.984375 6.203125 19.28125 
L 6.203125 52.828125 
z
" id="LiberationSans-Bold-75"/>
     </defs>
     <g style="fill:#555555;" transform="translate(479.94328125 710.90625)scale(0.3 -0.3)">
      <use xlink:href="#LiberationSans-Bold-53"/>
      <use x="66.69921875" xlink:href="#LiberationSans-Bold-74"/>
      <use x="100.0" xlink:href="#LiberationSans-Bold-69"/>
      <use x="127.783203125" xlink:href="#LiberationSans-Bold-6d"/>
      <use x="216.69921875" xlink:href="#LiberationSans-Bold-75"/>
      <use x="277.783203125" xlink:href="#LiberationSans-Bold-6c"/>
      <use x="305.56640625" xlink:href="#LiberationSans-Bold-61"/>
      <use x="361.181640625" xlink:href="#LiberationSans-Bold-74"/>
      <use x="394.482421875" xlink:href="#LiberationSans-Bold-69"/>
      <use x="422.265625" xlink:href="#LiberationSans-Bold-6f"/>
      <use x="483.349609375" xlink:href="#LiberationSans-Bold-6e"/>
      <use x="544.43359375" xlink:href="#LiberationSans-Bold-20"/>
      <use x="572.216796875" xlink:href="#LiberationSans-Bold-53"/>
      <use x="638.916015625" xlink:href="#LiberationSans-Bold-69"/>
      <use x="666.69921875" xlink:href="#LiberationSans-Bold-74"/>
      <use x="700.0" xlink:href="#LiberationSans-Bold-65"/>
     </g>
    </g>
   </g>
   <g id="matplotlib.axis_2">
    <g id="ytick_1">
     <g id="line2d_7">
      <path clip-path="url(#pbaf25fcc87)" d="M 92.16 630 
L 1094.4 630 
" style="fill:none;stroke:#ffffff;stroke-width:1.6;"/>
     </g>
     <g id="line2d_8">
      <g>
       <use style="fill:#555555;stroke:#555555;stroke-width:1.6;" x="92.16" xlink:href="#m3d8a1d13a2" y="630.0"/>
      </g>
     </g>
     <g id="line2d_9">
      <g>
       <use style="fill:#555555;stroke:#555555;stroke-width:1.6;" x="1094.4" xlink:href="#m3d8a1d13a2" y="630.0"/>
      </g>
     </g>
     <g id="text_5">
      <!-- −10 -->
      <defs>
       <path d="M 4.9375 29.6875 
L 4.9375 36.8125 
L 53.515625 36.8125 
L 53.515625 29.6875 
z
" id="LiberationSans-2212"/>
       <path d="M 51.703125 34.421875 
Q 51.703125 24.515625 49.828125 17.75 
Q 47.953125 10.984375 44.703125 6.8125 
Q 41.453125 2.640625 37.0625 0.828125 
Q 32.671875 -0.984375 27.6875 -0.984375 
Q 22.65625 -0.984375 18.3125 0.828125 
Q 13.96875 2.640625 10.765625 6.78125 
Q 7.5625 10.9375 5.734375 17.703125 
Q 3.90625 24.46875 3.90625 34.421875 
Q 3.90625 44.828125 5.734375 51.640625 
Q 7.5625 58.453125 10.78125 62.5 
Q 14.015625 66.546875 18.40625 68.1875 
Q 22.796875 69.828125 27.984375 69.828125 
Q 32.90625 69.828125 37.21875 68.1875 
Q 41.546875 66.546875 44.765625 62.5 
Q 48 58.453125 49.84375 51.640625 
Q 51.703125 44.828125 51.703125 34.421875 
M 42.78125 34.421875 
Q 42.78125 42.625 41.796875 48.0625 
Q 40.828125 53.515625 38.921875 56.765625 
Q 37.015625 60.015625 34.25 61.359375 
Q 31.5 62.703125 27.984375 62.703125 
Q 24.265625 62.703125 21.4375 61.328125 
Q 18.609375 59.96875 16.671875 56.71875 
Q 14.75 53.46875 13.765625 48.015625 
Q 12.796875 42.578125 12.796875 34.421875 
Q 12.796875 26.515625 13.796875 21.09375 
Q 14.796875 15.671875 16.71875 12.375 
Q 18.65625 9.078125 21.4375 7.640625 
Q 24.21875 6.203125 27.78125 6.203125 
Q 31.25 6.203125 34.03125 7.640625 
Q 36.8125 9.078125 38.734375 12.375 
Q 40.671875 15.671875 41.71875 21.09375 
Q 42.78125 26.515625 42.78125 34.421875 
" id="LiberationSans-30"/>
      </defs>
      <g style="fill:#555555;" transform="translate(30.0725 637.7578125)scale(0.3 -0.3)">
       <use xlink:href="#LiberationSans-2212"/>
       <use x="58.3984375" xlink:href="#LiberationSans-31"/>
       <use x="114.013671875" xlink:href="#LiberationSans-30"/>
      </g>
     </g>
    </g>
    <g id="ytick_2">
     <g id="line2d_10">
      <path clip-path="url(#pbaf25fcc87)" d="M 92.16 490.5 
L 1094.4 490.5 
" style="fill:none;stroke:#ffffff;stroke-width:1.6;"/>
     </g>
     <g id="line2d_11">
      <g>
       <use style="fill:#555555;stroke:#555555;stroke-width:1.6;" x="92.16" xlink:href="#m3d8a1d13a2" y="490.5"/>
      </g>
     </g>
     <g id="line2d_12">
      <g>
       <use style="fill:#555555;stroke:#555555;stroke-width:1.6;" x="1094.4" xlink:href="#m3d8a1d13a2" y="490.5"/>
      </g>
     </g>
     <g id="text_6">
      <!-- −5 -->
      <defs>
       <path d="M 51.421875 22.40625 
Q 51.421875 17.234375 49.859375 12.9375 
Q 48.296875 8.640625 45.21875 5.53125 
Q 42.140625 2.4375 37.578125 0.71875 
Q 33.015625 -0.984375 27 -0.984375 
Q 21.578125 -0.984375 17.546875 0.28125 
Q 13.53125 1.5625 10.734375 3.78125 
Q 7.953125 6 6.3125 8.984375 
Q 4.6875 11.96875 4 15.375 
L 12.890625 16.40625 
Q 13.421875 14.453125 14.390625 12.625 
Q 15.375 10.796875 17.0625 9.34375 
Q 18.75 7.90625 21.21875 7.046875 
Q 23.6875 6.203125 27.203125 6.203125 
Q 30.609375 6.203125 33.390625 7.25 
Q 36.1875 8.296875 38.15625 10.34375 
Q 40.140625 12.40625 41.203125 15.375 
Q 42.28125 18.359375 42.28125 22.21875 
Q 42.28125 25.390625 41.25 28.046875 
Q 40.234375 30.71875 38.328125 32.640625 
Q 36.421875 34.578125 33.65625 35.640625 
Q 30.90625 36.71875 27.390625 36.71875 
Q 25.203125 36.71875 23.34375 36.328125 
Q 21.484375 35.9375 19.890625 35.25 
Q 18.3125 34.578125 17.015625 33.671875 
Q 15.71875 32.765625 14.59375 31.78125 
L 6 31.78125 
L 8.296875 68.796875 
L 47.40625 68.796875 
L 47.40625 61.328125 
L 16.3125 61.328125 
L 14.984375 39.5 
Q 17.328125 41.3125 20.84375 42.59375 
Q 24.359375 43.890625 29.203125 43.890625 
Q 34.328125 43.890625 38.421875 42.328125 
Q 42.53125 40.765625 45.40625 37.90625 
Q 48.296875 35.0625 49.859375 31.109375 
Q 51.421875 27.15625 51.421875 22.40625 
" id="LiberationSans-35"/>
      </defs>
      <g style="fill:#555555;" transform="translate(46.7553125 498.2578125)scale(0.3 -0.3)">
       <use xlink:href="#LiberationSans-2212"/>
       <use x="58.3984375" xlink:href="#LiberationSans-35"/>
      </g>
     </g>
    </g>
    <g id="ytick_3">
     <g id="line2d_13">
      <path clip-path="url(#pbaf25fcc87)" d="M 92.16 351 
L 1094.4 351 
" style="fill:none;stroke:#ffffff;stroke-width:1.6;"/>
     </g>
     <g id="line2d_14">
      <g>
       <use style="fill:#555555;stroke:#555555;stroke-width:1.6;" x="92.16" xlink:href="#m3d8a1d13a2" y="351.0"/>
      </g>
     </g>
     <g id="line2d_15">
      <g>
       <use style="fill:#555555;stroke:#555555;stroke-width:1.6;" x="1094.4" xlink:href="#m3d8a1d13a2" y="351.0"/>
      </g>
     </g>
     <g id="text_7">
      <!-- 0 -->
      <g style="fill:#555555;" transform="translate(64.2771875 358.7578125)scale(0.3 -0.3)">
       <use xlink:href="#LiberationSans-30"/>
      </g>
     </g>
    </g>
    <g id="ytick_4">
     <g id="line2d_16">
      <path clip-path="url(#pbaf25fcc87)" d="M 92.16 211.5 
L 1094.4 211.5 
" style="fill:none;stroke:#ffffff;stroke-width:1.6;"/>
     </g>
     <g id="line2d_17">
      <g>
       <use style="fill:#555555;stroke:#555555;stroke-width:1.6;" x="92.16" xlink:href="#m3d8a1d13a2" y="211.5"/>
      </g>
     </g>
     <g id="line2d_18">
      <g>
       <use style="fill:#555555;stroke:#555555;stroke-width:1.6;" x="1094.4" xlink:href="#m3d8a1d13a2" y="211.5"/>
      </g>
     </g>
     <g id="text_8">
      <!-- 5 -->
      <g style="fill:#555555;" transform="translate(64.2771875 219.2578125)scale(0.3 -0.3)">
       <use xlink:href="#LiberationSans-35"/>
      </g>
     </g>
    </g>
    <g id="ytick_5">
     <g id="line2d_19">
      <path clip-path="url(#pbaf25fcc87)" d="M 92.16 72 
L 1094.4 72 
" style="fill:none;stroke:#ffffff;stroke-width:1.6;"/>
     </g>
     <g id="line2d_20">
      <g>
       <use style="fill:#555555;stroke:#555555;stroke-width:1.6;" x="92.16" xlink:href="#m3d8a1d13a2" y="72.0"/>
      </g>
     </g>
     <g id="line2d_21">
      <g>
       <use style="fill:#555555;stroke:#555555;stroke-width:1.6;" x="1094.4" xlink:href="#m3d8a1d13a2" y="72.0"/>
      </g>
     </g>
     <g id="text_9">
      <!-- 10 -->
      <g style="fill:#555555;" transform="translate(47.594375 79.7578125)scale(0.3 -0.3)">
       <use xlink:href="#LiberationSans-31"/>
       <use x="55.615234375" xlink:href="#LiberationSans-30"/>
      </g>
     </g>
    </g>
    <g id="text_10">
     <!-- Change in mean BOLD lag (TRs) under coil -->
     <defs>
      <path d="M 19.484375 -20.75 
Q 15.71875 -15.328125 12.984375 -9.953125 
Q 10.25 -4.59375 8.46875 1.0625 
Q 6.6875 6.734375 5.828125 12.859375 
Q 4.984375 19 4.984375 25.921875 
Q 4.984375 32.90625 5.828125 38.984375 
Q 6.6875 45.0625 8.46875 50.703125 
Q 10.25 56.34375 12.984375 61.6875 
Q 15.71875 67.046875 19.484375 72.46875 
L 33.203125 72.46875 
Q 29.296875 66.796875 26.515625 61.28125 
Q 23.734375 55.765625 21.953125 50.09375 
Q 20.171875 44.4375 19.328125 38.453125 
Q 18.5 32.46875 18.5 25.875 
Q 18.5 19.234375 19.328125 13.25 
Q 20.171875 7.28125 21.953125 1.609375 
Q 23.734375 -4.046875 26.515625 -9.546875 
Q 29.296875 -15.046875 33.203125 -20.75 
z
" id="LiberationSans-Bold-28"/>
      <path d="M 73.578125 34.71875 
Q 73.578125 26.65625 71.1875 20.0625 
Q 68.796875 13.484375 64.296875 8.796875 
Q 59.8125 4.109375 53.34375 1.5625 
Q 46.875 -0.984375 38.71875 -0.984375 
Q 30.078125 -0.984375 23.609375 1.671875 
Q 17.140625 4.34375 12.796875 9.109375 
Q 8.453125 13.875 6.28125 20.40625 
Q 4.109375 26.953125 4.109375 34.71875 
Q 4.109375 42.78125 6.375 49.265625 
Q 8.640625 55.765625 13.0625 60.328125 
Q 17.484375 64.890625 23.953125 67.359375 
Q 30.421875 69.828125 38.8125 69.828125 
Q 47.21875 69.828125 53.6875 67.328125 
Q 60.15625 64.84375 64.578125 60.25 
Q 69 55.671875 71.28125 49.1875 
Q 73.578125 42.71875 73.578125 34.71875 
M 58.890625 34.71875 
Q 58.890625 40.140625 57.59375 44.5 
Q 56.296875 48.875 53.75 52 
Q 51.21875 55.125 47.484375 56.8125 
Q 43.75 58.5 38.8125 58.5 
Q 33.796875 58.5 30 56.8125 
Q 26.21875 55.125 23.671875 52 
Q 21.140625 48.875 19.875 44.5 
Q 18.609375 40.140625 18.609375 34.71875 
Q 18.609375 29.34375 19.890625 24.875 
Q 21.1875 20.40625 23.71875 17.1875 
Q 26.265625 13.96875 30.03125 12.15625 
Q 33.796875 10.359375 38.71875 10.359375 
Q 44 10.359375 47.796875 12.1875 
Q 51.609375 14.015625 54.078125 17.265625 
Q 56.546875 20.515625 57.71875 24.96875 
Q 58.890625 29.4375 58.890625 34.71875 
" id="LiberationSans-Bold-4f"/>
      <path d="M 6.6875 0 
L 6.6875 68.796875 
L 21.09375 68.796875 
L 21.09375 11.140625 
L 58.015625 11.140625 
L 58.015625 0 
z
" id="LiberationSans-Bold-4c"/>
      <path d="M 0.09375 -20.75 
Q 4 -15.046875 6.78125 -9.546875 
Q 9.578125 -4.046875 11.359375 1.609375 
Q 13.140625 7.28125 13.96875 13.25 
Q 14.796875 19.234375 14.796875 25.875 
Q 14.796875 32.46875 13.96875 38.453125 
Q 13.140625 44.4375 11.359375 50.09375 
Q 9.578125 55.765625 6.78125 61.28125 
Q 4 66.796875 0.09375 72.46875 
L 13.8125 72.46875 
Q 17.578125 67.046875 20.3125 61.6875 
Q 23.046875 56.34375 24.828125 50.703125 
Q 26.609375 45.0625 27.46875 38.984375 
Q 28.328125 32.90625 28.328125 25.921875 
Q 28.328125 19 27.46875 12.859375 
Q 26.609375 6.734375 24.828125 1.0625 
Q 23.046875 -4.59375 20.3125 -9.953125 
Q 17.578125 -15.328125 13.8125 -20.75 
z
" id="LiberationSans-Bold-29"/>
      <path d="M 20.515625 42.28125 
Q 23.296875 48.34375 27.484375 51.078125 
Q 31.6875 53.8125 37.5 53.8125 
Q 42.28125 53.8125 45.578125 52.25 
Q 48.875 50.6875 50.953125 47.953125 
Q 53.03125 45.21875 53.953125 41.5 
Q 54.890625 37.796875 54.890625 33.5 
L 54.890625 0 
L 41.21875 0 
L 41.21875 29.59375 
Q 41.21875 32.671875 40.71875 35.234375 
Q 40.234375 37.796875 39.109375 39.625 
Q 37.984375 41.453125 36.171875 42.46875 
Q 34.375 43.5 31.78125 43.5 
Q 29.296875 43.5 27.265625 42.40625 
Q 25.25 41.3125 23.78125 39.28125 
Q 22.3125 37.25 21.5 34.4375 
Q 20.703125 31.640625 20.703125 28.265625 
L 20.703125 0 
L 6.984375 0 
L 6.984375 72.46875 
L 20.703125 72.46875 
L 20.703125 52.6875 
Q 20.703125 51.125 20.65625 49.53125 
Q 20.609375 47.953125 20.53125 46.5625 
Q 20.453125 45.171875 20.40625 44.046875 
Q 20.359375 42.921875 20.3125 42.28125 
z
" id="LiberationSans-Bold-68"/>
      <path d="M 6.984375 0 
L 6.984375 40.4375 
Q 6.984375 42.140625 6.953125 44.046875 
Q 6.9375 45.953125 6.859375 47.6875 
Q 6.78125 49.421875 6.734375 50.8125 
Q 6.6875 52.203125 6.59375 52.828125 
L 19.671875 52.828125 
Q 19.78125 52.25 19.875 50.796875 
Q 19.96875 49.359375 20.0625 47.65625 
Q 20.171875 45.953125 20.234375 44.265625 
Q 20.3125 42.578125 20.3125 41.546875 
L 20.515625 41.546875 
Q 21.53125 44.4375 22.546875 46.703125 
Q 23.578125 48.96875 24.96875 50.5625 
Q 26.375 52.15625 28.328125 53 
Q 30.28125 53.859375 33.15625 53.859375 
Q 34.375 53.859375 35.5625 53.640625 
Q 36.765625 53.421875 37.40625 53.125 
L 37.40625 41.65625 
Q 36.078125 41.9375 34.734375 42.15625 
Q 33.40625 42.390625 31.546875 42.390625 
Q 26.421875 42.390625 23.5625 38.234375 
Q 20.703125 34.078125 20.703125 25.921875 
L 20.703125 0 
z
" id="LiberationSans-Bold-72"/>
      <path d="M 68.015625 34.90625 
Q 68.015625 26.3125 65.421875 19.796875 
Q 62.84375 13.28125 58.34375 8.890625 
Q 53.859375 4.5 47.734375 2.25 
Q 41.609375 0 34.515625 0 
L 6.6875 0 
L 6.6875 68.796875 
L 31.59375 68.796875 
Q 39.59375 68.796875 46.28125 66.796875 
Q 52.984375 64.796875 57.8125 60.640625 
Q 62.640625 56.5 65.328125 50.09375 
Q 68.015625 43.703125 68.015625 34.90625 
M 53.515625 34.90625 
Q 53.515625 40.921875 51.875 45.21875 
Q 50.25 49.515625 47.3125 52.265625 
Q 44.390625 55.03125 40.3125 56.34375 
Q 36.234375 57.671875 31.296875 57.671875 
L 21.09375 57.671875 
L 21.09375 11.140625 
L 33.296875 11.140625 
Q 37.640625 11.140625 41.328125 12.640625 
Q 45.015625 14.15625 47.71875 17.15625 
Q 50.4375 20.171875 51.96875 24.609375 
Q 53.515625 29.046875 53.515625 34.90625 
" id="LiberationSans-Bold-44"/>
      <path d="M 37.75 57.671875 
L 37.75 0 
L 23.34375 0 
L 23.34375 57.671875 
L 1.125 57.671875 
L 1.125 68.796875 
L 60.015625 68.796875 
L 60.015625 57.671875 
z
" id="LiberationSans-Bold-54"/>
      <path d="M 51.515625 15.4375 
Q 51.515625 11.625 49.921875 8.59375 
Q 48.34375 5.5625 45.3125 3.4375 
Q 42.28125 1.3125 37.890625 0.15625 
Q 33.5 -0.984375 27.875 -0.984375 
Q 22.859375 -0.984375 18.796875 -0.25 
Q 14.75 0.484375 11.6875 2.171875 
Q 8.640625 3.859375 6.59375 6.546875 
Q 4.546875 9.234375 3.515625 13.1875 
L 15.578125 14.984375 
Q 16.15625 12.796875 17.1875 11.421875 
Q 18.21875 10.0625 19.71875 9.328125 
Q 21.234375 8.59375 23.265625 8.34375 
Q 25.296875 8.109375 27.875 8.109375 
Q 30.21875 8.109375 32.25 8.375 
Q 34.28125 8.640625 35.765625 9.296875 
Q 37.25 9.96875 38.078125 11.15625 
Q 38.921875 12.359375 38.921875 14.15625 
Q 38.921875 16.21875 37.71875 17.40625 
Q 36.53125 18.609375 34.453125 19.359375 
Q 32.375 20.125 29.5625 20.671875 
Q 26.765625 21.234375 23.578125 21.96875 
Q 20.265625 22.703125 17.03125 23.71875 
Q 13.8125 24.75 11.265625 26.5 
Q 8.734375 28.265625 7.171875 30.96875 
Q 5.609375 33.6875 5.609375 37.84375 
Q 5.609375 41.609375 7.078125 44.5625 
Q 8.546875 47.515625 11.375 49.578125 
Q 14.203125 51.65625 18.375 52.75 
Q 22.5625 53.859375 27.984375 53.859375 
Q 32.28125 53.859375 35.984375 53.046875 
Q 39.703125 52.25 42.625 50.515625 
Q 45.5625 48.78125 47.53125 46.09375 
Q 49.515625 43.40625 50.296875 39.59375 
L 38.140625 38.328125 
Q 37.796875 40.234375 36.90625 41.46875 
Q 36.03125 42.71875 34.734375 43.453125 
Q 33.453125 44.1875 31.734375 44.453125 
Q 30.03125 44.734375 27.984375 44.734375 
Q 23.09375 44.734375 20.65625 43.484375 
Q 18.21875 42.234375 18.21875 39.3125 
Q 18.21875 37.5 19.21875 36.421875 
Q 20.21875 35.359375 22.046875 34.640625 
Q 23.875 33.9375 26.390625 33.421875 
Q 28.90625 32.90625 31.890625 32.171875 
Q 35.546875 31.390625 39.078125 30.34375 
Q 42.625 29.296875 45.375 27.46875 
Q 48.140625 25.640625 49.828125 22.75 
Q 51.515625 19.875 51.515625 15.4375 
" id="LiberationSans-Bold-73"/>
      <path d="M 53.953125 0 
L 37.984375 26.125 
L 21.09375 26.125 
L 21.09375 0 
L 6.6875 0 
L 6.6875 68.796875 
L 41.0625 68.796875 
Q 47.515625 68.796875 52.3125 67.359375 
Q 57.125 65.921875 60.34375 63.25 
Q 63.578125 60.59375 65.15625 56.8125 
Q 66.75 53.03125 66.75 48.296875 
Q 66.75 44.4375 65.59375 41.234375 
Q 64.453125 38.03125 62.421875 35.546875 
Q 60.40625 33.0625 57.609375 31.375 
Q 54.828125 29.6875 51.5625 28.90625 
L 70.171875 0 
z
M 52.25 47.703125 
Q 52.25 52.734375 48.953125 55.171875 
Q 45.65625 57.625 39.546875 57.625 
L 21.09375 57.625 
L 21.09375 37.3125 
L 39.9375 37.3125 
Q 43.171875 37.3125 45.484375 38.0625 
Q 47.796875 38.8125 49.28125 40.203125 
Q 50.78125 41.609375 51.515625 43.5 
Q 52.25 45.40625 52.25 47.703125 
" id="LiberationSans-Bold-52"/>
      <path d="M 38.8125 10.359375 
Q 42.875 10.359375 45.828125 11.5 
Q 48.78125 12.640625 50.953125 14.5 
Q 53.125 16.359375 54.5625 18.703125 
Q 56 21.046875 56.9375 23.4375 
L 69.484375 18.703125 
Q 67.96875 14.984375 65.53125 11.421875 
Q 63.09375 7.859375 59.421875 5.125 
Q 55.765625 2.390625 50.703125 0.703125 
Q 45.65625 -0.984375 38.8125 -0.984375 
Q 29.890625 -0.984375 23.34375 1.671875 
Q 16.796875 4.34375 12.515625 9.109375 
Q 8.25 13.875 6.171875 20.40625 
Q 4.109375 26.953125 4.109375 34.71875 
Q 4.109375 42.78125 6.171875 49.265625 
Q 8.25 55.765625 12.453125 60.328125 
Q 16.65625 64.890625 23.078125 67.359375 
Q 29.5 69.828125 38.1875 69.828125 
Q 44.921875 69.828125 49.96875 68.40625 
Q 55.03125 67 58.71875 64.421875 
Q 62.40625 61.859375 64.8125 58.375 
Q 67.234375 54.890625 68.609375 50.6875 
L 55.90625 47.21875 
Q 55.21875 49.421875 53.796875 51.4375 
Q 52.390625 53.46875 50.21875 55.03125 
Q 48.046875 56.59375 45.109375 57.546875 
Q 42.1875 58.5 38.484375 58.5 
Q 33.25 58.5 29.484375 56.8125 
Q 25.734375 55.125 23.3125 52 
Q 20.90625 48.875 19.75 44.5 
Q 18.609375 40.140625 18.609375 34.71875 
Q 18.609375 29.34375 19.75 24.875 
Q 20.90625 20.40625 23.34375 17.1875 
Q 25.78125 13.96875 29.609375 12.15625 
Q 33.453125 10.359375 38.8125 10.359375 
" id="LiberationSans-Bold-43"/>
      <path d="M 67.671875 19.625 
Q 67.671875 14.40625 65.578125 10.671875 
Q 63.484375 6.9375 59.84375 4.5625 
Q 56.203125 2.203125 51.359375 1.09375 
Q 46.53125 0 41.109375 0 
L 6.6875 0 
L 6.6875 68.796875 
L 38.1875 68.796875 
Q 44.28125 68.796875 49.046875 67.75 
Q 53.8125 66.703125 57.078125 64.546875 
Q 60.359375 62.40625 62.03125 59.15625 
Q 63.71875 55.90625 63.71875 51.515625 
Q 63.71875 45.65625 60.46875 41.625 
Q 57.234375 37.59375 50.59375 36.1875 
Q 58.9375 35.203125 63.296875 30.921875 
Q 67.671875 26.65625 67.671875 19.625 
M 49.21875 49.5625 
Q 49.21875 54.203125 46.265625 56.15625 
Q 43.3125 58.109375 37.5 58.109375 
L 21.09375 58.109375 
L 21.09375 41.0625 
L 37.59375 41.0625 
Q 43.703125 41.0625 46.453125 43.1875 
Q 49.21875 45.3125 49.21875 49.5625 
M 53.21875 20.75 
Q 53.21875 23.484375 52.140625 25.34375 
Q 51.078125 27.203125 49.1875 28.3125 
Q 47.3125 29.4375 44.796875 29.921875 
Q 42.28125 30.421875 39.359375 30.421875 
L 21.09375 30.421875 
L 21.09375 10.6875 
L 39.890625 10.6875 
Q 42.71875 10.6875 45.15625 11.15625 
Q 47.609375 11.625 49.390625 12.765625 
Q 51.171875 13.921875 52.1875 15.875 
Q 53.21875 17.828125 53.21875 20.75 
" id="LiberationSans-Bold-42"/>
      <path d="M 29.109375 -21.1875 
Q 23.875 -21.1875 19.890625 -20.140625 
Q 15.921875 -19.09375 13.109375 -17.203125 
Q 10.296875 -15.328125 8.609375 -12.71875 
Q 6.9375 -10.109375 6.296875 -6.984375 
L 20.015625 -5.375 
Q 20.75 -8.546875 23.171875 -10.34375 
Q 25.59375 -12.15625 29.5 -12.15625 
Q 31.9375 -12.15625 33.953125 -11.46875 
Q 35.984375 -10.796875 37.421875 -9.15625 
Q 38.875 -7.515625 39.671875 -4.828125 
Q 40.484375 -2.15625 40.484375 1.8125 
Q 40.484375 3.171875 40.484375 4.578125 
Q 40.484375 6 40.53125 7.171875 
Q 40.578125 8.546875 40.578125 9.8125 
L 40.484375 9.8125 
Q 38.09375 4.6875 33.765625 2.390625 
Q 29.4375 0.09375 23.484375 0.09375 
Q 18.453125 0.09375 14.8125 2.0625 
Q 11.1875 4.046875 8.78125 7.59375 
Q 6.390625 11.140625 5.25 16.046875 
Q 4.109375 20.953125 4.109375 26.859375 
Q 4.109375 32.953125 5.328125 37.90625 
Q 6.546875 42.875 9.0625 46.4375 
Q 11.578125 50 15.40625 51.921875 
Q 19.234375 53.859375 24.515625 53.859375 
Q 29.78125 53.859375 33.953125 51.609375 
Q 38.140625 49.359375 40.484375 44.34375 
L 40.71875 44.34375 
Q 40.71875 45.359375 40.796875 46.703125 
Q 40.875 48.046875 40.96875 49.28125 
Q 41.0625 50.53125 41.1875 51.5 
Q 41.3125 52.484375 41.40625 52.828125 
L 54.390625 52.828125 
Q 54.296875 51.078125 54.203125 47.90625 
Q 54.109375 44.734375 54.109375 40.625 
L 54.109375 1.609375 
Q 54.109375 -4.15625 52.4375 -8.421875 
Q 50.78125 -12.703125 47.578125 -15.53125 
Q 44.390625 -18.359375 39.71875 -19.765625 
Q 35.0625 -21.1875 29.109375 -21.1875 
M 40.578125 27.15625 
Q 40.578125 32.125 39.59375 35.4375 
Q 38.625 38.765625 37.0625 40.765625 
Q 35.5 42.78125 33.46875 43.609375 
Q 31.453125 44.4375 29.390625 44.4375 
Q 26.765625 44.4375 24.734375 43.40625 
Q 22.703125 42.390625 21.28125 40.234375 
Q 19.875 38.09375 19.140625 34.765625 
Q 18.40625 31.453125 18.40625 26.859375 
Q 18.40625 18.3125 21.140625 13.96875 
Q 23.875 9.625 29.296875 9.625 
Q 31.34375 9.625 33.375 10.421875 
Q 35.40625 11.234375 37.015625 13.25 
Q 38.625 15.28125 39.59375 18.640625 
Q 40.578125 22.015625 40.578125 27.15625 
" id="LiberationSans-Bold-67"/>
      <path d="M 41.21875 0 
Q 41.109375 0.390625 40.984375 1.390625 
Q 40.875 2.390625 40.75 3.65625 
Q 40.625 4.9375 40.546875 6.25 
Q 40.484375 7.5625 40.484375 8.59375 
L 40.28125 8.59375 
Q 37.890625 3.46875 33.609375 1.234375 
Q 29.34375 -0.984375 23.390625 -0.984375 
Q 18.40625 -0.984375 14.765625 1.0625 
Q 11.140625 3.125 8.765625 6.78125 
Q 6.390625 10.453125 5.25 15.453125 
Q 4.109375 20.453125 4.109375 26.375 
Q 4.109375 32.375 5.296875 37.40625 
Q 6.5 42.4375 8.984375 46.0625 
Q 11.46875 49.703125 15.296875 51.75 
Q 19.140625 53.8125 24.421875 53.8125 
Q 27 53.8125 29.390625 53.265625 
Q 31.78125 52.734375 33.828125 51.609375 
Q 35.890625 50.484375 37.546875 48.71875 
Q 39.203125 46.96875 40.375 44.484375 
L 40.484375 44.484375 
Q 40.484375 44.96875 40.453125 45.921875 
Q 40.4375 46.875 40.4375 48.09375 
Q 40.4375 49.3125 40.40625 50.625 
Q 40.375 51.953125 40.375 53.171875 
L 40.375 72.46875 
L 54.109375 72.46875 
L 54.109375 11.53125 
Q 54.109375 7.671875 54.25 4.65625 
Q 54.390625 1.65625 54.5 0 
z
M 40.578125 26.703125 
Q 40.578125 31.9375 39.59375 35.375 
Q 38.625 38.8125 37.03125 40.84375 
Q 35.453125 42.875 33.421875 43.671875 
Q 31.390625 44.484375 29.296875 44.484375 
Q 26.65625 44.484375 24.625 43.453125 
Q 22.609375 42.4375 21.21875 40.234375 
Q 19.828125 38.03125 19.109375 34.609375 
Q 18.40625 31.203125 18.40625 26.375 
Q 18.40625 8.40625 29.203125 8.40625 
Q 31.25 8.40625 33.296875 9.28125 
Q 35.359375 10.15625 36.96875 12.25 
Q 38.578125 14.359375 39.578125 17.890625 
Q 40.578125 21.4375 40.578125 26.703125 
" id="LiberationSans-Bold-64"/>
      <path d="M 29 -0.984375 
Q 22.703125 -0.984375 17.984375 0.96875 
Q 13.28125 2.9375 10.15625 6.5 
Q 7.03125 10.0625 5.46875 15.0625 
Q 3.90625 20.0625 3.90625 26.125 
Q 3.90625 32.71875 5.609375 37.859375 
Q 7.328125 43.015625 10.546875 46.546875 
Q 13.765625 50.09375 18.46875 51.953125 
Q 23.1875 53.8125 29.203125 53.8125 
Q 34.328125 53.8125 38.296875 52.4375 
Q 42.28125 51.078125 45.15625 48.703125 
Q 48.046875 46.34375 49.828125 43.109375 
Q 51.609375 39.890625 52.296875 36.1875 
L 38.484375 35.5 
Q 37.890625 39.546875 35.546875 41.96875 
Q 33.203125 44.390625 28.90625 44.390625 
Q 23.390625 44.390625 20.84375 39.84375 
Q 18.3125 35.296875 18.3125 26.65625 
Q 18.3125 8.40625 29.109375 8.40625 
Q 33.015625 8.40625 35.640625 10.859375 
Q 38.28125 13.328125 38.921875 18.21875 
L 52.6875 17.578125 
Q 52.203125 13.921875 50.46875 10.578125 
Q 48.734375 7.234375 45.78125 4.65625 
Q 42.828125 2.09375 38.625 0.546875 
Q 34.421875 -0.984375 29 -0.984375 
" id="LiberationSans-Bold-63"/>
     </defs>
     <g style="fill:#555555;" transform="translate(3.71625 657.675)rotate(-90.0)scale(0.3 -0.3)">
      <use xlink:href="#LiberationSans-Bold-43"/>
      <use x="72.216796875" xlink:href="#LiberationSans-Bold-68"/>
      <use x="133.30078125" xlink:href="#LiberationSans-Bold-61"/>
      <use x="188.916015625" xlink:href="#LiberationSans-Bold-6e"/>
      <use x="250.0" xlink:href="#LiberationSans-Bold-67"/>
      <use x="311.083984375" xlink:href="#LiberationSans-Bold-65"/>
      <use x="366.69921875" xlink:href="#LiberationSans-Bold-20"/>
      <use x="394.482421875" xlink:href="#LiberationSans-Bold-69"/>
      <use x="422.265625" xlink:href="#LiberationSans-Bold-6e"/>
      <use x="483.349609375" xlink:href="#LiberationSans-Bold-20"/>
      <use x="511.1328125" xlink:href="#LiberationSans-Bold-6d"/>
      <use x="600.048828125" xlink:href="#LiberationSans-Bold-65"/>
      <use x="655.6640625" xlink:href="#LiberationSans-Bold-61"/>
      <use x="711.279296875" xlink:href="#LiberationSans-Bold-6e"/>
      <use x="772.36328125" xlink:href="#LiberationSans-Bold-20"/>
      <use x="800.146484375" xlink:href="#LiberationSans-Bold-42"/>
      <use x="872.36328125" xlink:href="#LiberationSans-Bold-4f"/>
      <use x="950.146484375" xlink:href="#LiberationSans-Bold-4c"/>
      <use x="1011.23046875" xlink:href="#LiberationSans-Bold-44"/>
      <use x="1083.44726562" xlink:href="#LiberationSans-Bold-20"/>
      <use x="1111.23046875" xlink:href="#LiberationSans-Bold-6c"/>
      <use x="1139.01367188" xlink:href="#LiberationSans-Bold-61"/>
      <use x="1194.62890625" xlink:href="#LiberationSans-Bold-67"/>
      <use x="1255.71289062" xlink:href="#LiberationSans-Bold-20"/>
      <use x="1283.49609375" xlink:href="#LiberationSans-Bold-28"/>
      <use x="1316.796875" xlink:href="#LiberationSans-Bold-54"/>
      <use x="1377.88085938" xlink:href="#LiberationSans-Bold-52"/>
      <use x="1450.09765625" xlink:href="#LiberationSans-Bold-73"/>
      <use x="1505.71289062" xlink:href="#LiberationSans-Bold-29"/>
      <use x="1539.01367188" xlink:href="#LiberationSans-Bold-20"/>
      <use x="1566.796875" xlink:href="#LiberationSans-Bold-75"/>
      <use x="1627.88085938" xlink:href="#LiberationSans-Bold-6e"/>
      <use x="1688.96484375" xlink:href="#LiberationSans-Bold-64"/>
      <use x="1750.04882812" xlink:href="#LiberationSans-Bold-65"/>
      <use x="1805.6640625" xlink:href="#LiberationSans-Bold-72"/>
      <use x="1844.58007812" xlink:href="#LiberationSans-Bold-20"/>
      <use x="1872.36328125" xlink:href="#LiberationSans-Bold-63"/>
      <use x="1927.97851562" xlink:href="#LiberationSans-Bold-6f"/>
      <use x="1989.0625" xlink:href="#LiberationSans-Bold-69"/>
      <use x="2016.84570312" xlink:href="#LiberationSans-Bold-6c"/>
     </g>
    </g>
   </g>
   <g id="PolyCollection_1">
    <defs>
     <path d="M 260.211274 -295.735976 
L 258.188726 -295.735976 
L 257.898936 -296.923495 
L 257.554231 -298.111014 
L 257.153171 -299.298533 
L 256.697122 -300.486052 
L 256.190825 -301.673572 
L 255.642777 -302.861091 
L 255.06534 -304.04861 
L 254.474507 -305.236129 
L 253.889284 -306.423648 
L 253.330692 -307.611168 
L 252.820422 -308.798687 
L 252.379253 -309.986206 
L 252.025349 -311.173725 
L 251.772604 -312.361244 
L 251.629185 -313.548763 
L 251.596452 -314.736283 
L 251.668335 -315.923802 
L 251.831267 -317.111321 
L 252.064675 -318.29884 
L 252.341984 -319.486359 
L 252.632033 -320.673878 
L 252.900794 -321.861398 
L 253.11323 -323.048917 
L 253.235148 -324.236436 
L 253.234926 -325.423955 
L 253.084992 -326.611474 
L 252.762982 -327.798994 
L 252.252534 -328.986513 
L 251.543688 -330.174032 
L 250.632882 -331.361551 
L 249.522586 -332.54907 
L 248.220562 -333.736589 
L 246.738823 -334.924109 
L 245.092318 -336.111628 
L 243.297423 -337.299147 
L 241.370308 -338.486666 
L 239.325281 -339.674185 
L 237.173237 -340.861705 
L 234.920305 -342.049224 
L 232.566846 -343.236743 
L 230.106911 -344.424262 
L 227.528249 -345.611781 
L 224.812947 -346.7993 
L 221.938705 -347.98682 
L 218.880739 -349.174339 
L 215.614218 -350.361858 
L 212.117107 -351.549377 
L 208.373232 -352.736896 
L 204.375368 -353.924415 
L 200.128115 -355.111935 
L 195.650318 -356.299454 
L 190.97683 -357.486973 
L 186.159406 -358.674492 
L 181.266585 -359.862011 
L 176.382439 -361.049531 
L 171.604157 -362.23705 
L 167.038479 -363.424569 
L 162.797096 -364.612088 
L 158.991221 -365.799607 
L 155.725615 -366.987126 
L 153.092492 -368.174646 
L 151.165734 -369.362165 
L 149.995953 -370.549684 
L 149.606886 -371.737203 
L 149.993563 -372.924722 
L 151.12255 -374.112241 
L 152.934391 -375.299761 
L 155.348121 -376.48728 
L 158.267528 -377.674799 
L 161.588577 -378.862318 
L 165.207275 -380.049837 
L 169.027164 -381.237357 
L 172.965647 -382.424876 
L 176.958498 -383.612395 
L 180.962094 -384.799914 
L 184.953205 -385.987433 
L 188.926494 -387.174952 
L 192.890129 -388.362472 
L 196.86017 -389.549991 
L 200.854494 -390.73751 
L 204.887065 -391.925029 
L 208.963242 -393.112548 
L 213.076656 -394.300067 
L 217.207938 -395.487587 
L 221.325319 -396.675106 
L 225.38687 -397.862625 
L 229.343972 -399.050144 
L 233.145484 -400.237663 
L 236.742035 -401.425183 
L 240.089932 -402.612702 
L 243.154271 -403.800221 
L 245.910997 -404.98774 
L 248.347816 -406.175259 
L 250.464012 -407.362778 
L 252.269344 -408.550298 
L 253.782269 -409.737817 
L 255.027771 -410.925336 
L 256.035068 -412.112855 
L 256.835424 -413.300374 
L 261.564576 -413.300374 
L 261.564576 -413.300374 
L 262.364932 -412.112855 
L 263.372229 -410.925336 
L 264.617731 -409.737817 
L 266.130656 -408.550298 
L 267.935988 -407.362778 
L 270.052184 -406.175259 
L 272.489003 -404.98774 
L 275.245729 -403.800221 
L 278.310068 -402.612702 
L 281.657965 -401.425183 
L 285.254516 -400.237663 
L 289.056028 -399.050144 
L 293.01313 -397.862625 
L 297.074681 -396.675106 
L 301.192062 -395.487587 
L 305.323344 -394.300067 
L 309.436758 -393.112548 
L 313.512935 -391.925029 
L 317.545506 -390.73751 
L 321.53983 -389.549991 
L 325.509871 -388.362472 
L 329.473506 -387.174952 
L 333.446795 -385.987433 
L 337.437906 -384.799914 
L 341.441502 -383.612395 
L 345.434353 -382.424876 
L 349.372836 -381.237357 
L 353.192725 -380.049837 
L 356.811423 -378.862318 
L 360.132472 -377.674799 
L 363.051879 -376.48728 
L 365.465609 -375.299761 
L 367.27745 -374.112241 
L 368.406437 -372.924722 
L 368.793114 -371.737203 
L 368.404047 -370.549684 
L 367.234266 -369.362165 
L 365.307508 -368.174646 
L 362.674385 -366.987126 
L 359.408779 -365.799607 
L 355.602904 -364.612088 
L 351.361521 -363.424569 
L 346.795843 -362.23705 
L 342.017561 -361.049531 
L 337.133415 -359.862011 
L 332.240594 -358.674492 
L 327.42317 -357.486973 
L 322.749682 -356.299454 
L 318.271885 -355.111935 
L 314.024632 -353.924415 
L 310.026768 -352.736896 
L 306.282893 -351.549377 
L 302.785782 -350.361858 
L 299.519261 -349.174339 
L 296.461295 -347.98682 
L 293.587053 -346.7993 
L 290.871751 -345.611781 
L 288.293089 -344.424262 
L 285.833154 -343.236743 
L 283.479695 -342.049224 
L 281.226763 -340.861705 
L 279.074719 -339.674185 
L 277.029692 -338.486666 
L 275.102577 -337.299147 
L 273.307682 -336.111628 
L 271.661177 -334.924109 
L 270.179438 -333.736589 
L 268.877414 -332.54907 
L 267.767118 -331.361551 
L 266.856312 -330.174032 
L 266.147466 -328.986513 
L 265.637018 -327.798994 
L 265.315008 -326.611474 
L 265.165074 -325.423955 
L 265.164852 -324.236436 
L 265.28677 -323.048917 
L 265.499206 -321.861398 
L 265.767967 -320.673878 
L 266.058016 -319.486359 
L 266.335325 -318.29884 
L 266.568733 -317.111321 
L 266.731665 -315.923802 
L 266.803548 -314.736283 
L 266.770815 -313.548763 
L 266.627396 -312.361244 
L 266.374651 -311.173725 
L 266.020747 -309.986206 
L 265.579578 -308.798687 
L 265.069308 -307.611168 
L 264.510716 -306.423648 
L 263.925493 -305.236129 
L 263.33466 -304.04861 
L 262.757223 -302.861091 
L 262.209175 -301.673572 
L 261.702878 -300.486052 
L 261.246829 -299.298533 
L 260.845769 -298.111014 
L 260.501064 -296.923495 
L 260.211274 -295.735976 
z
" id="m29c9836fa6" style="stroke:#373737;stroke-width:5.0;"/>
    </defs>
    <g clip-path="url(#pbaf25fcc87)">
     <use style="fill:#2b8e70;stroke:#373737;stroke-width:5.0;" x="0.0" xlink:href="#m29c9836fa6" y="720.0"/>
    </g>
   </g>
   <g id="PolyCollection_2">
    <defs>
     <path d="M 593.572857 -130.308088 
L 592.987143 -130.308088 
L 592.889345 -135.020384 
L 592.770393 -139.732681 
L 592.62988 -144.444978 
L 592.468881 -149.157275 
L 592.290227 -153.869571 
L 592.098635 -158.581868 
L 591.900609 -163.294165 
L 591.704092 -168.006461 
L 591.517859 -172.718758 
L 591.350678 -177.431055 
L 591.210326 -182.143352 
L 591.102566 -186.855648 
L 591.030225 -191.567945 
L 590.992489 -196.280242 
L 590.98454 -200.992539 
L 590.997591 -205.704835 
L 591.01934 -210.417132 
L 591.034801 -215.129429 
L 591.027429 -219.841726 
L 590.980407 -224.554022 
L 590.877963 -229.266319 
L 590.706562 -233.978616 
L 590.455864 -238.690912 
L 590.119317 -243.403209 
L 589.694332 -248.115506 
L 589.181986 -252.827803 
L 588.586271 -257.540099 
L 587.912897 -262.252396 
L 587.167776 -266.964693 
L 586.355292 -271.67699 
L 585.476571 -276.389286 
L 584.527978 -281.101583 
L 583.500122 -285.81388 
L 582.377639 -290.526177 
L 581.140005 -295.238473 
L 579.76353 -299.95077 
L 578.224555 -304.663067 
L 576.503697 -309.375363 
L 574.59077 -314.08766 
L 572.489817 -318.799957 
L 570.223542 -323.512254 
L 567.836346 -328.22455 
L 565.395232 -332.936847 
L 562.988049 -337.649144 
L 560.718831 -342.361441 
L 558.700418 -347.073737 
L 557.044992 -351.786034 
L 555.853542 -356.498331 
L 555.20556 -361.210627 
L 555.150344 -365.922924 
L 555.70115 -370.635221 
L 556.833079 -375.347518 
L 558.485083 -380.059814 
L 560.565852 -384.772111 
L 562.962821 -389.484408 
L 565.553076 -394.196705 
L 568.21471 -398.909001 
L 570.837187 -403.621298 
L 573.329518 -408.333595 
L 575.625424 -413.045892 
L 577.68519 -417.758188 
L 579.494378 -422.470485 
L 581.059983 -427.182782 
L 582.404902 -431.895078 
L 583.561657 -436.607375 
L 584.566291 -441.319672 
L 585.453161 -446.031969 
L 586.251109 -450.744265 
L 586.981229 -455.456562 
L 587.656175 -460.168859 
L 588.280795 -464.881156 
L 588.853734 -469.593452 
L 589.3696 -474.305749 
L 589.821324 -479.018046 
L 590.202363 -483.730343 
L 590.508517 -488.442639 
L 590.739194 -493.154936 
L 590.898051 -497.867233 
L 590.993022 -502.579529 
L 591.035787 -507.291826 
L 591.040796 -512.004123 
L 591.023995 -516.71642 
L 591.001403 -521.428716 
L 590.987723 -526.141013 
L 590.995129 -530.85331 
L 591.032366 -535.565607 
L 591.104251 -540.277903 
L 591.211607 -544.9902 
L 591.35162 -549.702497 
L 591.518528 -554.414794 
L 591.704552 -559.12709 
L 591.900915 -563.839387 
L 592.098833 -568.551684 
L 592.290351 -573.26398 
L 592.468956 -577.976277 
L 592.629925 -582.688574 
L 592.770418 -587.400871 
L 592.889359 -592.113167 
L 592.98715 -596.825464 
L 593.57285 -596.825464 
L 593.57285 -596.825464 
L 593.670641 -592.113167 
L 593.789582 -587.400871 
L 593.930075 -582.688574 
L 594.091044 -577.976277 
L 594.269649 -573.26398 
L 594.461167 -568.551684 
L 594.659085 -563.839387 
L 594.855448 -559.12709 
L 595.041472 -554.414794 
L 595.20838 -549.702497 
L 595.348393 -544.9902 
L 595.455749 -540.277903 
L 595.527634 -535.565607 
L 595.564871 -530.85331 
L 595.572277 -526.141013 
L 595.558597 -521.428716 
L 595.536005 -516.71642 
L 595.519204 -512.004123 
L 595.524213 -507.291826 
L 595.566978 -502.579529 
L 595.661949 -497.867233 
L 595.820806 -493.154936 
L 596.051483 -488.442639 
L 596.357637 -483.730343 
L 596.738676 -479.018046 
L 597.1904 -474.305749 
L 597.706266 -469.593452 
L 598.279205 -464.881156 
L 598.903825 -460.168859 
L 599.578771 -455.456562 
L 600.308891 -450.744265 
L 601.106839 -446.031969 
L 601.993709 -441.319672 
L 602.998343 -436.607375 
L 604.155098 -431.895078 
L 605.500017 -427.182782 
L 607.065622 -422.470485 
L 608.87481 -417.758188 
L 610.934576 -413.045892 
L 613.230482 -408.333595 
L 615.722813 -403.621298 
L 618.34529 -398.909001 
L 621.006924 -394.196705 
L 623.597179 -389.484408 
L 625.994148 -384.772111 
L 628.074917 -380.059814 
L 629.726921 -375.347518 
L 630.85885 -370.635221 
L 631.409656 -365.922924 
L 631.35444 -361.210627 
L 630.706458 -356.498331 
L 629.515008 -351.786034 
L 627.859582 -347.073737 
L 625.841169 -342.361441 
L 623.571951 -337.649144 
L 621.164768 -332.936847 
L 618.723654 -328.22455 
L 616.336458 -323.512254 
L 614.070183 -318.799957 
L 611.96923 -314.08766 
L 610.056303 -309.375363 
L 608.335445 -304.663067 
L 606.79647 -299.95077 
L 605.419995 -295.238473 
L 604.182361 -290.526177 
L 603.059878 -285.81388 
L 602.032022 -281.101583 
L 601.083429 -276.389286 
L 600.204708 -271.67699 
L 599.392224 -266.964693 
L 598.647103 -262.252396 
L 597.973729 -257.540099 
L 597.378014 -252.827803 
L 596.865668 -248.115506 
L 596.440683 -243.403209 
L 596.104136 -238.690912 
L 595.853438 -233.978616 
L 595.682037 -229.266319 
L 595.579593 -224.554022 
L 595.532571 -219.841726 
L 595.525199 -215.129429 
L 595.54066 -210.417132 
L 595.562409 -205.704835 
L 595.57546 -200.992539 
L 595.567511 -196.280242 
L 595.529775 -191.567945 
L 595.457434 -186.855648 
L 595.349674 -182.143352 
L 595.209322 -177.431055 
L 595.042141 -172.718758 
L 594.855908 -168.006461 
L 594.659391 -163.294165 
L 594.461365 -158.581868 
L 594.269773 -153.869571 
L 594.091119 -149.157275 
L 593.93012 -144.444978 
L 593.789607 -139.732681 
L 593.670655 -135.020384 
L 593.572857 -130.308088 
z
" id="m3c3355586b" style="stroke:#373737;stroke-width:5.0;"/>
    </defs>
    <g clip-path="url(#pbaf25fcc87)">
     <use style="fill:#be631d;stroke:#373737;stroke-width:5.0;" x="0.0" xlink:href="#m3c3355586b" y="720.0"/>
    </g>
   </g>
   <g id="PolyCollection_3">
    <defs>
     <path d="M 928.597602 -325.000961 
L 926.122398 -325.000961 
L 925.766993 -325.972544 
L 925.342921 -326.944127 
L 924.847265 -327.91571 
L 924.279976 -328.887293 
L 923.6444 -329.858875 
L 922.94755 -330.830458 
L 922.200034 -331.802041 
L 921.415561 -332.773624 
L 920.609987 -333.745207 
L 919.79992 -334.71679 
L 919.000963 -335.688373 
L 918.22572 -336.659956 
L 917.481759 -337.631539 
L 916.769731 -338.603122 
L 916.08187 -339.574704 
L 915.40104 -340.546287 
L 914.700483 -341.51787 
L 913.944311 -342.489453 
L 913.088723 -343.461036 
L 912.083843 -344.432619 
L 910.876011 -345.404202 
L 909.410319 -346.375785 
L 907.633167 -347.347368 
L 905.494666 -348.318951 
L 902.950721 -349.290533 
L 899.964732 -350.262116 
L 896.508898 -351.233699 
L 892.565191 -352.205282 
L 888.126118 -353.176865 
L 883.195384 -354.148448 
L 877.78862 -355.120031 
L 871.934247 -356.091614 
L 865.674523 -357.063197 
L 859.066724 -358.03478 
L 852.184336 -359.006363 
L 845.118002 -359.977945 
L 837.975958 -360.949528 
L 830.883587 -361.921111 
L 823.981777 -362.892694 
L 817.423764 -363.864277 
L 811.370328 -364.83586 
L 805.983317 -365.807443 
L 801.417726 -366.779026 
L 797.812789 -367.750609 
L 795.282726 -368.722192 
L 793.908001 -369.693774 
L 793.728 -370.665357 
L 794.736005 -371.63694 
L 796.877218 -372.608523 
L 800.050285 -373.580106 
L 804.112458 -374.551689 
L 808.888082 -375.523272 
L 814.179762 -376.494855 
L 819.781208 -377.466438 
L 825.490551 -378.438021 
L 831.122895 -379.409603 
L 836.520937 -380.381186 
L 841.562746 -381.352769 
L 846.166142 -382.324352 
L 850.289496 -383.295935 
L 853.929201 -384.267518 
L 857.114368 -385.239101 
L 859.899554 -386.210684 
L 862.356456 -387.182267 
L 864.565482 -388.15385 
L 866.607984 -389.125433 
L 868.559778 -390.097015 
L 870.486307 -391.068598 
L 872.439589 -392.040181 
L 874.456865 -393.011764 
L 876.560733 -393.983347 
L 878.760435 -394.95493 
L 881.053921 -395.926513 
L 883.430354 -396.898096 
L 885.872727 -397.869679 
L 888.36034 -398.841262 
L 890.870974 -399.812844 
L 893.382622 -400.784427 
L 895.874744 -401.75601 
L 898.329031 -402.727593 
L 900.729733 -403.699176 
L 903.063603 -404.670759 
L 905.319592 -405.642342 
L 907.488379 -406.613925 
L 909.56187 -407.585508 
L 911.532764 -408.557091 
L 913.394261 -409.528673 
L 915.139973 -410.500256 
L 916.76402 -411.471839 
L 918.261305 -412.443422 
L 919.627894 -413.415005 
L 920.861428 -414.386588 
L 921.961496 -415.358171 
L 922.929888 -416.329754 
L 923.770692 -417.301337 
L 924.49021 -418.27292 
L 925.096704 -419.244503 
L 925.600001 -420.216085 
L 926.011007 -421.187668 
L 928.708993 -421.187668 
L 928.708993 -421.187668 
L 929.119999 -420.216085 
L 929.623296 -419.244503 
L 930.22979 -418.27292 
L 930.949308 -417.301337 
L 931.790112 -416.329754 
L 932.758504 -415.358171 
L 933.858572 -414.386588 
L 935.092106 -413.415005 
L 936.458695 -412.443422 
L 937.95598 -411.471839 
L 939.580027 -410.500256 
L 941.325739 -409.528673 
L 943.187236 -408.557091 
L 945.15813 -407.585508 
L 947.231621 -406.613925 
L 949.400408 -405.642342 
L 951.656397 -404.670759 
L 953.990267 -403.699176 
L 956.390969 -402.727593 
L 958.845256 -401.75601 
L 961.337378 -400.784427 
L 963.849026 -399.812844 
L 966.35966 -398.841262 
L 968.847273 -397.869679 
L 971.289646 -396.898096 
L 973.666079 -395.926513 
L 975.959565 -394.95493 
L 978.159267 -393.983347 
L 980.263135 -393.011764 
L 982.280411 -392.040181 
L 984.233693 -391.068598 
L 986.160222 -390.097015 
L 988.112016 -389.125433 
L 990.154518 -388.15385 
L 992.363544 -387.182267 
L 994.820446 -386.210684 
L 997.605632 -385.239101 
L 1000.790799 -384.267518 
L 1004.430504 -383.295935 
L 1008.553858 -382.324352 
L 1013.157254 -381.352769 
L 1018.199063 -380.381186 
L 1023.597105 -379.409603 
L 1029.229449 -378.438021 
L 1034.938792 -377.466438 
L 1040.540238 -376.494855 
L 1045.831918 -375.523272 
L 1050.607542 -374.551689 
L 1054.669715 -373.580106 
L 1057.842782 -372.608523 
L 1059.983995 -371.63694 
L 1060.992 -370.665357 
L 1060.811999 -369.693774 
L 1059.437274 -368.722192 
L 1056.907211 -367.750609 
L 1053.302274 -366.779026 
L 1048.736683 -365.807443 
L 1043.349672 -364.83586 
L 1037.296236 -363.864277 
L 1030.738223 -362.892694 
L 1023.836413 -361.921111 
L 1016.744042 -360.949528 
L 1009.601998 -359.977945 
L 1002.535664 -359.006363 
L 995.653276 -358.03478 
L 989.045477 -357.063197 
L 982.785753 -356.091614 
L 976.93138 -355.120031 
L 971.524616 -354.148448 
L 966.593882 -353.176865 
L 962.154809 -352.205282 
L 958.211102 -351.233699 
L 954.755268 -350.262116 
L 951.769279 -349.290533 
L 949.225334 -348.318951 
L 947.086833 -347.347368 
L 945.309681 -346.375785 
L 943.843989 -345.404202 
L 942.636157 -344.432619 
L 941.631277 -343.461036 
L 940.775689 -342.489453 
L 940.019517 -341.51787 
L 939.31896 -340.546287 
L 938.63813 -339.574704 
L 937.950269 -338.603122 
L 937.238241 -337.631539 
L 936.49428 -336.659956 
L 935.719037 -335.688373 
L 934.92008 -334.71679 
L 934.110013 -333.745207 
L 933.304439 -332.773624 
L 932.519966 -331.802041 
L 931.77245 -330.830458 
L 931.0756 -329.858875 
L 930.440024 -328.887293 
L 929.872735 -327.91571 
L 929.377079 -326.944127 
L 928.953007 -325.972544 
L 928.597602 -325.000961 
z
" id="m3343d64908" style="stroke:#373737;stroke-width:5.0;"/>
    </defs>
    <g clip-path="url(#pbaf25fcc87)">
     <use style="fill:#7c78ab;stroke:#373737;stroke-width:5.0;" x="0.0" xlink:href="#m3343d64908" y="720.0"/>
    </g>
   </g>
   <g id="line2d_22">
    <path clip-path="url(#pbaf25fcc87)" d="M 172.480115 357.885686 
L 345.919885 357.885686 
" style="fill:none;stroke:#373737;stroke-dasharray:7.500000,7.500000;stroke-dashoffset:0.0;stroke-width:5.0;"/>
   </g>
   <g id="line2d_23">
    <path clip-path="url(#pbaf25fcc87)" d="M 150.702817 348.331168 
L 367.697183 348.331168 
" style="fill:none;stroke:#373737;stroke-dasharray:15.000000,15.000000;stroke-dashoffset:0.0;stroke-width:5.0;"/>
   </g>
   <g id="line2d_24">
    <path clip-path="url(#pbaf25fcc87)" d="M 162.564691 341.050307 
L 355.835309 341.050307 
" style="fill:none;stroke:#373737;stroke-dasharray:7.500000,7.500000;stroke-dashoffset:0.0;stroke-width:5.0;"/>
   </g>
   <g id="line2d_25">
    <path clip-path="url(#pbaf25fcc87)" d="M 559.046214 372.485492 
L 627.513786 372.485492 
" style="fill:none;stroke:#373737;stroke-dasharray:7.500000,7.500000;stroke-dashoffset:0.0;stroke-width:5.0;"/>
   </g>
   <g id="line2d_26">
    <path clip-path="url(#pbaf25fcc87)" d="M 555.531641 354.900679 
L 631.028359 354.900679 
" style="fill:none;stroke:#373737;stroke-dasharray:15.000000,15.000000;stroke-dashoffset:0.0;stroke-width:5.0;"/>
   </g>
   <g id="line2d_27">
    <path clip-path="url(#pbaf25fcc87)" d="M 557.197548 344.375453 
L 629.362452 344.375453 
" style="fill:none;stroke:#373737;stroke-dasharray:7.500000,7.500000;stroke-dashoffset:0.0;stroke-width:5.0;"/>
   </g>
   <g id="line2d_28">
    <path clip-path="url(#pbaf25fcc87)" d="M 802.677149 353.436803 
L 1052.042851 353.436803 
" style="fill:none;stroke:#373737;stroke-dasharray:7.500000,7.500000;stroke-dashoffset:0.0;stroke-width:5.0;"/>
   </g>
   <g id="line2d_29">
    <path clip-path="url(#pbaf25fcc87)" d="M 796.062245 347.881615 
L 1058.657755 347.881615 
" style="fill:none;stroke:#373737;stroke-dasharray:15.000000,15.000000;stroke-dashoffset:0.0;stroke-width:5.0;"/>
   </g>
   <g id="line2d_30">
    <path clip-path="url(#pbaf25fcc87)" d="M 854.663509 336.168298 
L 1000.056491 336.168298 
" style="fill:none;stroke:#373737;stroke-dasharray:7.500000,7.500000;stroke-dashoffset:0.0;stroke-width:5.0;"/>
   </g>
   <g id="patch_3">
    <path d="M 92.16 72 
L 1094.4 72 
" style="fill:none;stroke:#ffffff;stroke-linecap:square;stroke-linejoin:miter;"/>
   </g>
   <g id="patch_4">
    <path d="M 1094.4 630 
L 1094.4 72 
" style="fill:none;stroke:#ffffff;stroke-linecap:square;stroke-linejoin:miter;"/>
   </g>
   <g id="patch_5">
    <path d="M 92.16 630 
L 1094.4 630 
" style="fill:none;stroke:#ffffff;stroke-linecap:square;stroke-linejoin:miter;"/>
   </g>
   <g id="patch_6">
    <path d="M 92.16 630 
L 92.16 72 
" style="fill:none;stroke:#ffffff;stroke-linecap:square;stroke-linejoin:miter;"/>
   </g>
   <g id="PathCollection_1">
    <defs>
     <path d="M 0 4 
C 1.060812 4 2.078319 3.578535 2.828427 2.828427 
C 3.578535 2.078319 4 1.060812 4 0 
C 4 -1.060812 3.578535 -2.078319 2.828427 -2.828427 
C 2.078319 -3.578535 1.060812 -4 0 -4 
C -1.060812 -4 -2.078319 -3.578535 -2.828427 -2.828427 
C -3.578535 -2.078319 -4 -1.060812 -4 0 
C -4 1.060812 -3.578535 2.078319 -2.828427 2.828427 
C -2.078319 3.578535 -1.060812 4 0 4 
z
" id="C0_0_e7d2f31ec5"/>
    </defs>
    <g clip-path="url(#pbaf25fcc87)">
     <use style="fill:#ffffff;stroke:#999999;stroke-width:2.0;" x="259.2" xlink:href="#C0_0_e7d2f31ec5" y="406.024542803"/>
    </g>
    <g clip-path="url(#pbaf25fcc87)">
     <use style="fill:#ffffff;stroke:#999999;stroke-width:2.0;" x="259.2" xlink:href="#C0_0_e7d2f31ec5" y="379.550278298"/>
    </g>
    <g clip-path="url(#pbaf25fcc87)">
     <use style="fill:#ffffff;stroke:#999999;stroke-width:2.0;" x="252.889593853" xlink:href="#C0_0_e7d2f31ec5" y="372.850951885"/>
    </g>
    <g clip-path="url(#pbaf25fcc87)">
     <use style="fill:#ffffff;stroke:#999999;stroke-width:2.0;" x="261.621022947" xlink:href="#C0_0_e7d2f31ec5" y="369.408566226"/>
    </g>
    <g clip-path="url(#pbaf25fcc87)">
     <use style="fill:#ffffff;stroke:#999999;stroke-width:2.0;" x="249.866670414" xlink:href="#C0_0_e7d2f31ec5" y="364.323847766"/>
    </g>
    <g clip-path="url(#pbaf25fcc87)">
     <use style="fill:#ffffff;stroke:#999999;stroke-width:2.0;" x="259.2" xlink:href="#C0_0_e7d2f31ec5" y="358.979520983"/>
    </g>
    <g clip-path="url(#pbaf25fcc87)">
     <use style="fill:#ffffff;stroke:#999999;stroke-width:2.0;" x="268.619209774" xlink:href="#C0_0_e7d2f31ec5" y="358.253592232"/>
    </g>
    <g clip-path="url(#pbaf25fcc87)">
     <use style="fill:#ffffff;stroke:#999999;stroke-width:2.0;" x="243.683476473" xlink:href="#C0_0_e7d2f31ec5" y="357.517780533"/>
    </g>
    <g clip-path="url(#pbaf25fcc87)">
     <use style="fill:#ffffff;stroke:#999999;stroke-width:2.0;" x="277.937369318" xlink:href="#C0_0_e7d2f31ec5" y="356.755474679"/>
    </g>
    <g clip-path="url(#pbaf25fcc87)">
     <use style="fill:#ffffff;stroke:#999999;stroke-width:2.0;" x="253.603153198" xlink:href="#C0_0_e7d2f31ec5" y="351.727791601"/>
    </g>
    <g clip-path="url(#pbaf25fcc87)">
     <use style="fill:#ffffff;stroke:#999999;stroke-width:2.0;" x="236.816972154" xlink:href="#C0_0_e7d2f31ec5" y="351.334369295"/>
    </g>
    <g clip-path="url(#pbaf25fcc87)">
     <use style="fill:#ffffff;stroke:#999999;stroke-width:2.0;" x="263.230804212" xlink:href="#C0_0_e7d2f31ec5" y="350.86004933"/>
    </g>
    <g clip-path="url(#pbaf25fcc87)">
     <use style="fill:#ffffff;stroke:#999999;stroke-width:2.0;" x="284.04643858" xlink:href="#C0_0_e7d2f31ec5" y="349.888961719"/>
    </g>
    <g clip-path="url(#pbaf25fcc87)">
     <use style="fill:#ffffff;stroke:#999999;stroke-width:2.0;" x="272.300079201" xlink:href="#C0_0_e7d2f31ec5" y="348.331168319"/>
    </g>
    <g clip-path="url(#pbaf25fcc87)">
     <use style="fill:#ffffff;stroke:#999999;stroke-width:2.0;" x="245.335383309" xlink:href="#C0_0_e7d2f31ec5" y="347.368998673"/>
    </g>
    <g clip-path="url(#pbaf25fcc87)">
     <use style="fill:#ffffff;stroke:#999999;stroke-width:2.0;" x="228.384495122" xlink:href="#C0_0_e7d2f31ec5" y="347.271838654"/>
    </g>
    <g clip-path="url(#pbaf25fcc87)">
     <use style="fill:#ffffff;stroke:#999999;stroke-width:2.0;" x="292.179064139" xlink:href="#C0_0_e7d2f31ec5" y="345.305356753"/>
    </g>
    <g clip-path="url(#pbaf25fcc87)">
     <use style="fill:#ffffff;stroke:#999999;stroke-width:2.0;" x="219.229970308" xlink:href="#C0_0_e7d2f31ec5" y="345.038880936"/>
    </g>
    <g clip-path="url(#pbaf25fcc87)">
     <use style="fill:#ffffff;stroke:#999999;stroke-width:2.0;" x="257.783467129" xlink:href="#C0_0_e7d2f31ec5" y="343.656259058"/>
    </g>
    <g clip-path="url(#pbaf25fcc87)">
     <use style="fill:#ffffff;stroke:#999999;stroke-width:2.0;" x="278.859197697" xlink:href="#C0_0_e7d2f31ec5" y="341.85214481"/>
    </g>
    <g clip-path="url(#pbaf25fcc87)">
     <use style="fill:#ffffff;stroke:#999999;stroke-width:2.0;" x="266.529845172" xlink:href="#C0_0_e7d2f31ec5" y="340.248468712"/>
    </g>
    <g clip-path="url(#pbaf25fcc87)">
     <use style="fill:#ffffff;stroke:#999999;stroke-width:2.0;" x="251.235764355" xlink:href="#C0_0_e7d2f31ec5" y="337.166770724"/>
    </g>
    <g clip-path="url(#pbaf25fcc87)">
     <use style="fill:#ffffff;stroke:#999999;stroke-width:2.0;" x="259.2" xlink:href="#C0_0_e7d2f31ec5" y="331.10695303"/>
    </g>
    <g clip-path="url(#pbaf25fcc87)">
     <use style="fill:#ffffff;stroke:#999999;stroke-width:2.0;" x="268.600353639" xlink:href="#C0_0_e7d2f31ec5" y="330.185625259"/>
    </g>
    <g clip-path="url(#pbaf25fcc87)">
     <use style="fill:#ffffff;stroke:#999999;stroke-width:2.0;" x="247.455579846" xlink:href="#C0_0_e7d2f31ec5" y="328.918211167"/>
    </g>
    <g clip-path="url(#pbaf25fcc87)">
     <use style="fill:#ffffff;stroke:#999999;stroke-width:2.0;" x="277.857003248" xlink:href="#C0_0_e7d2f31ec5" y="328.374363435"/>
    </g>
    <g clip-path="url(#pbaf25fcc87)">
     <use style="fill:#ffffff;stroke:#999999;stroke-width:2.0;" x="238.979358947" xlink:href="#C0_0_e7d2f31ec5" y="324.939107098"/>
    </g>
   </g>
   <g id="PathCollection_2">
    <defs>
     <path d="M 0 4 
C 1.060812 4 2.078319 3.578535 2.828427 2.828427 
C 3.578535 2.078319 4 1.060812 4 0 
C 4 -1.060812 3.578535 -2.078319 2.828427 -2.828427 
C 2.078319 -3.578535 1.060812 -4 0 -4 
C -1.060812 -4 -2.078319 -3.578535 -2.828427 -2.828427 
C -3.578535 -2.078319 -4 -1.060812 -4 0 
C -4 1.060812 -3.578535 2.078319 -2.828427 2.828427 
C -2.078319 3.578535 -1.060812 4 0 4 
z
" id="C1_0_5481b9d467"/>
    </defs>
    <g clip-path="url(#pbaf25fcc87)">
     <use style="fill:#ffffff;stroke:#999999;stroke-width:2.0;" x="593.28" xlink:href="#C1_0_5481b9d467" y="526.695586028"/>
    </g>
    <g clip-path="url(#pbaf25fcc87)">
     <use style="fill:#ffffff;stroke:#999999;stroke-width:2.0;" x="593.28" xlink:href="#C1_0_5481b9d467" y="446.538478059"/>
    </g>
    <g clip-path="url(#pbaf25fcc87)">
     <use style="fill:#ffffff;stroke:#999999;stroke-width:2.0;" x="593.28" xlink:href="#C1_0_5481b9d467" y="424.77536934"/>
    </g>
    <g clip-path="url(#pbaf25fcc87)">
     <use style="fill:#ffffff;stroke:#999999;stroke-width:2.0;" x="585.455715574" xlink:href="#C1_0_5481b9d467" y="419.728372683"/>
    </g>
    <g clip-path="url(#pbaf25fcc87)">
     <use style="fill:#ffffff;stroke:#999999;stroke-width:2.0;" x="593.28" xlink:href="#C1_0_5481b9d467" y="401.891085497"/>
    </g>
    <g clip-path="url(#pbaf25fcc87)">
     <use style="fill:#ffffff;stroke:#999999;stroke-width:2.0;" x="593.28" xlink:href="#C1_0_5481b9d467" y="383.039386136"/>
    </g>
    <g clip-path="url(#pbaf25fcc87)">
     <use style="fill:#ffffff;stroke:#999999;stroke-width:2.0;" x="585.813796807" xlink:href="#C1_0_5481b9d467" y="377.522287596"/>
    </g>
    <g clip-path="url(#pbaf25fcc87)">
     <use style="fill:#ffffff;stroke:#999999;stroke-width:2.0;" x="593.28" xlink:href="#C1_0_5481b9d467" y="367.448696049"/>
    </g>
    <g clip-path="url(#pbaf25fcc87)">
     <use style="fill:#ffffff;stroke:#999999;stroke-width:2.0;" x="584.025181335" xlink:href="#C1_0_5481b9d467" y="365.628967561"/>
    </g>
    <g clip-path="url(#pbaf25fcc87)">
     <use style="fill:#ffffff;stroke:#999999;stroke-width:2.0;" x="601.371824292" xlink:href="#C1_0_5481b9d467" y="362.800054513"/>
    </g>
    <g clip-path="url(#pbaf25fcc87)">
     <use style="fill:#ffffff;stroke:#999999;stroke-width:2.0;" x="593.28" xlink:href="#C1_0_5481b9d467" y="357.435272226"/>
    </g>
    <g clip-path="url(#pbaf25fcc87)">
     <use style="fill:#ffffff;stroke:#999999;stroke-width:2.0;" x="583.871997089" xlink:href="#C1_0_5481b9d467" y="356.587716728"/>
    </g>
    <g clip-path="url(#pbaf25fcc87)">
     <use style="fill:#ffffff;stroke:#999999;stroke-width:2.0;" x="606.955207755" xlink:href="#C1_0_5481b9d467" y="355.538917685"/>
    </g>
    <g clip-path="url(#pbaf25fcc87)">
     <use style="fill:#ffffff;stroke:#999999;stroke-width:2.0;" x="574.589503908" xlink:href="#C1_0_5481b9d467" y="354.900679221"/>
    </g>
    <g clip-path="url(#pbaf25fcc87)">
     <use style="fill:#ffffff;stroke:#999999;stroke-width:2.0;" x="616.37438436" xlink:href="#C1_0_5481b9d467" y="354.812598679"/>
    </g>
    <g clip-path="url(#pbaf25fcc87)">
     <use style="fill:#ffffff;stroke:#999999;stroke-width:2.0;" x="565.692138074" xlink:href="#C1_0_5481b9d467" y="351.868070171"/>
    </g>
    <g clip-path="url(#pbaf25fcc87)">
     <use style="fill:#ffffff;stroke:#999999;stroke-width:2.0;" x="624.966718593" xlink:href="#C1_0_5481b9d467" y="351.066181804"/>
    </g>
    <g clip-path="url(#pbaf25fcc87)">
     <use style="fill:#ffffff;stroke:#999999;stroke-width:2.0;" x="597.456145872" xlink:href="#C1_0_5481b9d467" y="349.361782917"/>
    </g>
    <g clip-path="url(#pbaf25fcc87)">
     <use style="fill:#ffffff;stroke:#999999;stroke-width:2.0;" x="588.413887784" xlink:href="#C1_0_5481b9d467" y="346.746622396"/>
    </g>
    <g clip-path="url(#pbaf25fcc87)">
     <use style="fill:#ffffff;stroke:#999999;stroke-width:2.0;" x="605.340671975" xlink:href="#C1_0_5481b9d467" y="344.400550157"/>
    </g>
    <g clip-path="url(#pbaf25fcc87)">
     <use style="fill:#ffffff;stroke:#999999;stroke-width:2.0;" x="579.304999425" xlink:href="#C1_0_5481b9d467" y="344.350356808"/>
    </g>
    <g clip-path="url(#pbaf25fcc87)">
     <use style="fill:#ffffff;stroke:#999999;stroke-width:2.0;" x="593.28" xlink:href="#C1_0_5481b9d467" y="337.588913756"/>
    </g>
    <g clip-path="url(#pbaf25fcc87)">
     <use style="fill:#ffffff;stroke:#999999;stroke-width:2.0;" x="611.466636844" xlink:href="#C1_0_5481b9d467" y="337.547703988"/>
    </g>
    <g clip-path="url(#pbaf25fcc87)">
     <use style="fill:#ffffff;stroke:#999999;stroke-width:2.0;" x="593.28" xlink:href="#C1_0_5481b9d467" y="295.705431233"/>
    </g>
    <g clip-path="url(#pbaf25fcc87)">
     <use style="fill:#ffffff;stroke:#999999;stroke-width:2.0;" x="593.28" xlink:href="#C1_0_5481b9d467" y="283.108124951"/>
    </g>
    <g clip-path="url(#pbaf25fcc87)">
     <use style="fill:#ffffff;stroke:#999999;stroke-width:2.0;" x="593.28" xlink:href="#C1_0_5481b9d467" y="267.424752542"/>
    </g>
    <g clip-path="url(#pbaf25fcc87)">
     <use style="fill:#ffffff;stroke:#999999;stroke-width:2.0;" x="593.28" xlink:href="#C1_0_5481b9d467" y="186.170862264"/>
    </g>
   </g>
   <g id="PathCollection_3">
    <defs>
     <path d="M 0 4 
C 1.060812 4 2.078319 3.578535 2.828427 2.828427 
C 3.578535 2.078319 4 1.060812 4 0 
C 4 -1.060812 3.578535 -2.078319 2.828427 -2.828427 
C 2.078319 -3.578535 1.060812 -4 0 -4 
C -1.060812 -4 -2.078319 -3.578535 -2.828427 -2.828427 
C -3.578535 -2.078319 -4 -1.060812 -4 0 
C -4 1.060812 -3.578535 2.078319 -2.828427 2.828427 
C -2.078319 3.578535 -1.060812 4 0 4 
z
" id="C2_0_75bf94fd7a"/>
    </defs>
    <g clip-path="url(#pbaf25fcc87)">
     <use style="fill:#ffffff;stroke:#999999;stroke-width:2.0;" x="927.36" xlink:href="#C2_0_75bf94fd7a" y="380.018511213"/>
    </g>
    <g clip-path="url(#pbaf25fcc87)">
     <use style="fill:#ffffff;stroke:#999999;stroke-width:2.0;" x="927.36" xlink:href="#C2_0_75bf94fd7a" y="366.303672429"/>
    </g>
    <g clip-path="url(#pbaf25fcc87)">
     <use style="fill:#ffffff;stroke:#999999;stroke-width:2.0;" x="935.113987008" xlink:href="#C2_0_75bf94fd7a" y="361.159211878"/>
    </g>
    <g clip-path="url(#pbaf25fcc87)">
     <use style="fill:#ffffff;stroke:#999999;stroke-width:2.0;" x="922.081327194" xlink:href="#C2_0_75bf94fd7a" y="358.838675445"/>
    </g>
    <g clip-path="url(#pbaf25fcc87)">
     <use style="fill:#ffffff;stroke:#999999;stroke-width:2.0;" x="912.687584179" xlink:href="#C2_0_75bf94fd7a" y="357.858096618"/>
    </g>
    <g clip-path="url(#pbaf25fcc87)">
     <use style="fill:#ffffff;stroke:#999999;stroke-width:2.0;" x="942.372535847" xlink:href="#C2_0_75bf94fd7a" y="355.396247099"/>
    </g>
    <g clip-path="url(#pbaf25fcc87)">
     <use style="fill:#ffffff;stroke:#999999;stroke-width:2.0;" x="903.872236853" xlink:href="#C2_0_75bf94fd7a" y="354.615501493"/>
    </g>
    <g clip-path="url(#pbaf25fcc87)">
     <use style="fill:#ffffff;stroke:#999999;stroke-width:2.0;" x="928.528026703" xlink:href="#C2_0_75bf94fd7a" y="352.25810448"/>
    </g>
    <g clip-path="url(#pbaf25fcc87)">
     <use style="fill:#ffffff;stroke:#999999;stroke-width:2.0;" x="950.875791488" xlink:href="#C2_0_75bf94fd7a" y="351.469809756"/>
    </g>
    <g clip-path="url(#pbaf25fcc87)">
     <use style="fill:#ffffff;stroke:#999999;stroke-width:2.0;" x="895.153843073" xlink:href="#C2_0_75bf94fd7a" y="351.143278067"/>
    </g>
    <g clip-path="url(#pbaf25fcc87)">
     <use style="fill:#ffffff;stroke:#999999;stroke-width:2.0;" x="918.986800887" xlink:href="#C2_0_75bf94fd7a" y="350.334899737"/>
    </g>
    <g clip-path="url(#pbaf25fcc87)">
     <use style="fill:#ffffff;stroke:#999999;stroke-width:2.0;" x="960.005719698" xlink:href="#C2_0_75bf94fd7a" y="349.14730605"/>
    </g>
    <g clip-path="url(#pbaf25fcc87)">
     <use style="fill:#ffffff;stroke:#999999;stroke-width:2.0;" x="936.799572464" xlink:href="#C2_0_75bf94fd7a" y="347.905814106"/>
    </g>
    <g clip-path="url(#pbaf25fcc87)">
     <use style="fill:#ffffff;stroke:#999999;stroke-width:2.0;" x="910.141956495" xlink:href="#C2_0_75bf94fd7a" y="347.881614831"/>
    </g>
    <g clip-path="url(#pbaf25fcc87)">
     <use style="fill:#ffffff;stroke:#999999;stroke-width:2.0;" x="887.005756876" xlink:href="#C2_0_75bf94fd7a" y="346.584646045"/>
    </g>
    <g clip-path="url(#pbaf25fcc87)">
     <use style="fill:#ffffff;stroke:#999999;stroke-width:2.0;" x="968.906778886" xlink:href="#C2_0_75bf94fd7a" y="346.124543525"/>
    </g>
    <g clip-path="url(#pbaf25fcc87)">
     <use style="fill:#ffffff;stroke:#999999;stroke-width:2.0;" x="877.570723089" xlink:href="#C2_0_75bf94fd7a" y="346.078325498"/>
    </g>
    <g clip-path="url(#pbaf25fcc87)">
     <use style="fill:#ffffff;stroke:#999999;stroke-width:2.0;" x="978.354082551" xlink:href="#C2_0_75bf94fd7a" y="345.909563777"/>
    </g>
    <g clip-path="url(#pbaf25fcc87)">
     <use style="fill:#ffffff;stroke:#999999;stroke-width:2.0;" x="901.434190887" xlink:href="#C2_0_75bf94fd7a" y="344.385284636"/>
    </g>
    <g clip-path="url(#pbaf25fcc87)">
     <use style="fill:#ffffff;stroke:#999999;stroke-width:2.0;" x="927.36" xlink:href="#C2_0_75bf94fd7a" y="337.424413118"/>
    </g>
    <g clip-path="url(#pbaf25fcc87)">
     <use style="fill:#ffffff;stroke:#999999;stroke-width:2.0;" x="918.285624769" xlink:href="#C2_0_75bf94fd7a" y="334.912181964"/>
    </g>
    <g clip-path="url(#pbaf25fcc87)">
     <use style="fill:#ffffff;stroke:#999999;stroke-width:2.0;" x="934.930917609" xlink:href="#C2_0_75bf94fd7a" y="332.038304627"/>
    </g>
    <g clip-path="url(#pbaf25fcc87)">
     <use style="fill:#ffffff;stroke:#999999;stroke-width:2.0;" x="944.281270403" xlink:href="#C2_0_75bf94fd7a" y="330.73475892"/>
    </g>
    <g clip-path="url(#pbaf25fcc87)">
     <use style="fill:#ffffff;stroke:#999999;stroke-width:2.0;" x="925.968196226" xlink:href="#C2_0_75bf94fd7a" y="328.522560665"/>
    </g>
    <g clip-path="url(#pbaf25fcc87)">
     <use style="fill:#ffffff;stroke:#999999;stroke-width:2.0;" x="933.504967393" xlink:href="#C2_0_75bf94fd7a" y="323.093188929"/>
    </g>
    <g clip-path="url(#pbaf25fcc87)">
     <use style="fill:#ffffff;stroke:#999999;stroke-width:2.0;" x="919.086414941" xlink:href="#C2_0_75bf94fd7a" y="322.35457321"/>
    </g>
    <g clip-path="url(#pbaf25fcc87)">
     <use style="fill:#ffffff;stroke:#999999;stroke-width:2.0;" x="927.36" xlink:href="#C2_0_75bf94fd7a" y="313.792859564"/>
    </g>
   </g>
   <g id="text_11">
    <!-- Lag Changes After cTBS (post - pre) -->
    <defs>
     <path d="M 56.984375 26.65625 
Q 56.984375 20.65625 55.78125 15.578125 
Q 54.59375 10.5 52.09375 6.828125 
Q 49.609375 3.171875 45.765625 1.09375 
Q 41.9375 -0.984375 36.71875 -0.984375 
Q 34.375 -0.984375 32.046875 -0.484375 
Q 29.734375 0 27.625 1.09375 
Q 25.53125 2.203125 23.75 3.984375 
Q 21.96875 5.765625 20.703125 8.40625 
L 20.40625 8.40625 
Q 20.453125 8.15625 20.5 7.171875 
Q 20.5625 6.203125 20.609375 4.90625 
Q 20.65625 3.609375 20.671875 2.171875 
Q 20.703125 0.734375 20.703125 -0.484375 
L 20.703125 -20.75 
L 6.984375 -20.75 
L 6.984375 40.671875 
Q 6.984375 44.734375 6.859375 47.90625 
Q 6.734375 51.078125 6.59375 52.828125 
L 19.921875 52.828125 
Q 20.015625 52.484375 20.140625 51.5 
Q 20.265625 50.53125 20.328125 49.265625 
Q 20.40625 48 20.453125 46.625 
Q 20.515625 45.265625 20.515625 44.234375 
L 20.703125 44.234375 
Q 23.1875 49.46875 27.53125 51.703125 
Q 31.890625 53.953125 37.59375 53.953125 
Q 42.625 53.953125 46.28125 51.90625 
Q 49.953125 49.859375 52.3125 46.234375 
Q 54.6875 42.625 55.828125 37.625 
Q 56.984375 32.625 56.984375 26.65625 
M 42.671875 26.65625 
Q 42.671875 35.6875 39.9375 40.0625 
Q 37.203125 44.4375 31.78125 44.4375 
Q 29.734375 44.4375 27.703125 43.578125 
Q 25.6875 42.71875 24.09375 40.640625 
Q 22.515625 38.578125 21.515625 35.078125 
Q 20.515625 31.59375 20.515625 26.265625 
Q 20.515625 21.09375 21.484375 17.640625 
Q 22.46875 14.203125 24.046875 12.15625 
Q 25.640625 10.109375 27.640625 9.25 
Q 29.640625 8.40625 31.6875 8.40625 
Q 34.328125 8.40625 36.375 9.453125 
Q 38.421875 10.5 39.8125 12.71875 
Q 41.21875 14.9375 41.9375 18.40625 
Q 42.671875 21.875 42.671875 26.65625 
" id="LiberationSans-Bold-70"/>
     <path d="M 23.09375 43.5625 
L 23.09375 0 
L 9.421875 0 
L 9.421875 43.5625 
L 1.703125 43.5625 
L 1.703125 52.828125 
L 9.421875 52.828125 
L 9.421875 58.34375 
Q 9.421875 61.375 10.15625 63.9375 
Q 10.890625 66.5 12.640625 68.40625 
Q 14.40625 70.3125 17.375 71.390625 
Q 20.359375 72.46875 24.8125 72.46875 
Q 27.15625 72.46875 29.421875 72.21875 
Q 31.6875 71.96875 33.5 71.6875 
L 33.5 62.84375 
Q 32.625 63.03125 31.515625 63.15625 
Q 30.421875 63.28125 29.5 63.28125 
Q 27.59375 63.28125 26.34375 62.890625 
Q 25.09375 62.5 24.390625 61.71875 
Q 23.6875 60.9375 23.390625 59.734375 
Q 23.09375 58.546875 23.09375 56.984375 
L 23.09375 52.828125 
L 33.5 52.828125 
L 33.5 43.5625 
z
" id="LiberationSans-Bold-66"/>
     <path d="M 55.328125 0 
L 49.21875 17.578125 
L 23 17.578125 
L 16.890625 0 
L 2.484375 0 
L 27.59375 68.796875 
L 44.578125 68.796875 
L 69.578125 0 
z
M 39.203125 48.1875 
Q 38.625 49.90625 38.0625 51.640625 
Q 37.5 53.375 37.078125 54.8125 
Q 36.671875 56.25 36.40625 57.171875 
Q 36.140625 58.109375 36.078125 58.203125 
Q 36.03125 58.0625 35.78125 57.125 
Q 35.546875 56.203125 35.125 54.78125 
Q 34.71875 53.375 34.15625 51.640625 
Q 33.59375 49.90625 33.015625 48.1875 
L 26.21875 28.421875 
L 46 28.421875 
z
" id="LiberationSans-Bold-41"/>
     <path d="M 3.90625 19.96875 
L 3.90625 31.890625 
L 29.296875 31.890625 
L 29.296875 19.96875 
z
" id="LiberationSans-Bold-2d"/>
    </defs>
    <g style="fill:#262626;" transform="translate(334.94953125 39.1)scale(0.3 -0.3)">
     <use xlink:href="#LiberationSans-Bold-4c"/>
     <use x="61.083984375" xlink:href="#LiberationSans-Bold-61"/>
     <use x="116.69921875" xlink:href="#LiberationSans-Bold-67"/>
     <use x="177.783203125" xlink:href="#LiberationSans-Bold-20"/>
     <use x="205.56640625" xlink:href="#LiberationSans-Bold-43"/>
     <use x="277.783203125" xlink:href="#LiberationSans-Bold-68"/>
     <use x="338.8671875" xlink:href="#LiberationSans-Bold-61"/>
     <use x="394.482421875" xlink:href="#LiberationSans-Bold-6e"/>
     <use x="455.56640625" xlink:href="#LiberationSans-Bold-67"/>
     <use x="516.650390625" xlink:href="#LiberationSans-Bold-65"/>
     <use x="572.265625" xlink:href="#LiberationSans-Bold-73"/>
     <use x="627.880859375" xlink:href="#LiberationSans-Bold-20"/>
     <use x="655.6171875" xlink:href="#LiberationSans-Bold-41"/>
     <use x="727.833984375" xlink:href="#LiberationSans-Bold-66"/>
     <use x="761.134765625" xlink:href="#LiberationSans-Bold-74"/>
     <use x="794.435546875" xlink:href="#LiberationSans-Bold-65"/>
     <use x="850.05078125" xlink:href="#LiberationSans-Bold-72"/>
     <use x="888.966796875" xlink:href="#LiberationSans-Bold-20"/>
     <use x="916.75" xlink:href="#LiberationSans-Bold-63"/>
     <use x="972.365234375" xlink:href="#LiberationSans-Bold-54"/>
     <use x="1033.44921875" xlink:href="#LiberationSans-Bold-42"/>
     <use x="1105.66601562" xlink:href="#LiberationSans-Bold-53"/>
     <use x="1172.36523438" xlink:href="#LiberationSans-Bold-20"/>
     <use x="1200.1484375" xlink:href="#LiberationSans-Bold-28"/>
     <use x="1233.44921875" xlink:href="#LiberationSans-Bold-70"/>
     <use x="1294.53320312" xlink:href="#LiberationSans-Bold-6f"/>
     <use x="1355.6171875" xlink:href="#LiberationSans-Bold-73"/>
     <use x="1411.23242188" xlink:href="#LiberationSans-Bold-74"/>
     <use x="1444.53320312" xlink:href="#LiberationSans-Bold-20"/>
     <use x="1472.31640625" xlink:href="#LiberationSans-Bold-2d"/>
     <use x="1505.6171875" xlink:href="#LiberationSans-Bold-20"/>
     <use x="1533.40039062" xlink:href="#LiberationSans-Bold-70"/>
     <use x="1594.484375" xlink:href="#LiberationSans-Bold-72"/>
     <use x="1633.40039062" xlink:href="#LiberationSans-Bold-65"/>
     <use x="1689.015625" xlink:href="#LiberationSans-Bold-29"/>
    </g>
   </g>
  </g>
 </g>
 <defs>
  <clipPath id="pbaf25fcc87">
   <rect height="558.0" width="1002.24" x="92.16" y="72.0"/>
  </clipPath>
 </defs>
</svg>
