<?xml version="1.0" encoding="utf-8" standalone="no"?>
<!DOCTYPE svg PUBLIC "-//W3C//DTD SVG 1.1//EN"
  "http://www.w3.org/Graphics/SVG/1.1/DTD/svg11.dtd">
<!-- Created with matplotlib (http://matplotlib.org/) -->
<svg height="360pt" version="1.1" viewBox="0 0 972 360" width="972pt" xmlns="http://www.w3.org/2000/svg" xmlns:xlink="http://www.w3.org/1999/xlink">
 <defs>
  <style type="text/css">
*{stroke-linecap:butt;stroke-linejoin:round;stroke-miterlimit:100000;}
  </style>
 </defs>
 <g id="figure_1">
  <g id="patch_1">
   <path d="M 0 360 
L 972 360 
L 972 0 
L 0 0 
z
" style="fill:#ffffff;"/>
  </g>
  <g id="axes_1">
   <g id="patch_2">
    <path d="M 73.625 285.7 
L 457.734375 285.7 
L 457.734375 20.25 
L 73.625 20.25 
z
" style="fill:#e5e5e5;"/>
   </g>
   <g id="matplotlib.axis_1">
    <g id="xtick_1">
     <g id="line2d_1">
      <path clip-path="url(#p4787f01922)" d="M 73.625 285.7 
L 73.625 20.25 
" style="fill:none;stroke:#ffffff;stroke-linecap:round;stroke-width:1.6;"/>
     </g>
     <g id="line2d_2">
      <defs>
       <path d="M 0 0 
L 0 0 
" id="mae061d9909" style="stroke:#555555;stroke-width:1.6;"/>
      </defs>
      <g>
       <use style="fill:#555555;stroke:#555555;stroke-width:1.6;" x="73.625" xlink:href="#mae061d9909" y="285.7"/>
      </g>
     </g>
     <g id="line2d_3">
      <g>
       <use style="fill:#555555;stroke:#555555;stroke-width:1.6;" x="73.625" xlink:href="#mae061d9909" y="20.25"/>
      </g>
     </g>
     <g id="text_1">
      <!-- 0 -->
      <defs>
       <path d="M 51.703125 34.421875 
Q 51.703125 24.515625 49.828125 17.75 
Q 47.953125 10.984375 44.703125 6.8125 
Q 41.453125 2.640625 37.0625 0.828125 
Q 32.671875 -0.984375 27.6875 -0.984375 
Q 22.65625 -0.984375 18.3125 0.828125 
Q 13.96875 2.640625 10.765625 6.78125 
Q 7.5625 10.9375 5.734375 17.703125 
Q 3.90625 24.46875 3.90625 34.421875 
Q 3.90625 44.828125 5.734375 51.640625 
Q 7.5625 58.453125 10.78125 62.5 
Q 14.015625 66.546875 18.40625 68.1875 
Q 22.796875 69.828125 27.984375 69.828125 
Q 32.90625 69.828125 37.21875 68.1875 
Q 41.546875 66.546875 44.765625 62.5 
Q 48 58.453125 49.84375 51.640625 
Q 51.703125 44.828125 51.703125 34.421875 
M 42.78125 34.421875 
Q 42.78125 42.625 41.796875 48.0625 
Q 40.828125 53.515625 38.921875 56.765625 
Q 37.015625 60.015625 34.25 61.359375 
Q 31.5 62.703125 27.984375 62.703125 
Q 24.265625 62.703125 21.4375 61.328125 
Q 18.609375 59.96875 16.671875 56.71875 
Q 14.75 53.46875 13.765625 48.015625 
Q 12.796875 42.578125 12.796875 34.421875 
Q 12.796875 26.515625 13.796875 21.09375 
Q 14.796875 15.671875 16.71875 12.375 
Q 18.65625 9.078125 21.4375 7.640625 
Q 24.21875 6.203125 27.78125 6.203125 
Q 31.25 6.203125 34.03125 7.640625 
Q 36.8125 9.078125 38.734375 12.375 
Q 40.671875 15.671875 41.71875 21.09375 
Q 42.78125 26.515625 42.78125 34.421875 
" id="LiberationSans-30"/>
      </defs>
      <g style="fill:#555555;" transform="translate(69.17625 308.495)scale(0.16 -0.16)">
       <use xlink:href="#LiberationSans-30"/>
      </g>
     </g>
    </g>
    <g id="xtick_2">
     <g id="line2d_4">
      <path clip-path="url(#p4787f01922)" d="M 150.446875 285.7 
L 150.446875 20.25 
" style="fill:none;stroke:#ffffff;stroke-linecap:round;stroke-width:1.6;"/>
     </g>
     <g id="line2d_5">
      <g>
       <use style="fill:#555555;stroke:#555555;stroke-width:1.6;" x="150.446875" xlink:href="#mae061d9909" y="285.7"/>
      </g>
     </g>
     <g id="line2d_6">
      <g>
       <use style="fill:#555555;stroke:#555555;stroke-width:1.6;" x="150.446875" xlink:href="#mae061d9909" y="20.25"/>
      </g>
     </g>
     <g id="text_2">
      <!-- 20 -->
      <defs>
       <path d="M 5.03125 0 
L 5.03125 6.203125 
Q 7.515625 11.921875 11.109375 16.28125 
Q 14.703125 20.65625 18.65625 24.1875 
Q 22.609375 27.734375 26.484375 30.765625 
Q 30.375 33.796875 33.5 36.8125 
Q 36.625 39.84375 38.546875 43.15625 
Q 40.484375 46.484375 40.484375 50.6875 
Q 40.484375 53.609375 39.59375 55.828125 
Q 38.71875 58.0625 37.0625 59.5625 
Q 35.40625 61.078125 33.078125 61.828125 
Q 30.765625 62.59375 27.9375 62.59375 
Q 25.296875 62.59375 22.96875 61.859375 
Q 20.65625 61.140625 18.84375 59.671875 
Q 17.046875 58.203125 15.890625 56.03125 
Q 14.75 53.859375 14.40625 50.984375 
L 5.421875 51.8125 
Q 5.859375 55.515625 7.46875 58.78125 
Q 9.078125 62.0625 11.90625 64.53125 
Q 14.75 67 18.71875 68.40625 
Q 22.703125 69.828125 27.9375 69.828125 
Q 33.0625 69.828125 37.0625 68.609375 
Q 41.0625 67.390625 43.8125 64.984375 
Q 46.578125 62.59375 48.046875 59.078125 
Q 49.515625 55.5625 49.515625 50.984375 
Q 49.515625 47.515625 48.265625 44.390625 
Q 47.015625 41.265625 44.9375 38.421875 
Q 42.875 35.59375 40.140625 32.953125 
Q 37.40625 30.328125 34.421875 27.8125 
Q 31.453125 25.296875 28.421875 22.828125 
Q 25.390625 20.359375 22.71875 17.859375 
Q 20.0625 15.375 17.96875 12.8125 
Q 15.875 10.25 14.703125 7.46875 
L 50.59375 7.46875 
L 50.59375 0 
z
" id="LiberationSans-32"/>
      </defs>
      <g style="fill:#555555;" transform="translate(141.549375 308.495)scale(0.16 -0.16)">
       <use xlink:href="#LiberationSans-32"/>
       <use x="55.615234375" xlink:href="#LiberationSans-30"/>
      </g>
     </g>
    </g>
    <g id="xtick_3">
     <g id="line2d_7">
      <path clip-path="url(#p4787f01922)" d="M 227.26875 285.7 
L 227.26875 20.25 
" style="fill:none;stroke:#ffffff;stroke-linecap:round;stroke-width:1.6;"/>
     </g>
     <g id="line2d_8">
      <g>
       <use style="fill:#555555;stroke:#555555;stroke-width:1.6;" x="227.26875" xlink:href="#mae061d9909" y="285.7"/>
      </g>
     </g>
     <g id="line2d_9">
      <g>
       <use style="fill:#555555;stroke:#555555;stroke-width:1.6;" x="227.26875" xlink:href="#mae061d9909" y="20.25"/>
      </g>
     </g>
     <g id="text_3">
      <!-- 40 -->
      <defs>
       <path d="M 43.015625 15.578125 
L 43.015625 0 
L 34.71875 0 
L 34.71875 15.578125 
L 2.296875 15.578125 
L 2.296875 22.40625 
L 33.796875 68.796875 
L 43.015625 68.796875 
L 43.015625 22.515625 
L 52.6875 22.515625 
L 52.6875 15.578125 
z
M 34.71875 58.890625 
Q 34.625 58.640625 34.234375 57.9375 
Q 33.84375 57.234375 33.34375 56.34375 
Q 32.859375 55.46875 32.34375 54.5625 
Q 31.84375 53.65625 31.453125 53.078125 
L 13.8125 27.09375 
Q 13.578125 26.703125 13.109375 26.0625 
Q 12.640625 25.4375 12.15625 24.78125 
Q 11.671875 24.125 11.171875 23.484375 
Q 10.6875 22.859375 10.40625 22.515625 
L 34.71875 22.515625 
z
" id="LiberationSans-34"/>
      </defs>
      <g style="fill:#555555;" transform="translate(218.37125 308.495)scale(0.16 -0.16)">
       <use xlink:href="#LiberationSans-34"/>
       <use x="55.615234375" xlink:href="#LiberationSans-30"/>
      </g>
     </g>
    </g>
    <g id="xtick_4">
     <g id="line2d_10">
      <path clip-path="url(#p4787f01922)" d="M 304.090625 285.7 
L 304.090625 20.25 
" style="fill:none;stroke:#ffffff;stroke-linecap:round;stroke-width:1.6;"/>
     </g>
     <g id="line2d_11">
      <g>
       <use style="fill:#555555;stroke:#555555;stroke-width:1.6;" x="304.090625" xlink:href="#mae061d9909" y="285.7"/>
      </g>
     </g>
     <g id="line2d_12">
      <g>
       <use style="fill:#555555;stroke:#555555;stroke-width:1.6;" x="304.090625" xlink:href="#mae061d9909" y="20.25"/>
      </g>
     </g>
     <g id="text_4">
      <!-- 60 -->
      <defs>
       <path d="M 51.21875 22.515625 
Q 51.21875 17.328125 49.78125 13 
Q 48.34375 8.6875 45.53125 5.578125 
Q 42.71875 2.484375 38.5625 0.75 
Q 34.421875 -0.984375 29 -0.984375 
Q 23 -0.984375 18.5 1.3125 
Q 14.015625 3.609375 11.03125 7.921875 
Q 8.0625 12.25 6.5625 18.53125 
Q 5.078125 24.8125 5.078125 32.8125 
Q 5.078125 42 6.765625 48.921875 
Q 8.453125 55.859375 11.625 60.5 
Q 14.796875 65.140625 19.359375 67.484375 
Q 23.921875 69.828125 29.6875 69.828125 
Q 33.203125 69.828125 36.28125 69.09375 
Q 39.359375 68.359375 41.875 66.71875 
Q 44.390625 65.09375 46.28125 62.40625 
Q 48.1875 59.71875 49.3125 55.8125 
L 40.921875 54.296875 
Q 39.546875 58.734375 36.546875 60.71875 
Q 33.546875 62.703125 29.59375 62.703125 
Q 25.984375 62.703125 23.046875 60.984375 
Q 20.125 59.28125 18.0625 55.875 
Q 16.015625 52.484375 14.90625 47.359375 
Q 13.8125 42.234375 13.8125 35.40625 
Q 16.21875 39.84375 20.5625 42.15625 
Q 24.90625 44.484375 30.515625 44.484375 
Q 35.203125 44.484375 39.015625 42.96875 
Q 42.828125 41.453125 45.53125 38.59375 
Q 48.25 35.75 49.734375 31.671875 
Q 51.21875 27.59375 51.21875 22.515625 
M 42.28125 22.125 
Q 42.28125 25.6875 41.40625 28.5625 
Q 40.53125 31.453125 38.765625 33.46875 
Q 37.015625 35.5 34.421875 36.59375 
Q 31.84375 37.703125 28.421875 37.703125 
Q 26.03125 37.703125 23.578125 36.984375 
Q 21.140625 36.28125 19.15625 34.6875 
Q 17.1875 33.109375 15.9375 30.515625 
Q 14.703125 27.9375 14.703125 24.21875 
Q 14.703125 20.40625 15.671875 17.109375 
Q 16.65625 13.8125 18.484375 11.375 
Q 20.3125 8.9375 22.890625 7.515625 
Q 25.484375 6.109375 28.71875 6.109375 
Q 31.890625 6.109375 34.40625 7.203125 
Q 36.921875 8.296875 38.671875 10.375 
Q 40.4375 12.453125 41.359375 15.421875 
Q 42.28125 18.40625 42.28125 22.125 
" id="LiberationSans-36"/>
      </defs>
      <g style="fill:#555555;" transform="translate(295.193125 308.495)scale(0.16 -0.16)">
       <use xlink:href="#LiberationSans-36"/>
       <use x="55.615234375" xlink:href="#LiberationSans-30"/>
      </g>
     </g>
    </g>
    <g id="xtick_5">
     <g id="line2d_13">
      <path clip-path="url(#p4787f01922)" d="M 380.9125 285.7 
L 380.9125 20.25 
" style="fill:none;stroke:#ffffff;stroke-linecap:round;stroke-width:1.6;"/>
     </g>
     <g id="line2d_14">
      <g>
       <use style="fill:#555555;stroke:#555555;stroke-width:1.6;" x="380.9125" xlink:href="#mae061d9909" y="285.7"/>
      </g>
     </g>
     <g id="line2d_15">
      <g>
       <use style="fill:#555555;stroke:#555555;stroke-width:1.6;" x="380.9125" xlink:href="#mae061d9909" y="20.25"/>
      </g>
     </g>
     <g id="text_5">
      <!-- 80 -->
      <defs>
       <path d="M 51.265625 19.1875 
Q 51.265625 14.796875 49.875 11.109375 
Q 48.484375 7.421875 45.625 4.734375 
Q 42.78125 2.046875 38.328125 0.53125 
Q 33.890625 -0.984375 27.828125 -0.984375 
Q 21.78125 -0.984375 17.359375 0.53125 
Q 12.9375 2.046875 10.03125 4.703125 
Q 7.125 7.375 5.734375 11.0625 
Q 4.34375 14.75 4.34375 19.09375 
Q 4.34375 22.859375 5.484375 25.78125 
Q 6.640625 28.71875 8.5625 30.828125 
Q 10.5 32.953125 12.96875 34.25 
Q 15.4375 35.546875 18.0625 35.984375 
L 18.0625 36.1875 
Q 15.1875 36.859375 12.90625 38.375 
Q 10.640625 39.890625 9.09375 42.015625 
Q 7.5625 44.140625 6.75 46.71875 
Q 5.953125 49.3125 5.953125 52.203125 
Q 5.953125 55.8125 7.34375 59 
Q 8.734375 62.203125 11.46875 64.625 
Q 14.203125 67.046875 18.25 68.4375 
Q 22.3125 69.828125 27.640625 69.828125 
Q 33.25 69.828125 37.375 68.40625 
Q 41.5 67 44.203125 64.578125 
Q 46.921875 62.15625 48.234375 58.9375 
Q 49.5625 55.71875 49.5625 52.09375 
Q 49.5625 49.265625 48.75 46.671875 
Q 47.953125 44.09375 46.40625 41.96875 
Q 44.875 39.84375 42.59375 38.34375 
Q 40.328125 36.859375 37.359375 36.28125 
L 37.359375 36.078125 
Q 40.328125 35.59375 42.859375 34.296875 
Q 45.40625 33.015625 47.265625 30.890625 
Q 49.125 28.765625 50.1875 25.828125 
Q 51.265625 22.90625 51.265625 19.1875 
M 40.4375 51.609375 
Q 40.4375 54.203125 39.765625 56.34375 
Q 39.109375 58.5 37.59375 60.03125 
Q 36.078125 61.578125 33.640625 62.421875 
Q 31.203125 63.28125 27.640625 63.28125 
Q 24.171875 63.28125 21.78125 62.421875 
Q 19.390625 61.578125 17.84375 60.03125 
Q 16.3125 58.5 15.625 56.34375 
Q 14.9375 54.203125 14.9375 51.609375 
Q 14.9375 49.5625 15.46875 47.40625 
Q 16.015625 45.265625 17.421875 43.5 
Q 18.84375 41.75 21.328125 40.625 
Q 23.828125 39.5 27.734375 39.5 
Q 31.890625 39.5 34.40625 40.625 
Q 36.921875 41.75 38.25 43.5 
Q 39.59375 45.265625 40.015625 47.40625 
Q 40.4375 49.5625 40.4375 51.609375 
M 42.140625 20.015625 
Q 42.140625 22.515625 41.453125 24.828125 
Q 40.765625 27.15625 39.109375 28.9375 
Q 37.453125 30.71875 34.640625 31.8125 
Q 31.84375 32.90625 27.640625 32.90625 
Q 23.78125 32.90625 21.0625 31.8125 
Q 18.359375 30.71875 16.671875 28.90625 
Q 14.984375 27.09375 14.203125 24.71875 
Q 13.421875 22.359375 13.421875 19.828125 
Q 13.421875 16.65625 14.203125 14.03125 
Q 14.984375 11.421875 16.6875 9.546875 
Q 18.40625 7.671875 21.1875 6.640625 
Q 23.96875 5.609375 27.9375 5.609375 
Q 31.9375 5.609375 34.671875 6.640625 
Q 37.40625 7.671875 39.0625 9.546875 
Q 40.71875 11.421875 41.421875 14.078125 
Q 42.140625 16.75 42.140625 20.015625 
" id="LiberationSans-38"/>
      </defs>
      <g style="fill:#555555;" transform="translate(372.015 308.495)scale(0.16 -0.16)">
       <use xlink:href="#LiberationSans-38"/>
       <use x="55.615234375" xlink:href="#LiberationSans-30"/>
      </g>
     </g>
    </g>
    <g id="xtick_6">
     <g id="line2d_16">
      <path clip-path="url(#p4787f01922)" d="M 457.734375 285.7 
L 457.734375 20.25 
" style="fill:none;stroke:#ffffff;stroke-linecap:round;stroke-width:1.6;"/>
     </g>
     <g id="line2d_17">
      <g>
       <use style="fill:#555555;stroke:#555555;stroke-width:1.6;" x="457.734375" xlink:href="#mae061d9909" y="285.7"/>
      </g>
     </g>
     <g id="line2d_18">
      <g>
       <use style="fill:#555555;stroke:#555555;stroke-width:1.6;" x="457.734375" xlink:href="#mae061d9909" y="20.25"/>
      </g>
     </g>
     <g id="text_6">
      <!-- 100 -->
      <defs>
       <path d="M 7.625 0 
L 7.625 7.46875 
L 25.140625 7.46875 
L 25.140625 60.40625 
L 9.625 49.3125 
L 9.625 57.625 
L 25.875 68.796875 
L 33.984375 68.796875 
L 33.984375 7.46875 
L 50.734375 7.46875 
L 50.734375 0 
z
" id="LiberationSans-31"/>
      </defs>
      <g style="fill:#555555;" transform="translate(444.388125 308.495)scale(0.16 -0.16)">
       <use xlink:href="#LiberationSans-31"/>
       <use x="55.615234375" xlink:href="#LiberationSans-30"/>
       <use x="111.23046875" xlink:href="#LiberationSans-30"/>
      </g>
     </g>
    </g>
    <g id="text_7">
     <!-- TR -->
     <defs>
      <path d="M 37.75 57.671875 
L 37.75 0 
L 23.34375 0 
L 23.34375 57.671875 
L 1.125 57.671875 
L 1.125 68.796875 
L 60.015625 68.796875 
L 60.015625 57.671875 
z
" id="LiberationSans-Bold-54"/>
      <path d="M 53.953125 0 
L 37.984375 26.125 
L 21.09375 26.125 
L 21.09375 0 
L 6.6875 0 
L 6.6875 68.796875 
L 41.0625 68.796875 
Q 47.515625 68.796875 52.3125 67.359375 
Q 57.125 65.921875 60.34375 63.25 
Q 63.578125 60.59375 65.15625 56.8125 
Q 66.75 53.03125 66.75 48.296875 
Q 66.75 44.4375 65.59375 41.234375 
Q 64.453125 38.03125 62.421875 35.546875 
Q 60.40625 33.0625 57.609375 31.375 
Q 54.828125 29.6875 51.5625 28.90625 
L 70.171875 0 
z
M 52.25 47.703125 
Q 52.25 52.734375 48.953125 55.171875 
Q 45.65625 57.625 39.546875 57.625 
L 21.09375 57.625 
L 21.09375 37.3125 
L 39.9375 37.3125 
Q 43.171875 37.3125 45.484375 38.0625 
Q 47.796875 38.8125 49.28125 40.203125 
Q 50.78125 41.609375 51.515625 43.5 
Q 52.25 45.40625 52.25 47.703125 
" id="LiberationSans-Bold-52"/>
     </defs>
     <g style="fill:#555555;" transform="translate(249.6840625 339.2075)scale(0.24 -0.24)">
      <use xlink:href="#LiberationSans-Bold-54"/>
      <use x="61.083984375" xlink:href="#LiberationSans-Bold-52"/>
     </g>
    </g>
   </g>
   <g id="matplotlib.axis_2">
    <g id="ytick_1">
     <g id="line2d_19">
      <path clip-path="url(#p4787f01922)" d="M 73.625 285.7 
L 457.734375 285.7 
" style="fill:none;stroke:#ffffff;stroke-linecap:round;stroke-width:1.6;"/>
     </g>
     <g id="line2d_20">
      <g>
       <use style="fill:#555555;stroke:#555555;stroke-width:1.6;" x="73.625" xlink:href="#mae061d9909" y="285.7"/>
      </g>
     </g>
     <g id="line2d_21">
      <g>
       <use style="fill:#555555;stroke:#555555;stroke-width:1.6;" x="457.734375" xlink:href="#mae061d9909" y="285.7"/>
      </g>
     </g>
     <g id="text_8">
      <!-- −4 -->
      <defs>
       <path d="M 4.9375 29.6875 
L 4.9375 36.8125 
L 53.515625 36.8125 
L 53.515625 29.6875 
z
" id="LiberationSans-2212"/>
      </defs>
      <g style="fill:#555555;" transform="translate(44.1825 289.8375)scale(0.16 -0.16)">
       <use xlink:href="#LiberationSans-2212"/>
       <use x="58.3984375" xlink:href="#LiberationSans-34"/>
      </g>
     </g>
    </g>
    <g id="ytick_2">
     <g id="line2d_22">
      <path clip-path="url(#p4787f01922)" d="M 73.625 252.51875 
L 457.734375 252.51875 
" style="fill:none;stroke:#ffffff;stroke-linecap:round;stroke-width:1.6;"/>
     </g>
     <g id="line2d_23">
      <g>
       <use style="fill:#555555;stroke:#555555;stroke-width:1.6;" x="73.625" xlink:href="#mae061d9909" y="252.51875"/>
      </g>
     </g>
     <g id="line2d_24">
      <g>
       <use style="fill:#555555;stroke:#555555;stroke-width:1.6;" x="457.734375" xlink:href="#mae061d9909" y="252.51875"/>
      </g>
     </g>
     <g id="text_9">
      <!-- −3 -->
      <defs>
       <path d="M 51.21875 19 
Q 51.21875 14.265625 49.671875 10.546875 
Q 48.140625 6.84375 45.1875 4.265625 
Q 42.234375 1.703125 37.859375 0.359375 
Q 33.5 -0.984375 27.875 -0.984375 
Q 21.484375 -0.984375 17.109375 0.609375 
Q 12.75 2.203125 9.90625 4.8125 
Q 7.078125 7.421875 5.65625 10.765625 
Q 4.25 14.109375 3.8125 17.671875 
L 12.890625 18.5 
Q 13.28125 15.765625 14.328125 13.515625 
Q 15.375 11.28125 17.1875 9.671875 
Q 19 8.0625 21.625 7.171875 
Q 24.265625 6.296875 27.875 6.296875 
Q 34.515625 6.296875 38.296875 9.5625 
Q 42.09375 12.84375 42.09375 19.28125 
Q 42.09375 23.09375 40.40625 25.40625 
Q 38.71875 27.734375 36.203125 29.03125 
Q 33.6875 30.328125 30.734375 30.765625 
Q 27.78125 31.203125 25.296875 31.203125 
L 20.3125 31.203125 
L 20.3125 38.8125 
L 25.09375 38.8125 
Q 27.59375 38.8125 30.265625 39.328125 
Q 32.953125 39.84375 35.171875 41.1875 
Q 37.40625 42.53125 38.84375 44.828125 
Q 40.28125 47.125 40.28125 50.6875 
Q 40.28125 56.203125 37.03125 59.390625 
Q 33.796875 62.59375 27.390625 62.59375 
Q 21.578125 62.59375 17.984375 59.609375 
Q 14.40625 56.640625 13.8125 51.21875 
L 4.984375 51.90625 
Q 5.515625 56.453125 7.46875 59.8125 
Q 9.421875 63.1875 12.421875 65.40625 
Q 15.4375 67.625 19.28125 68.71875 
Q 23.140625 69.828125 27.484375 69.828125 
Q 33.25 69.828125 37.390625 68.375 
Q 41.546875 66.9375 44.1875 64.46875 
Q 46.828125 62.015625 48.0625 58.6875 
Q 49.3125 55.375 49.3125 51.609375 
Q 49.3125 48.578125 48.484375 45.9375 
Q 47.65625 43.3125 45.890625 41.203125 
Q 44.140625 39.109375 41.421875 37.59375 
Q 38.71875 36.078125 34.90625 35.296875 
L 34.90625 35.109375 
Q 39.0625 34.671875 42.140625 33.21875 
Q 45.21875 31.78125 47.21875 29.625 
Q 49.21875 27.484375 50.21875 24.75 
Q 51.21875 22.015625 51.21875 19 
" id="LiberationSans-33"/>
      </defs>
      <g style="fill:#555555;" transform="translate(44.1825 256.65625)scale(0.16 -0.16)">
       <use xlink:href="#LiberationSans-2212"/>
       <use x="58.3984375" xlink:href="#LiberationSans-33"/>
      </g>
     </g>
    </g>
    <g id="ytick_3">
     <g id="line2d_25">
      <path clip-path="url(#p4787f01922)" d="M 73.625 219.3375 
L 457.734375 219.3375 
" style="fill:none;stroke:#ffffff;stroke-linecap:round;stroke-width:1.6;"/>
     </g>
     <g id="line2d_26">
      <g>
       <use style="fill:#555555;stroke:#555555;stroke-width:1.6;" x="73.625" xlink:href="#mae061d9909" y="219.3375"/>
      </g>
     </g>
     <g id="line2d_27">
      <g>
       <use style="fill:#555555;stroke:#555555;stroke-width:1.6;" x="457.734375" xlink:href="#mae061d9909" y="219.3375"/>
      </g>
     </g>
     <g id="text_10">
      <!-- −2 -->
      <g style="fill:#555555;" transform="translate(44.1825 223.475)scale(0.16 -0.16)">
       <use xlink:href="#LiberationSans-2212"/>
       <use x="58.3984375" xlink:href="#LiberationSans-32"/>
      </g>
     </g>
    </g>
    <g id="ytick_4">
     <g id="line2d_28">
      <path clip-path="url(#p4787f01922)" d="M 73.625 186.15625 
L 457.734375 186.15625 
" style="fill:none;stroke:#ffffff;stroke-linecap:round;stroke-width:1.6;"/>
     </g>
     <g id="line2d_29">
      <g>
       <use style="fill:#555555;stroke:#555555;stroke-width:1.6;" x="73.625" xlink:href="#mae061d9909" y="186.15625"/>
      </g>
     </g>
     <g id="line2d_30">
      <g>
       <use style="fill:#555555;stroke:#555555;stroke-width:1.6;" x="457.734375" xlink:href="#mae061d9909" y="186.15625"/>
      </g>
     </g>
     <g id="text_11">
      <!-- −1 -->
      <g style="fill:#555555;" transform="translate(44.1825 190.29375)scale(0.16 -0.16)">
       <use xlink:href="#LiberationSans-2212"/>
       <use x="58.3984375" xlink:href="#LiberationSans-31"/>
      </g>
     </g>
    </g>
    <g id="ytick_5">
     <g id="line2d_31">
      <path clip-path="url(#p4787f01922)" d="M 73.625 152.975 
L 457.734375 152.975 
" style="fill:none;stroke:#ffffff;stroke-linecap:round;stroke-width:1.6;"/>
     </g>
     <g id="line2d_32">
      <g>
       <use style="fill:#555555;stroke:#555555;stroke-width:1.6;" x="73.625" xlink:href="#mae061d9909" y="152.975"/>
      </g>
     </g>
     <g id="line2d_33">
      <g>
       <use style="fill:#555555;stroke:#555555;stroke-width:1.6;" x="457.734375" xlink:href="#mae061d9909" y="152.975"/>
      </g>
     </g>
     <g id="text_12">
      <!-- 0 -->
      <g style="fill:#555555;" transform="translate(53.5275 157.1125)scale(0.16 -0.16)">
       <use xlink:href="#LiberationSans-30"/>
      </g>
     </g>
    </g>
    <g id="ytick_6">
     <g id="line2d_34">
      <path clip-path="url(#p4787f01922)" d="M 73.625 119.79375 
L 457.734375 119.79375 
" style="fill:none;stroke:#ffffff;stroke-linecap:round;stroke-width:1.6;"/>
     </g>
     <g id="line2d_35">
      <g>
       <use style="fill:#555555;stroke:#555555;stroke-width:1.6;" x="73.625" xlink:href="#mae061d9909" y="119.79375"/>
      </g>
     </g>
     <g id="line2d_36">
      <g>
       <use style="fill:#555555;stroke:#555555;stroke-width:1.6;" x="457.734375" xlink:href="#mae061d9909" y="119.79375"/>
      </g>
     </g>
     <g id="text_13">
      <!-- 1 -->
      <g style="fill:#555555;" transform="translate(53.5275 123.93125)scale(0.16 -0.16)">
       <use xlink:href="#LiberationSans-31"/>
      </g>
     </g>
    </g>
    <g id="ytick_7">
     <g id="line2d_37">
      <path clip-path="url(#p4787f01922)" d="M 73.625 86.6125 
L 457.734375 86.6125 
" style="fill:none;stroke:#ffffff;stroke-linecap:round;stroke-width:1.6;"/>
     </g>
     <g id="line2d_38">
      <g>
       <use style="fill:#555555;stroke:#555555;stroke-width:1.6;" x="73.625" xlink:href="#mae061d9909" y="86.6125"/>
      </g>
     </g>
     <g id="line2d_39">
      <g>
       <use style="fill:#555555;stroke:#555555;stroke-width:1.6;" x="457.734375" xlink:href="#mae061d9909" y="86.6125"/>
      </g>
     </g>
     <g id="text_14">
      <!-- 2 -->
      <g style="fill:#555555;" transform="translate(53.5275 90.75)scale(0.16 -0.16)">
       <use xlink:href="#LiberationSans-32"/>
      </g>
     </g>
    </g>
    <g id="ytick_8">
     <g id="line2d_40">
      <path clip-path="url(#p4787f01922)" d="M 73.625 53.43125 
L 457.734375 53.43125 
" style="fill:none;stroke:#ffffff;stroke-linecap:round;stroke-width:1.6;"/>
     </g>
     <g id="line2d_41">
      <g>
       <use style="fill:#555555;stroke:#555555;stroke-width:1.6;" x="73.625" xlink:href="#mae061d9909" y="53.43125"/>
      </g>
     </g>
     <g id="line2d_42">
      <g>
       <use style="fill:#555555;stroke:#555555;stroke-width:1.6;" x="457.734375" xlink:href="#mae061d9909" y="53.43125"/>
      </g>
     </g>
     <g id="text_15">
      <!-- 3 -->
      <g style="fill:#555555;" transform="translate(53.5275 57.56875)scale(0.16 -0.16)">
       <use xlink:href="#LiberationSans-33"/>
      </g>
     </g>
    </g>
    <g id="ytick_9">
     <g id="line2d_43">
      <path clip-path="url(#p4787f01922)" d="M 73.625 20.25 
L 457.734375 20.25 
" style="fill:none;stroke:#ffffff;stroke-linecap:round;stroke-width:1.6;"/>
     </g>
     <g id="line2d_44">
      <g>
       <use style="fill:#555555;stroke:#555555;stroke-width:1.6;" x="73.625" xlink:href="#mae061d9909" y="20.25"/>
      </g>
     </g>
     <g id="line2d_45">
      <g>
       <use style="fill:#555555;stroke:#555555;stroke-width:1.6;" x="457.734375" xlink:href="#mae061d9909" y="20.25"/>
      </g>
     </g>
     <g id="text_16">
      <!-- 4 -->
      <g style="fill:#555555;" transform="translate(53.5275 24.3875)scale(0.16 -0.16)">
       <use xlink:href="#LiberationSans-34"/>
      </g>
     </g>
    </g>
    <g id="text_17">
     <!-- Voxel Intensity -->
     <defs>
      <path id="LiberationSans-Bold-20"/>
      <path d="M 57.171875 26.46875 
Q 57.171875 20.40625 55.484375 15.375 
Q 53.8125 10.359375 50.4375 6.71875 
Q 47.078125 3.078125 42.046875 1.046875 
Q 37.015625 -0.984375 30.328125 -0.984375 
Q 23.875 -0.984375 18.9375 1.015625 
Q 14.015625 3.03125 10.671875 6.640625 
Q 7.328125 10.25 5.609375 15.296875 
Q 3.90625 20.359375 3.90625 26.46875 
Q 3.90625 32.375 5.53125 37.375 
Q 7.171875 42.390625 10.484375 46.046875 
Q 13.8125 49.703125 18.84375 51.75 
Q 23.875 53.8125 30.609375 53.8125 
Q 37.75 53.8125 42.765625 51.75 
Q 47.796875 49.703125 51 46.0625 
Q 54.203125 42.4375 55.6875 37.421875 
Q 57.171875 32.421875 57.171875 26.46875 
M 42.828125 26.46875 
Q 42.828125 35.890625 39.75 40.140625 
Q 36.671875 44.390625 30.8125 44.390625 
Q 24.75 44.390625 21.53125 40.09375 
Q 18.3125 35.796875 18.3125 26.46875 
Q 18.3125 21.734375 19.15625 18.3125 
Q 20.015625 14.890625 21.578125 12.6875 
Q 23.140625 10.5 25.34375 9.453125 
Q 27.546875 8.40625 30.171875 8.40625 
Q 33.203125 8.40625 35.5625 9.453125 
Q 37.9375 10.5 39.546875 12.6875 
Q 41.15625 14.890625 41.984375 18.3125 
Q 42.828125 21.734375 42.828125 26.46875 
" id="LiberationSans-Bold-6f"/>
      <path d="M 41.21875 0 
L 41.21875 29.640625 
Q 41.21875 32.71875 40.71875 35.28125 
Q 40.234375 37.84375 39.109375 39.671875 
Q 37.984375 41.5 36.171875 42.53125 
Q 34.375 43.5625 31.78125 43.5625 
Q 29.296875 43.5625 27.265625 42.453125 
Q 25.25 41.359375 23.78125 39.328125 
Q 22.3125 37.3125 21.5 34.5 
Q 20.703125 31.6875 20.703125 28.328125 
L 20.703125 0 
L 6.984375 0 
L 6.984375 41.015625 
Q 6.984375 42.71875 6.953125 44.53125 
Q 6.9375 46.34375 6.859375 47.96875 
Q 6.78125 49.609375 6.734375 50.90625 
Q 6.6875 52.203125 6.59375 52.828125 
L 19.671875 52.828125 
Q 19.78125 52.25 19.875 50.953125 
Q 19.96875 49.65625 20.0625 48.09375 
Q 20.171875 46.53125 20.234375 44.96875 
Q 20.3125 43.40625 20.3125 42.328125 
L 20.515625 42.328125 
Q 23.296875 48.390625 27.484375 51.125 
Q 31.6875 53.859375 37.5 53.859375 
Q 42.28125 53.859375 45.578125 52.296875 
Q 48.875 50.734375 50.953125 48 
Q 53.03125 45.265625 53.953125 41.546875 
Q 54.890625 37.84375 54.890625 33.546875 
L 54.890625 0 
z
" id="LiberationSans-Bold-6e"/>
      <path d="M 6.984375 0 
L 6.984375 72.46875 
L 20.703125 72.46875 
L 20.703125 0 
z
" id="LiberationSans-Bold-6c"/>
      <path d="M 40.71875 0 
L 26.125 0 
L 0.6875 68.796875 
L 15.71875 68.796875 
L 29.890625 24.609375 
Q 30.5625 22.40625 31.203125 20.109375 
Q 31.84375 17.828125 32.375 15.921875 
Q 32.953125 13.671875 33.5 11.625 
Q 33.984375 13.625 34.515625 15.828125 
Q 35.015625 17.671875 35.671875 19.984375 
Q 36.328125 22.3125 37.015625 24.609375 
L 51.125 68.796875 
L 66.015625 68.796875 
z
" id="LiberationSans-Bold-56"/>
      <path d="M 51.515625 15.4375 
Q 51.515625 11.625 49.921875 8.59375 
Q 48.34375 5.5625 45.3125 3.4375 
Q 42.28125 1.3125 37.890625 0.15625 
Q 33.5 -0.984375 27.875 -0.984375 
Q 22.859375 -0.984375 18.796875 -0.25 
Q 14.75 0.484375 11.6875 2.171875 
Q 8.640625 3.859375 6.59375 6.546875 
Q 4.546875 9.234375 3.515625 13.1875 
L 15.578125 14.984375 
Q 16.15625 12.796875 17.1875 11.421875 
Q 18.21875 10.0625 19.71875 9.328125 
Q 21.234375 8.59375 23.265625 8.34375 
Q 25.296875 8.109375 27.875 8.109375 
Q 30.21875 8.109375 32.25 8.375 
Q 34.28125 8.640625 35.765625 9.296875 
Q 37.25 9.96875 38.078125 11.15625 
Q 38.921875 12.359375 38.921875 14.15625 
Q 38.921875 16.21875 37.71875 17.40625 
Q 36.53125 18.609375 34.453125 19.359375 
Q 32.375 20.125 29.5625 20.671875 
Q 26.765625 21.234375 23.578125 21.96875 
Q 20.265625 22.703125 17.03125 23.71875 
Q 13.8125 24.75 11.265625 26.5 
Q 8.734375 28.265625 7.171875 30.96875 
Q 5.609375 33.6875 5.609375 37.84375 
Q 5.609375 41.609375 7.078125 44.5625 
Q 8.546875 47.515625 11.375 49.578125 
Q 14.203125 51.65625 18.375 52.75 
Q 22.5625 53.859375 27.984375 53.859375 
Q 32.28125 53.859375 35.984375 53.046875 
Q 39.703125 52.25 42.625 50.515625 
Q 45.5625 48.78125 47.53125 46.09375 
Q 49.515625 43.40625 50.296875 39.59375 
L 38.140625 38.328125 
Q 37.796875 40.234375 36.90625 41.46875 
Q 36.03125 42.71875 34.734375 43.453125 
Q 33.453125 44.1875 31.734375 44.453125 
Q 30.03125 44.734375 27.984375 44.734375 
Q 23.09375 44.734375 20.65625 43.484375 
Q 18.21875 42.234375 18.21875 39.3125 
Q 18.21875 37.5 19.21875 36.421875 
Q 20.21875 35.359375 22.046875 34.640625 
Q 23.875 33.9375 26.390625 33.421875 
Q 28.90625 32.90625 31.890625 32.171875 
Q 35.546875 31.390625 39.078125 30.34375 
Q 42.625 29.296875 45.375 27.46875 
Q 48.140625 25.640625 49.828125 22.75 
Q 51.515625 19.875 51.515625 15.4375 
" id="LiberationSans-Bold-73"/>
      <path d="M 20.515625 -0.875 
Q 14.453125 -0.875 11.171875 2.421875 
Q 7.90625 5.71875 7.90625 12.40625 
L 7.90625 43.5625 
L 1.21875 43.5625 
L 1.21875 52.828125 
L 8.59375 52.828125 
L 12.890625 65.234375 
L 21.484375 65.234375 
L 21.484375 52.828125 
L 31.5 52.828125 
L 31.5 43.5625 
L 21.484375 43.5625 
L 21.484375 16.109375 
Q 21.484375 12.25 22.953125 10.421875 
Q 24.421875 8.59375 27.484375 8.59375 
Q 28.765625 8.59375 29.78125 8.78125 
Q 30.8125 8.984375 32.078125 9.28125 
L 32.078125 0.78125 
Q 29.546875 -0.046875 26.703125 -0.453125 
Q 23.875 -0.875 20.515625 -0.875 
" id="LiberationSans-Bold-74"/>
      <path d="M 6.984375 62.359375 
L 6.984375 72.46875 
L 20.703125 72.46875 
L 20.703125 62.359375 
z
M 6.984375 0 
L 6.984375 52.828125 
L 20.703125 52.828125 
L 20.703125 0 
z
" id="LiberationSans-Bold-69"/>
      <path d="M 39.984375 0 
L 27.6875 19.140625 
L 15.28125 0 
L 0.6875 0 
L 20.015625 27.296875 
L 1.609375 52.828125 
L 16.40625 52.828125 
L 27.6875 35.546875 
L 38.921875 52.828125 
L 53.8125 52.828125 
L 35.40625 27.4375 
L 54.890625 0 
z
" id="LiberationSans-Bold-78"/>
      <path d="M 34.1875 -2.78125 
Q 32.28125 -7.421875 30.328125 -10.78125 
Q 28.375 -14.15625 26 -16.375 
Q 23.640625 -18.609375 20.671875 -19.671875 
Q 17.71875 -20.75 13.8125 -20.75 
Q 11.671875 -20.75 9.421875 -20.59375 
Q 7.171875 -20.453125 5.171875 -20.125 
L 5.171875 -10.359375 
Q 6.15625 -10.5 7.546875 -10.625 
Q 8.9375 -10.75 9.90625 -10.75 
Q 11.921875 -10.75 13.484375 -10.296875 
Q 15.046875 -9.859375 16.3125 -8.828125 
Q 17.578125 -7.8125 18.671875 -6.09375 
Q 19.78125 -4.390625 20.796875 -1.8125 
L 21.6875 0.53125 
L 0.78125 52.828125 
L 15.28125 52.828125 
L 23.578125 28.078125 
Q 23.78125 27.546875 24.1875 26.265625 
Q 24.609375 25 25.125 23.359375 
Q 25.640625 21.734375 26.171875 19.921875 
Q 26.703125 18.109375 27.1875 16.46875 
Q 27.6875 14.84375 28.03125 13.578125 
Q 28.375 12.3125 28.515625 11.765625 
Q 28.65625 12.3125 28.96875 13.546875 
Q 29.296875 14.796875 29.703125 16.375 
Q 30.125 17.96875 30.609375 19.71875 
Q 31.109375 21.484375 31.546875 23.09375 
Q 31.984375 24.703125 32.34375 26 
Q 32.71875 27.296875 32.90625 27.875 
L 40.71875 52.828125 
L 55.078125 52.828125 
z
" id="LiberationSans-Bold-79"/>
      <path d="M 28.609375 -0.984375 
Q 22.90625 -0.984375 18.328125 0.703125 
Q 13.765625 2.390625 10.546875 5.828125 
Q 7.328125 9.28125 5.609375 14.46875 
Q 3.90625 19.671875 3.90625 26.65625 
Q 3.90625 34.234375 5.921875 39.40625 
Q 7.953125 44.578125 11.390625 47.78125 
Q 14.84375 50.984375 19.328125 52.390625 
Q 23.828125 53.8125 28.8125 53.8125 
Q 35.0625 53.8125 39.46875 51.640625 
Q 43.890625 49.46875 46.71875 45.5625 
Q 49.5625 41.65625 50.875 36.203125 
Q 52.203125 30.765625 52.203125 24.171875 
L 52.203125 23.78125 
L 18.3125 23.78125 
Q 18.3125 20.453125 18.890625 17.59375 
Q 19.484375 14.75 20.796875 12.671875 
Q 22.125 10.59375 24.21875 9.390625 
Q 26.3125 8.203125 29.296875 8.203125 
Q 32.90625 8.203125 35.203125 9.734375 
Q 37.5 11.28125 38.484375 14.5 
L 51.421875 13.375 
Q 50.53125 11.140625 48.9375 8.59375 
Q 47.359375 6.0625 44.71875 3.9375 
Q 42.09375 1.8125 38.15625 0.40625 
Q 34.234375 -0.984375 28.609375 -0.984375 
M 28.609375 45.171875 
Q 26.515625 45.171875 24.6875 44.453125 
Q 22.859375 43.75 21.515625 42.203125 
Q 20.171875 40.671875 19.328125 38.234375 
Q 18.5 35.796875 18.40625 32.375 
L 38.921875 32.375 
Q 38.53125 38.765625 35.84375 41.96875 
Q 33.15625 45.171875 28.609375 45.171875 
" id="LiberationSans-Bold-65"/>
      <path d="M 6.6875 0 
L 6.6875 68.796875 
L 21.09375 68.796875 
L 21.09375 0 
z
" id="LiberationSans-Bold-49"/>
     </defs>
     <g style="fill:#555555;" transform="translate(29.2025 237.64625)rotate(-90.0)scale(0.24 -0.24)">
      <use xlink:href="#LiberationSans-Bold-56"/>
      <use x="66.58984375" xlink:href="#LiberationSans-Bold-6f"/>
      <use x="127.673828125" xlink:href="#LiberationSans-Bold-78"/>
      <use x="183.2890625" xlink:href="#LiberationSans-Bold-65"/>
      <use x="238.904296875" xlink:href="#LiberationSans-Bold-6c"/>
      <use x="266.6875" xlink:href="#LiberationSans-Bold-20"/>
      <use x="294.470703125" xlink:href="#LiberationSans-Bold-49"/>
      <use x="322.25390625" xlink:href="#LiberationSans-Bold-6e"/>
      <use x="383.337890625" xlink:href="#LiberationSans-Bold-74"/>
      <use x="416.638671875" xlink:href="#LiberationSans-Bold-65"/>
      <use x="472.25390625" xlink:href="#LiberationSans-Bold-6e"/>
      <use x="533.337890625" xlink:href="#LiberationSans-Bold-73"/>
      <use x="588.953125" xlink:href="#LiberationSans-Bold-69"/>
      <use x="616.736328125" xlink:href="#LiberationSans-Bold-74"/>
      <use x="650.037109375" xlink:href="#LiberationSans-Bold-79"/>
     </g>
    </g>
   </g>
   <g id="line2d_46">
    <path clip-path="url(#p4787f01922)" d="M 73.625 167.549144 
L 77.466094 198.10601 
L 81.307187 220.455882 
L 85.148281 222.48627 
L 88.989375 201.886155 
L 92.830469 167.692424 
L 96.671562 135.001083 
L 100.512656 116.369529 
L 104.35375 116.007663 
L 108.194844 129.569912 
L 112.035937 147.371118 
L 115.877031 158.436357 
L 119.718125 155.334035 
L 123.559219 138.938587 
L 127.400312 119.060153 
L 131.241406 108.521447 
L 135.0825 114.811295 
L 138.923594 135.976441 
L 142.764687 162.50912 
L 146.605781 182.178645 
L 150.446875 185.562316 
L 154.287969 171.729368 
L 158.129062 151.02319 
L 161.970156 139.816782 
L 165.81125 147.807996 
L 169.652344 168.324809 
L 173.493437 183.028394 
L 177.334531 178.92967 
L 181.175625 161.090202 
L 185.016719 147.139422 
L 188.857812 149.087491 
L 192.698906 161.85706 
L 196.54 169.803763 
L 200.381094 162.457586 
L 204.222187 142.688142 
L 208.063281 121.606202 
L 211.904375 108.6985 
L 215.745469 107.029103 
L 219.586562 114.652829 
L 223.427656 127.647469 
L 227.26875 142.006428 
L 231.109844 154.912663 
L 234.950937 165.647744 
L 238.792031 174.927717 
L 242.633125 182.545786 
L 246.474219 185.782761 
L 250.315312 181.096354 
L 254.156406 168.124834 
L 257.9975 151.868514 
L 261.838594 140.100707 
L 265.679688 137.698918 
L 269.520781 142.697163 
L 273.361875 147.590143 
L 277.202969 145.22925 
L 281.044062 134.838859 
L 284.885156 123.096339 
L 288.72625 119.002663 
L 292.567344 126.755598 
L 296.408437 142.676677 
L 300.249531 158.372281 
L 304.090625 166.928578 
L 307.931719 167.286047 
L 311.772812 164.219005 
L 315.613906 164.289689 
L 319.455 170.338267 
L 323.296094 178.574736 
L 327.137187 181.326988 
L 330.978281 173.672259 
L 334.819375 157.819345 
L 338.660469 141.186224 
L 342.501562 130.799273 
L 346.342656 129.499286 
L 350.18375 135.684706 
L 354.024844 144.640708 
L 357.865937 150.640367 
L 361.707031 150.427724 
L 365.548125 146.110885 
L 369.389219 143.613123 
L 373.230312 147.019648 
L 377.071406 154.67026 
L 380.9125 161.305935 
L 384.753594 163.316639 
L 388.594687 160.708371 
L 392.435781 154.182517 
L 396.276875 142.430857 
L 400.117969 124.795896 
L 403.959062 107.17677 
L 407.800156 102.774043 
L 411.64125 122.599455 
L 415.482344 162.372785 
L 419.323437 200.137 
L 423.164531 211.253705 
L 427.005625 189.227674 
L 430.846719 151.953938 
L 434.687812 126.212614 
L 438.528906 125.51126 
L 442.37 142.171293 
L 446.211094 158.181611 
L 450.052187 161.458413 
L 453.893281 153.449966 
" style="fill:none;stroke:#3b7ea1;stroke-linecap:round;stroke-width:4.0;"/>
   </g>
   <g id="line2d_47">
    <path clip-path="url(#p4787f01922)" d="M 73.625 159.245173 
L 77.466094 176.177886 
L 81.307187 191.167343 
L 85.148281 196.750606 
L 88.989375 190.05018 
L 92.830469 173.481468 
L 96.671562 153.371598 
L 100.512656 137.567458 
L 104.35375 132.866698 
L 108.194844 142.210066 
L 112.035937 161.487144 
L 115.877031 178.595943 
L 119.718125 179.296615 
L 123.559219 158.757566 
L 127.400312 128.3695 
L 131.241406 108.45766 
L 135.0825 111.89033 
L 138.923594 134.212361 
L 142.764687 158.894412 
L 146.605781 170.95172 
L 150.446875 166.655703 
L 154.287969 153.84089 
L 158.129062 145.209471 
L 161.970156 149.514699 
L 165.81125 165.398211 
L 169.652344 182.114874 
L 173.493437 187.727625 
L 177.334531 178.691314 
L 181.175625 162.217621 
L 185.016719 149.538437 
L 188.857812 147.355607 
L 192.698906 155.008456 
L 196.54 166.851821 
L 200.381094 174.920508 
L 204.222187 170.939056 
L 208.063281 150.445432 
L 211.904375 118.213151 
L 215.745469 88.848718 
L 219.586562 78.5458 
L 223.427656 92.924688 
L 227.26875 121.794156 
L 231.109844 146.88041 
L 234.950937 156.56908 
L 238.792031 154.37254 
L 242.633125 153.427689 
L 246.474219 163.030231 
L 250.315312 180.767079 
L 254.156406 196.861301 
L 257.9975 204.120862 
L 261.838594 202.710654 
L 265.679688 196.885192 
L 269.520781 189.36109 
L 273.361875 179.160256 
L 277.202969 163.636148 
L 281.044062 141.975696 
L 284.885156 117.508349 
L 288.72625 97.507396 
L 292.567344 90.181235 
L 296.408437 99.435218 
L 300.249531 120.05749 
L 304.090625 138.52239 
L 307.931719 142.599788 
L 311.772812 133.672972 
L 315.613906 128.133831 
L 319.455 142.065048 
L 323.296094 172.9992 
L 327.137187 199.890207 
L 330.978281 203.60019 
L 334.819375 185.700771 
L 338.660469 164.933015 
L 342.501562 157.168756 
L 346.342656 162.122973 
L 350.18375 168.295255 
L 354.024844 166.02163 
L 357.865937 154.434674 
L 361.707031 139.835508 
L 365.548125 130.612644 
L 369.389219 131.940227 
L 373.230312 141.99553 
L 377.071406 153.124832 
L 380.9125 158.826594 
L 384.753594 160.092997 
L 388.594687 162.995861 
L 392.435781 168.996749 
L 396.276875 170.020181 
L 400.117969 156.812575 
L 403.959062 132.808718 
L 407.800156 116.315964 
L 411.64125 125.002194 
L 415.482344 156.941269 
L 419.323437 188.444495 
L 423.164531 193.114967 
L 427.005625 165.086859 
L 430.846719 124.336196 
L 434.687812 99.102247 
L 438.528906 102.658032 
L 442.37 125.665545 
L 446.211094 148.060703 
L 450.052187 156.461916 
L 453.893281 152.410394 
" style="fill:none;stroke:#c4820e;stroke-linecap:round;stroke-width:4.0;"/>
   </g>
   <g id="patch_3">
    <path d="M 73.625 20.25 
L 457.734375 20.25 
" style="fill:none;stroke:#ffffff;stroke-linecap:square;stroke-linejoin:miter;"/>
   </g>
   <g id="patch_4">
    <path d="M 457.734375 285.7 
L 457.734375 20.25 
" style="fill:none;stroke:#ffffff;stroke-linecap:square;stroke-linejoin:miter;"/>
   </g>
   <g id="patch_5">
    <path d="M 73.625 285.7 
L 457.734375 285.7 
" style="fill:none;stroke:#ffffff;stroke-linecap:square;stroke-linejoin:miter;"/>
   </g>
   <g id="patch_6">
    <path d="M 73.625 285.7 
L 73.625 20.25 
" style="fill:none;stroke:#ffffff;stroke-linecap:square;stroke-linejoin:miter;"/>
   </g>
   <g id="legend_1">
    <g id="patch_7">
     <path d="M 257.082187 239.985625 
L 293.082187 239.985625 
L 293.082187 227.385625 
L 257.082187 227.385625 
z
" style="fill:#3b7ea1;stroke:#3b7ea1;stroke-linejoin:miter;stroke-width:0.5;"/>
    </g>
    <g id="text_18">
     <!-- Mean GM Signal -->
     <defs>
      <path d="M 13.484375 24.5625 
Q 13.484375 20.40625 14.328125 16.90625 
Q 15.1875 13.421875 16.96875 10.90625 
Q 18.75 8.40625 21.53125 7 
Q 24.3125 5.609375 28.21875 5.609375 
Q 33.9375 5.609375 37.375 7.90625 
Q 40.828125 10.203125 42.046875 13.71875 
L 49.75 11.53125 
Q 48.921875 9.328125 47.4375 7.109375 
Q 45.953125 4.890625 43.453125 3.09375 
Q 40.96875 1.3125 37.234375 0.15625 
Q 33.5 -0.984375 28.21875 -0.984375 
Q 16.5 -0.984375 10.375 6 
Q 4.25 12.984375 4.25 26.765625 
Q 4.25 34.1875 6.09375 39.328125 
Q 7.953125 44.484375 11.171875 47.703125 
Q 14.40625 50.921875 18.703125 52.359375 
Q 23 53.8125 27.875 53.8125 
Q 34.515625 53.8125 38.984375 51.65625 
Q 43.453125 49.515625 46.15625 45.71875 
Q 48.875 41.9375 50.015625 36.8125 
Q 51.171875 31.6875 51.171875 25.734375 
L 51.171875 24.5625 
z
M 42.09375 31.296875 
Q 41.359375 39.65625 37.84375 43.484375 
Q 34.328125 47.3125 27.734375 47.3125 
Q 25.53125 47.3125 23.109375 46.609375 
Q 20.703125 45.90625 18.65625 44.09375 
Q 16.609375 42.28125 15.1875 39.171875 
Q 13.765625 36.078125 13.578125 31.296875 
z
" id="LiberationSans-65"/>
      <path d="M 26.765625 -20.75 
Q 22.21875 -20.75 18.703125 -19.8125 
Q 15.1875 -18.890625 12.6875 -17.15625 
Q 10.203125 -15.4375 8.640625 -13.03125 
Q 7.078125 -10.640625 6.390625 -7.71875 
L 15.234375 -6.453125 
Q 16.109375 -10.109375 19.109375 -12.078125 
Q 22.125 -14.0625 27 -14.0625 
Q 29.984375 -14.0625 32.421875 -13.234375 
Q 34.859375 -12.40625 36.5625 -10.5625 
Q 38.28125 -8.734375 39.203125 -5.796875 
Q 40.140625 -2.875 40.140625 1.3125 
L 40.140625 9.8125 
L 40.046875 9.8125 
Q 39.0625 7.8125 37.625 5.984375 
Q 36.1875 4.15625 34.109375 2.734375 
Q 32.03125 1.3125 29.296875 0.453125 
Q 26.5625 -0.390625 23.046875 -0.390625 
Q 18.015625 -0.390625 14.421875 1.296875 
Q 10.84375 2.984375 8.5625 6.34375 
Q 6.296875 9.71875 5.25 14.71875 
Q 4.203125 19.734375 4.203125 26.3125 
Q 4.203125 32.671875 5.25 37.75 
Q 6.296875 42.828125 8.65625 46.359375 
Q 11.03125 49.90625 14.8125 51.78125 
Q 18.609375 53.65625 24.03125 53.65625 
Q 29.640625 53.65625 33.765625 51.09375 
Q 37.890625 48.53125 40.140625 43.796875 
L 40.234375 43.796875 
Q 40.234375 45.015625 40.296875 46.53125 
Q 40.375 48.046875 40.453125 49.390625 
Q 40.53125 50.734375 40.625 51.703125 
Q 40.71875 52.6875 40.828125 52.828125 
L 49.171875 52.828125 
Q 49.125 52.390625 49.078125 51.34375 
Q 49.03125 50.296875 48.96875 48.828125 
Q 48.921875 47.359375 48.890625 45.578125 
Q 48.875 43.796875 48.875 41.890625 
L 48.875 1.515625 
Q 48.875 -9.578125 43.421875 -15.15625 
Q 37.984375 -20.75 26.765625 -20.75 
M 40.140625 26.421875 
Q 40.140625 31.9375 38.9375 35.859375 
Q 37.75 39.796875 35.796875 42.28125 
Q 33.84375 44.78125 31.328125 45.953125 
Q 28.8125 47.125 26.171875 47.125 
Q 22.796875 47.125 20.375 45.953125 
Q 17.96875 44.78125 16.375 42.265625 
Q 14.796875 39.75 14.03125 35.8125 
Q 13.28125 31.890625 13.28125 26.421875 
Q 13.28125 20.703125 14.03125 16.8125 
Q 14.796875 12.9375 16.359375 10.546875 
Q 17.921875 8.15625 20.3125 7.125 
Q 22.703125 6.109375 26.03125 6.109375 
Q 28.65625 6.109375 31.171875 7.21875 
Q 33.6875 8.34375 35.6875 10.78125 
Q 37.703125 13.234375 38.921875 17.09375 
Q 40.140625 20.953125 40.140625 26.421875 
" id="LiberationSans-67"/>
      <path d="M 20.21875 -0.984375 
Q 12.25 -0.984375 8.25 3.21875 
Q 4.25 7.421875 4.25 14.75 
Q 4.25 19.96875 6.21875 23.3125 
Q 8.203125 26.65625 11.390625 28.5625 
Q 14.59375 30.46875 18.6875 31.203125 
Q 22.796875 31.9375 27.046875 32.03125 
L 38.921875 32.234375 
L 38.921875 35.109375 
Q 38.921875 38.375 38.234375 40.671875 
Q 37.546875 42.96875 36.125 44.375 
Q 34.71875 45.796875 32.59375 46.453125 
Q 30.46875 47.125 27.59375 47.125 
Q 25.046875 47.125 23 46.75 
Q 20.953125 46.390625 19.4375 45.4375 
Q 17.921875 44.484375 16.984375 42.84375 
Q 16.0625 41.21875 15.765625 38.71875 
L 6.59375 39.546875 
Q 7.078125 42.671875 8.4375 45.28125 
Q 9.8125 47.90625 12.328125 49.796875 
Q 14.84375 51.703125 18.625 52.75 
Q 22.40625 53.8125 27.78125 53.8125 
Q 37.75 53.8125 42.765625 49.234375 
Q 47.796875 44.671875 47.796875 36.03125 
L 47.796875 13.28125 
Q 47.796875 9.375 48.828125 7.390625 
Q 49.859375 5.421875 52.734375 5.421875 
Q 53.46875 5.421875 54.203125 5.515625 
Q 54.9375 5.609375 55.609375 5.765625 
L 55.609375 0.296875 
Q 53.953125 -0.09375 52.3125 -0.28125 
Q 50.6875 -0.484375 48.828125 -0.484375 
Q 46.34375 -0.484375 44.5625 0.171875 
Q 42.78125 0.828125 41.65625 2.171875 
Q 40.53125 3.515625 39.9375 5.484375 
Q 39.359375 7.46875 39.203125 10.109375 
L 38.921875 10.109375 
Q 37.5 7.5625 35.8125 5.515625 
Q 34.125 3.46875 31.875 2.03125 
Q 29.640625 0.59375 26.78125 -0.1875 
Q 23.921875 -0.984375 20.21875 -0.984375 
M 22.21875 5.609375 
Q 26.421875 5.609375 29.5625 7.140625 
Q 32.71875 8.6875 34.78125 11.078125 
Q 36.859375 13.484375 37.890625 16.3125 
Q 38.921875 19.140625 38.921875 21.734375 
L 38.921875 26.078125 
L 29.296875 25.875 
Q 26.078125 25.828125 23.171875 25.40625 
Q 20.265625 25 18.0625 23.78125 
Q 15.875 22.5625 14.578125 20.359375 
Q 13.28125 18.171875 13.28125 14.59375 
Q 13.28125 10.296875 15.59375 7.953125 
Q 17.921875 5.609375 22.21875 5.609375 
" id="LiberationSans-61"/>
      <path d="M 66.703125 0 
L 66.703125 45.90625 
Q 66.703125 48.390625 66.75 50.96875 
Q 66.796875 53.5625 66.890625 55.71875 
Q 67 58.203125 67.140625 60.546875 
Q 66.453125 58.0625 65.71875 55.609375 
Q 65.09375 53.515625 64.328125 51.140625 
Q 63.578125 48.78125 62.84375 46.875 
L 45.0625 0 
L 38.53125 0 
L 20.515625 46.875 
Q 20.21875 47.609375 19.890625 48.578125 
Q 19.578125 49.5625 19.203125 50.65625 
Q 18.84375 51.765625 18.46875 52.90625 
Q 18.109375 54.046875 17.78125 55.171875 
Q 16.9375 57.765625 16.15625 60.546875 
Q 16.21875 57.8125 16.3125 55.125 
Q 16.40625 52.828125 16.453125 50.3125 
Q 16.5 47.796875 16.5 45.90625 
L 16.5 0 
L 8.203125 0 
L 8.203125 68.796875 
L 20.453125 68.796875 
L 38.765625 21.09375 
Q 39.109375 20.125 39.59375 18.578125 
Q 40.09375 17.046875 40.53125 15.421875 
Q 40.96875 13.8125 41.328125 12.375 
Q 41.703125 10.9375 41.84375 10.15625 
Q 42 10.9375 42.390625 12.40625 
Q 42.78125 13.875 43.28125 15.484375 
Q 43.796875 17.09375 44.28125 18.609375 
Q 44.78125 20.125 45.171875 21.09375 
L 63.140625 68.796875 
L 75.09375 68.796875 
L 75.09375 0 
z
" id="LiberationSans-4d"/>
      <path d="M 6.6875 64.0625 
L 6.6875 72.46875 
L 15.484375 72.46875 
L 15.484375 64.0625 
z
M 6.6875 0 
L 6.6875 52.828125 
L 15.484375 52.828125 
L 15.484375 0 
z
" id="LiberationSans-69"/>
      <path d="M 40.28125 0 
L 40.28125 33.5 
Q 40.28125 37.359375 39.71875 39.9375 
Q 39.15625 42.53125 37.890625 44.109375 
Q 36.625 45.703125 34.546875 46.359375 
Q 32.46875 47.015625 29.390625 47.015625 
Q 26.265625 47.015625 23.75 45.921875 
Q 21.234375 44.828125 19.453125 42.75 
Q 17.671875 40.671875 16.6875 37.625 
Q 15.71875 34.578125 15.71875 30.609375 
L 15.71875 0 
L 6.9375 0 
L 6.9375 41.546875 
Q 6.9375 43.21875 6.90625 45.046875 
Q 6.890625 46.875 6.828125 48.5 
Q 6.78125 50.140625 6.734375 51.3125 
Q 6.6875 52.484375 6.640625 52.828125 
L 14.9375 52.828125 
Q 14.984375 52.59375 15.03125 51.515625 
Q 15.09375 50.4375 15.15625 49.046875 
Q 15.234375 47.65625 15.28125 46.21875 
Q 15.328125 44.78125 15.328125 43.796875 
L 15.484375 43.796875 
Q 16.75 46.09375 18.265625 47.953125 
Q 19.78125 49.8125 21.78125 51.09375 
Q 23.78125 52.390625 26.359375 53.09375 
Q 28.953125 53.8125 32.375 53.8125 
Q 36.765625 53.8125 39.9375 52.734375 
Q 43.109375 51.65625 45.15625 49.40625 
Q 47.21875 47.171875 48.171875 43.625 
Q 49.125 40.09375 49.125 35.203125 
L 49.125 0 
z
" id="LiberationSans-6e"/>
      <path d="M 6.734375 0 
L 6.734375 72.46875 
L 15.53125 72.46875 
L 15.53125 0 
z
" id="LiberationSans-6c"/>
      <path id="LiberationSans-20"/>
      <path d="M 5.03125 34.71875 
Q 5.03125 42.78125 7.203125 49.265625 
Q 9.375 55.765625 13.6875 60.328125 
Q 18.015625 64.890625 24.40625 67.359375 
Q 30.8125 69.828125 39.265625 69.828125 
Q 45.609375 69.828125 50.390625 68.703125 
Q 55.171875 67.578125 58.6875 65.46875 
Q 62.203125 63.375 64.640625 60.375 
Q 67.09375 57.375 68.796875 53.609375 
L 59.90625 50.984375 
Q 58.640625 53.515625 56.859375 55.59375 
Q 55.078125 57.671875 52.53125 59.125 
Q 50 60.59375 46.65625 61.390625 
Q 43.3125 62.203125 39.015625 62.203125 
Q 32.765625 62.203125 28.140625 60.25 
Q 23.53125 58.296875 20.5 54.6875 
Q 17.484375 51.078125 15.984375 46 
Q 14.5 40.921875 14.5 34.71875 
Q 14.5 28.515625 16.109375 23.359375 
Q 17.71875 18.21875 20.890625 14.484375 
Q 24.078125 10.75 28.78125 8.671875 
Q 33.5 6.59375 39.703125 6.59375 
Q 43.75 6.59375 47.171875 7.265625 
Q 50.59375 7.953125 53.34375 9.046875 
Q 56.109375 10.15625 58.203125 11.5 
Q 60.296875 12.84375 61.71875 14.203125 
L 61.71875 26.609375 
L 41.15625 26.609375 
L 41.15625 34.421875 
L 70.3125 34.421875 
L 70.3125 10.6875 
Q 68.015625 8.34375 64.90625 6.21875 
Q 61.8125 4.109375 57.953125 2.484375 
Q 54.109375 0.875 49.515625 -0.046875 
Q 44.921875 -0.984375 39.703125 -0.984375 
Q 31 -0.984375 24.5 1.671875 
Q 18.015625 4.34375 13.6875 9.109375 
Q 9.375 13.875 7.203125 20.40625 
Q 5.03125 26.953125 5.03125 34.71875 
" id="LiberationSans-47"/>
      <path d="M 62.109375 19 
Q 62.109375 14.65625 60.421875 10.984375 
Q 58.734375 7.328125 55.21875 4.65625 
Q 51.703125 2 46.359375 0.5 
Q 41.015625 -0.984375 33.6875 -0.984375 
Q 20.84375 -0.984375 13.671875 3.515625 
Q 6.5 8.015625 4.546875 16.5 
L 13.578125 18.3125 
Q 14.265625 15.625 15.671875 13.421875 
Q 17.09375 11.234375 19.5 9.640625 
Q 21.921875 8.0625 25.484375 7.171875 
Q 29.046875 6.296875 34.03125 6.296875 
Q 38.1875 6.296875 41.65625 7 
Q 45.125 7.71875 47.609375 9.171875 
Q 50.09375 10.640625 51.484375 12.953125 
Q 52.875 15.28125 52.875 18.5 
Q 52.875 21.875 51.34375 23.96875 
Q 49.8125 26.078125 47.015625 27.4375 
Q 44.234375 28.8125 40.375 29.734375 
Q 36.53125 30.671875 31.84375 31.734375 
Q 28.953125 32.375 26.046875 33.125 
Q 23.140625 33.890625 20.484375 34.9375 
Q 17.828125 35.984375 15.484375 37.390625 
Q 13.140625 38.8125 11.421875 40.796875 
Q 9.71875 42.78125 8.734375 45.390625 
Q 7.765625 48 7.765625 51.421875 
Q 7.765625 56.296875 9.734375 59.78125 
Q 11.71875 63.28125 15.234375 65.53125 
Q 18.75 67.78125 23.53125 68.796875 
Q 28.328125 69.828125 33.890625 69.828125 
Q 40.28125 69.828125 44.8125 68.828125 
Q 49.359375 67.828125 52.484375 65.8125 
Q 55.609375 63.8125 57.484375 60.859375 
Q 59.375 57.90625 60.5 54 
L 51.3125 52.390625 
Q 50.640625 54.890625 49.34375 56.84375 
Q 48.046875 58.796875 45.9375 60.109375 
Q 43.84375 61.421875 40.84375 62.109375 
Q 37.84375 62.796875 33.796875 62.796875 
Q 29 62.796875 25.75 61.9375 
Q 22.515625 61.078125 20.53125 59.609375 
Q 18.5625 58.15625 17.703125 56.171875 
Q 16.84375 54.203125 16.84375 51.90625 
Q 16.84375 48.828125 18.375 46.84375 
Q 19.921875 44.875 22.5625 43.546875 
Q 25.203125 42.234375 28.65625 41.359375 
Q 32.125 40.484375 36.03125 39.59375 
Q 39.203125 38.875 42.359375 38.109375 
Q 45.515625 37.359375 48.390625 36.296875 
Q 51.265625 35.25 53.78125 33.828125 
Q 56.296875 32.421875 58.15625 30.375 
Q 60.015625 28.328125 61.0625 25.53125 
Q 62.109375 22.75 62.109375 19 
" id="LiberationSans-53"/>
     </defs>
     <g style="fill:#262626;" transform="translate(307.4821875 239.985625)scale(0.18 -0.18)">
      <use xlink:href="#LiberationSans-4d"/>
      <use x="83.30078125" xlink:href="#LiberationSans-65"/>
      <use x="138.916015625" xlink:href="#LiberationSans-61"/>
      <use x="194.53125" xlink:href="#LiberationSans-6e"/>
      <use x="250.146484375" xlink:href="#LiberationSans-20"/>
      <use x="277.9296875" xlink:href="#LiberationSans-47"/>
      <use x="355.712890625" xlink:href="#LiberationSans-4d"/>
      <use x="439.013671875" xlink:href="#LiberationSans-20"/>
      <use x="466.796875" xlink:href="#LiberationSans-53"/>
      <use x="533.49609375" xlink:href="#LiberationSans-69"/>
      <use x="555.712890625" xlink:href="#LiberationSans-67"/>
      <use x="611.328125" xlink:href="#LiberationSans-6e"/>
      <use x="666.943359375" xlink:href="#LiberationSans-61"/>
      <use x="722.55859375" xlink:href="#LiberationSans-6c"/>
     </g>
    </g>
    <g id="patch_8">
     <path d="M 257.082187 265.765 
L 293.082187 265.765 
L 293.082187 253.165 
L 257.082187 253.165 
z
" style="fill:#c4820e;stroke:#c4820e;stroke-linejoin:miter;stroke-width:0.5;"/>
    </g>
    <g id="text_19">
     <!-- Voxel Signal -->
     <defs>
      <path d="M 51.421875 26.46875 
Q 51.421875 12.59375 45.3125 5.796875 
Q 39.203125 -0.984375 27.59375 -0.984375 
Q 22.078125 -0.984375 17.71875 0.671875 
Q 13.375 2.34375 10.375 5.765625 
Q 7.375 9.1875 5.78125 14.328125 
Q 4.203125 19.484375 4.203125 26.46875 
Q 4.203125 53.8125 27.875 53.8125 
Q 34.03125 53.8125 38.5 52.09375 
Q 42.96875 50.390625 45.828125 46.96875 
Q 48.6875 43.5625 50.046875 38.421875 
Q 51.421875 33.296875 51.421875 26.46875 
M 42.1875 26.46875 
Q 42.1875 32.625 41.234375 36.625 
Q 40.28125 40.625 38.453125 43.015625 
Q 36.625 45.40625 33.984375 46.359375 
Q 31.34375 47.3125 28.03125 47.3125 
Q 24.65625 47.3125 21.9375 46.3125 
Q 19.234375 45.3125 17.328125 42.890625 
Q 15.4375 40.484375 14.421875 36.46875 
Q 13.421875 32.46875 13.421875 26.46875 
Q 13.421875 20.3125 14.5 16.28125 
Q 15.578125 12.25 17.453125 9.859375 
Q 19.34375 7.46875 21.90625 6.484375 
Q 24.46875 5.515625 27.484375 5.515625 
Q 30.859375 5.515625 33.59375 6.46875 
Q 36.328125 7.421875 38.234375 9.8125 
Q 40.140625 12.203125 41.15625 16.25 
Q 42.1875 20.3125 42.1875 26.46875 
" id="LiberationSans-6f"/>
      <path d="M 38.1875 0 
L 28.515625 0 
L 0.4375 68.796875 
L 10.25 68.796875 
L 29.296875 20.359375 
Q 30.03125 18.171875 30.765625 15.984375 
Q 31.5 13.8125 32.078125 12.109375 
Q 32.765625 10.109375 33.40625 8.203125 
Q 33.984375 10.015625 34.671875 12.015625 
Q 35.25 13.71875 35.953125 15.859375 
Q 36.671875 18.015625 37.5 20.359375 
L 56.453125 68.796875 
L 66.265625 68.796875 
z
" id="LiberationSans-56"/>
      <path d="M 39.109375 0 
L 24.90625 21.6875 
L 10.59375 0 
L 1.125 0 
L 19.921875 27.15625 
L 2 52.828125 
L 11.71875 52.828125 
L 24.90625 32.28125 
L 37.984375 52.828125 
L 47.796875 52.828125 
L 29.890625 27.25 
L 48.921875 0 
z
" id="LiberationSans-78"/>
     </defs>
     <g style="fill:#262626;" transform="translate(307.4821875 265.765)scale(0.18 -0.18)">
      <use xlink:href="#LiberationSans-56"/>
      <use x="66.62109375" xlink:href="#LiberationSans-6f"/>
      <use x="122.236328125" xlink:href="#LiberationSans-78"/>
      <use x="172.236328125" xlink:href="#LiberationSans-65"/>
      <use x="227.8515625" xlink:href="#LiberationSans-6c"/>
      <use x="250.068359375" xlink:href="#LiberationSans-20"/>
      <use x="277.8515625" xlink:href="#LiberationSans-53"/>
      <use x="344.55078125" xlink:href="#LiberationSans-69"/>
      <use x="366.767578125" xlink:href="#LiberationSans-67"/>
      <use x="422.3828125" xlink:href="#LiberationSans-6e"/>
      <use x="477.998046875" xlink:href="#LiberationSans-61"/>
      <use x="533.61328125" xlink:href="#LiberationSans-6c"/>
     </g>
    </g>
   </g>
  </g>
  <g id="axes_2">
   <g id="patch_9">
    <path d="M 565.953125 285.7 
L 950.0625 285.7 
L 950.0625 20.25 
L 565.953125 20.25 
z
" style="fill:#e5e5e5;"/>
   </g>
   <g id="matplotlib.axis_3">
    <g id="xtick_7">
     <g id="line2d_48">
      <path clip-path="url(#pbd7ec5a063)" d="M 565.953125 285.7 
L 565.953125 20.25 
" style="fill:none;stroke:#ffffff;stroke-linecap:round;stroke-width:1.6;"/>
     </g>
     <g id="line2d_49">
      <g>
       <use style="fill:#555555;stroke:#555555;stroke-width:1.6;" x="565.953125" xlink:href="#mae061d9909" y="285.7"/>
      </g>
     </g>
     <g id="line2d_50">
      <g>
       <use style="fill:#555555;stroke:#555555;stroke-width:1.6;" x="565.953125" xlink:href="#mae061d9909" y="20.25"/>
      </g>
     </g>
     <g id="text_20">
      <!-- −10 -->
      <g style="fill:#555555;" transform="translate(548.990625 311.39375)scale(0.2 -0.2)">
       <use xlink:href="#LiberationSans-2212"/>
       <use x="58.3984375" xlink:href="#LiberationSans-31"/>
       <use x="114.013671875" xlink:href="#LiberationSans-30"/>
      </g>
     </g>
    </g>
    <g id="xtick_8">
     <g id="line2d_51">
      <path clip-path="url(#pbd7ec5a063)" d="M 661.980469 285.7 
L 661.980469 20.25 
" style="fill:none;stroke:#ffffff;stroke-linecap:round;stroke-width:1.6;"/>
     </g>
     <g id="line2d_52">
      <g>
       <use style="fill:#555555;stroke:#555555;stroke-width:1.6;" x="661.98046875" xlink:href="#mae061d9909" y="285.7"/>
      </g>
     </g>
     <g id="line2d_53">
      <g>
       <use style="fill:#555555;stroke:#555555;stroke-width:1.6;" x="661.98046875" xlink:href="#mae061d9909" y="20.25"/>
      </g>
     </g>
     <g id="text_21">
      <!-- −5 -->
      <defs>
       <path d="M 51.421875 22.40625 
Q 51.421875 17.234375 49.859375 12.9375 
Q 48.296875 8.640625 45.21875 5.53125 
Q 42.140625 2.4375 37.578125 0.71875 
Q 33.015625 -0.984375 27 -0.984375 
Q 21.578125 -0.984375 17.546875 0.28125 
Q 13.53125 1.5625 10.734375 3.78125 
Q 7.953125 6 6.3125 8.984375 
Q 4.6875 11.96875 4 15.375 
L 12.890625 16.40625 
Q 13.421875 14.453125 14.390625 12.625 
Q 15.375 10.796875 17.0625 9.34375 
Q 18.75 7.90625 21.21875 7.046875 
Q 23.6875 6.203125 27.203125 6.203125 
Q 30.609375 6.203125 33.390625 7.25 
Q 36.1875 8.296875 38.15625 10.34375 
Q 40.140625 12.40625 41.203125 15.375 
Q 42.28125 18.359375 42.28125 22.21875 
Q 42.28125 25.390625 41.25 28.046875 
Q 40.234375 30.71875 38.328125 32.640625 
Q 36.421875 34.578125 33.65625 35.640625 
Q 30.90625 36.71875 27.390625 36.71875 
Q 25.203125 36.71875 23.34375 36.328125 
Q 21.484375 35.9375 19.890625 35.25 
Q 18.3125 34.578125 17.015625 33.671875 
Q 15.71875 32.765625 14.59375 31.78125 
L 6 31.78125 
L 8.296875 68.796875 
L 47.40625 68.796875 
L 47.40625 61.328125 
L 16.3125 61.328125 
L 14.984375 39.5 
Q 17.328125 41.3125 20.84375 42.59375 
Q 24.359375 43.890625 29.203125 43.890625 
Q 34.328125 43.890625 38.421875 42.328125 
Q 42.53125 40.765625 45.40625 37.90625 
Q 48.296875 35.0625 49.859375 31.109375 
Q 51.421875 27.15625 51.421875 22.40625 
" id="LiberationSans-35"/>
      </defs>
      <g style="fill:#555555;" transform="translate(650.57890625 311.39375)scale(0.2 -0.2)">
       <use xlink:href="#LiberationSans-2212"/>
       <use x="58.3984375" xlink:href="#LiberationSans-35"/>
      </g>
     </g>
    </g>
    <g id="xtick_9">
     <g id="line2d_54">
      <path clip-path="url(#pbd7ec5a063)" d="M 758.007812 285.7 
L 758.007812 20.25 
" style="fill:none;stroke:#ffffff;stroke-linecap:round;stroke-width:1.6;"/>
     </g>
     <g id="line2d_55">
      <g>
       <use style="fill:#555555;stroke:#555555;stroke-width:1.6;" x="758.0078125" xlink:href="#mae061d9909" y="285.7"/>
      </g>
     </g>
     <g id="line2d_56">
      <g>
       <use style="fill:#555555;stroke:#555555;stroke-width:1.6;" x="758.0078125" xlink:href="#mae061d9909" y="20.25"/>
      </g>
     </g>
     <g id="text_22">
      <!-- 0 -->
      <g style="fill:#555555;" transform="translate(752.446875 311.39375)scale(0.2 -0.2)">
       <use xlink:href="#LiberationSans-30"/>
      </g>
     </g>
    </g>
    <g id="xtick_10">
     <g id="line2d_57">
      <path clip-path="url(#pbd7ec5a063)" d="M 854.035156 285.7 
L 854.035156 20.25 
" style="fill:none;stroke:#ffffff;stroke-linecap:round;stroke-width:1.6;"/>
     </g>
     <g id="line2d_58">
      <g>
       <use style="fill:#555555;stroke:#555555;stroke-width:1.6;" x="854.03515625" xlink:href="#mae061d9909" y="285.7"/>
      </g>
     </g>
     <g id="line2d_59">
      <g>
       <use style="fill:#555555;stroke:#555555;stroke-width:1.6;" x="854.03515625" xlink:href="#mae061d9909" y="20.25"/>
      </g>
     </g>
     <g id="text_23">
      <!-- 5 -->
      <g style="fill:#555555;" transform="translate(848.47421875 311.39375)scale(0.2 -0.2)">
       <use xlink:href="#LiberationSans-35"/>
      </g>
     </g>
    </g>
    <g id="xtick_11">
     <g id="line2d_60">
      <path clip-path="url(#pbd7ec5a063)" d="M 950.0625 285.7 
L 950.0625 20.25 
" style="fill:none;stroke:#ffffff;stroke-linecap:round;stroke-width:1.6;"/>
     </g>
     <g id="line2d_61">
      <g>
       <use style="fill:#555555;stroke:#555555;stroke-width:1.6;" x="950.0625" xlink:href="#mae061d9909" y="285.7"/>
      </g>
     </g>
     <g id="line2d_62">
      <g>
       <use style="fill:#555555;stroke:#555555;stroke-width:1.6;" x="950.0625" xlink:href="#mae061d9909" y="20.25"/>
      </g>
     </g>
     <g id="text_24">
      <!-- 10 -->
      <g style="fill:#555555;" transform="translate(938.940625 311.39375)scale(0.2 -0.2)">
       <use xlink:href="#LiberationSans-31"/>
       <use x="55.615234375" xlink:href="#LiberationSans-30"/>
      </g>
     </g>
    </g>
    <g id="text_25">
     <!-- Frame Shift -->
     <defs>
      <path d="M 38.09375 0 
L 38.09375 29.640625 
Q 38.09375 32.71875 37.671875 35.28125 
Q 37.25 37.84375 36.296875 39.671875 
Q 35.359375 41.5 33.8125 42.53125 
Q 32.28125 43.5625 30.078125 43.5625 
Q 27.984375 43.5625 26.265625 42.453125 
Q 24.5625 41.359375 23.3125 39.328125 
Q 22.078125 37.3125 21.390625 34.5 
Q 20.703125 31.6875 20.703125 28.328125 
L 20.703125 0 
L 6.984375 0 
L 6.984375 41.015625 
Q 6.984375 42.71875 6.953125 44.53125 
Q 6.9375 46.34375 6.859375 47.96875 
Q 6.78125 49.609375 6.734375 50.90625 
Q 6.6875 52.203125 6.59375 52.828125 
L 19.671875 52.828125 
Q 19.78125 52.25 19.875 50.953125 
Q 19.96875 49.65625 20.0625 48.09375 
Q 20.171875 46.53125 20.234375 44.96875 
Q 20.3125 43.40625 20.3125 42.328125 
L 20.515625 42.328125 
Q 23.046875 48.390625 26.828125 51.125 
Q 30.609375 53.859375 35.890625 53.859375 
Q 41.9375 53.859375 45.625 50.90625 
Q 49.3125 47.953125 50.59375 42.328125 
L 50.875 42.328125 
Q 52.296875 45.609375 53.921875 47.796875 
Q 55.5625 50 57.53125 51.34375 
Q 59.515625 52.6875 61.828125 53.265625 
Q 64.15625 53.859375 66.890625 53.859375 
Q 71.234375 53.859375 74.234375 52.296875 
Q 77.25 50.734375 79.125 48 
Q 81 45.265625 81.859375 41.546875 
Q 82.71875 37.84375 82.71875 33.546875 
L 82.71875 0 
L 69.09375 0 
L 69.09375 29.640625 
Q 69.09375 32.71875 68.671875 35.28125 
Q 68.265625 37.84375 67.3125 39.671875 
Q 66.359375 41.5 64.8125 42.53125 
Q 63.28125 43.5625 61.078125 43.5625 
Q 59.03125 43.5625 57.34375 42.5 
Q 55.671875 41.453125 54.421875 39.515625 
Q 53.171875 37.59375 52.484375 34.90625 
Q 51.8125 32.234375 51.703125 28.953125 
L 51.703125 0 
z
" id="LiberationSans-Bold-6d"/>
      <path d="M 6.984375 0 
L 6.984375 40.4375 
Q 6.984375 42.140625 6.953125 44.046875 
Q 6.9375 45.953125 6.859375 47.6875 
Q 6.78125 49.421875 6.734375 50.8125 
Q 6.6875 52.203125 6.59375 52.828125 
L 19.671875 52.828125 
Q 19.78125 52.25 19.875 50.796875 
Q 19.96875 49.359375 20.0625 47.65625 
Q 20.171875 45.953125 20.234375 44.265625 
Q 20.3125 42.578125 20.3125 41.546875 
L 20.515625 41.546875 
Q 21.53125 44.4375 22.546875 46.703125 
Q 23.578125 48.96875 24.96875 50.5625 
Q 26.375 52.15625 28.328125 53 
Q 30.28125 53.859375 33.15625 53.859375 
Q 34.375 53.859375 35.5625 53.640625 
Q 36.765625 53.421875 37.40625 53.125 
L 37.40625 41.65625 
Q 36.078125 41.9375 34.734375 42.15625 
Q 33.40625 42.390625 31.546875 42.390625 
Q 26.421875 42.390625 23.5625 38.234375 
Q 20.703125 34.078125 20.703125 25.921875 
L 20.703125 0 
z
" id="LiberationSans-Bold-72"/>
      <path d="M 21.09375 57.671875 
L 21.09375 36.375 
L 56.296875 36.375 
L 56.296875 25.25 
L 21.09375 25.25 
L 21.09375 0 
L 6.6875 0 
L 6.6875 68.796875 
L 57.421875 68.796875 
L 57.421875 57.671875 
z
" id="LiberationSans-Bold-46"/>
      <path d="M 62.796875 19.828125 
Q 62.796875 15.140625 61.078125 11.296875 
Q 59.375 7.46875 55.78125 4.734375 
Q 52.203125 2 46.609375 0.5 
Q 41.015625 -0.984375 33.296875 -0.984375 
Q 26.46875 -0.984375 21.234375 0.234375 
Q 16.015625 1.46875 12.28125 3.859375 
Q 8.546875 6.25 6.21875 9.78125 
Q 3.90625 13.328125 2.875 17.921875 
L 16.796875 20.21875 
Q 17.390625 17.921875 18.5 16.015625 
Q 19.625 14.109375 21.59375 12.71875 
Q 23.578125 11.328125 26.53125 10.5625 
Q 29.5 9.8125 33.6875 9.8125 
Q 41.015625 9.8125 44.890625 12.03125 
Q 48.78125 14.265625 48.78125 19 
Q 48.78125 21.828125 47.21875 23.625 
Q 45.65625 25.4375 43.0625 26.609375 
Q 40.484375 27.78125 37.109375 28.5625 
Q 33.734375 29.34375 30.078125 30.078125 
Q 27.15625 30.765625 24.21875 31.5 
Q 21.296875 32.234375 18.625 33.25 
Q 15.96875 34.28125 13.671875 35.6875 
Q 11.375 37.109375 9.6875 39.1875 
Q 8.015625 41.265625 7.0625 44.046875 
Q 6.109375 46.828125 6.109375 50.59375 
Q 6.109375 55.71875 8.15625 59.375 
Q 10.203125 63.03125 13.84375 65.34375 
Q 17.484375 67.671875 22.515625 68.75 
Q 27.546875 69.828125 33.5 69.828125 
Q 40.234375 69.828125 45.046875 68.765625 
Q 49.859375 67.71875 53.09375 65.5625 
Q 56.34375 63.421875 58.21875 60.171875 
Q 60.109375 56.9375 60.984375 52.59375 
L 47.015625 50.6875 
Q 45.953125 55.125 42.65625 57.375 
Q 39.359375 59.625 33.203125 59.625 
Q 29.390625 59.625 26.875 58.953125 
Q 24.359375 58.296875 22.875 57.171875 
Q 21.390625 56.0625 20.75 54.5625 
Q 20.125 53.078125 20.125 51.421875 
Q 20.125 48.875 21.34375 47.234375 
Q 22.5625 45.609375 24.75 44.5 
Q 26.953125 43.40625 30 42.640625 
Q 33.0625 41.890625 36.71875 41.109375 
Q 39.9375 40.4375 43.109375 39.671875 
Q 46.296875 38.921875 49.171875 37.890625 
Q 52.046875 36.859375 54.53125 35.390625 
Q 57.03125 33.9375 58.859375 31.8125 
Q 60.6875 29.6875 61.734375 26.75 
Q 62.796875 23.828125 62.796875 19.828125 
" id="LiberationSans-Bold-53"/>
      <path d="M 20.515625 42.28125 
Q 23.296875 48.34375 27.484375 51.078125 
Q 31.6875 53.8125 37.5 53.8125 
Q 42.28125 53.8125 45.578125 52.25 
Q 48.875 50.6875 50.953125 47.953125 
Q 53.03125 45.21875 53.953125 41.5 
Q 54.890625 37.796875 54.890625 33.5 
L 54.890625 0 
L 41.21875 0 
L 41.21875 29.59375 
Q 41.21875 32.671875 40.71875 35.234375 
Q 40.234375 37.796875 39.109375 39.625 
Q 37.984375 41.453125 36.171875 42.46875 
Q 34.375 43.5 31.78125 43.5 
Q 29.296875 43.5 27.265625 42.40625 
Q 25.25 41.3125 23.78125 39.28125 
Q 22.3125 37.25 21.5 34.4375 
Q 20.703125 31.640625 20.703125 28.265625 
L 20.703125 0 
L 6.984375 0 
L 6.984375 72.46875 
L 20.703125 72.46875 
L 20.703125 52.6875 
Q 20.703125 51.125 20.65625 49.53125 
Q 20.609375 47.953125 20.53125 46.5625 
Q 20.453125 45.171875 20.40625 44.046875 
Q 20.359375 42.921875 20.3125 42.28125 
z
" id="LiberationSans-Bold-68"/>
      <path d="M 23.09375 43.5625 
L 23.09375 0 
L 9.421875 0 
L 9.421875 43.5625 
L 1.703125 43.5625 
L 1.703125 52.828125 
L 9.421875 52.828125 
L 9.421875 58.34375 
Q 9.421875 61.375 10.15625 63.9375 
Q 10.890625 66.5 12.640625 68.40625 
Q 14.40625 70.3125 17.375 71.390625 
Q 20.359375 72.46875 24.8125 72.46875 
Q 27.15625 72.46875 29.421875 72.21875 
Q 31.6875 71.96875 33.5 71.6875 
L 33.5 62.84375 
Q 32.625 63.03125 31.515625 63.15625 
Q 30.421875 63.28125 29.5 63.28125 
Q 27.59375 63.28125 26.34375 62.890625 
Q 25.09375 62.5 24.390625 61.71875 
Q 23.6875 60.9375 23.390625 59.734375 
Q 23.09375 58.546875 23.09375 56.984375 
L 23.09375 52.828125 
L 33.5 52.828125 
L 33.5 43.5625 
z
" id="LiberationSans-Bold-66"/>
      <path d="M 19.1875 -0.984375 
Q 15.375 -0.984375 12.375 0.0625 
Q 9.375 1.125 7.265625 3.140625 
Q 5.171875 5.171875 4.046875 8.15625 
Q 2.9375 11.140625 2.9375 14.9375 
Q 2.9375 19.625 4.5625 22.828125 
Q 6.203125 26.03125 9.03125 28 
Q 11.859375 29.984375 15.671875 30.875 
Q 19.484375 31.78125 23.78125 31.84375 
L 35.15625 32.03125 
L 35.15625 34.71875 
Q 35.15625 37.59375 34.640625 39.515625 
Q 34.125 41.453125 33.140625 42.671875 
Q 32.171875 43.890625 30.734375 44.40625 
Q 29.296875 44.921875 27.4375 44.921875 
Q 25.734375 44.921875 24.390625 44.578125 
Q 23.046875 44.234375 22.0625 43.375 
Q 21.09375 42.53125 20.484375 41.09375 
Q 19.875 39.65625 19.625 37.453125 
L 5.328125 38.140625 
Q 5.90625 41.609375 7.46875 44.453125 
Q 9.03125 47.3125 11.78125 49.40625 
Q 14.546875 51.515625 18.578125 52.65625 
Q 22.609375 53.8125 28.03125 53.8125 
Q 32.953125 53.8125 36.8125 52.59375 
Q 40.671875 51.375 43.359375 48.953125 
Q 46.046875 46.53125 47.453125 43.015625 
Q 48.875 39.5 48.875 34.859375 
L 48.875 15.625 
Q 48.875 13.765625 49.046875 12.296875 
Q 49.21875 10.84375 49.671875 9.84375 
Q 50.140625 8.84375 51 8.328125 
Q 51.859375 7.8125 53.21875 7.8125 
Q 54.78125 7.8125 56.25 8.109375 
L 56.25 0.6875 
Q 55.03125 0.390625 54.046875 0.140625 
Q 53.078125 -0.09375 52.09375 -0.234375 
Q 51.125 -0.390625 50.015625 -0.484375 
Q 48.921875 -0.59375 47.46875 -0.59375 
Q 42.28125 -0.59375 39.8125 1.953125 
Q 37.359375 4.5 36.859375 9.421875 
L 36.578125 9.421875 
Q 33.84375 4.5 29.5625 1.75 
Q 25.296875 -0.984375 19.1875 -0.984375 
M 35.15625 24.46875 
L 28.125 24.359375 
Q 25.921875 24.265625 23.9375 24 
Q 21.96875 23.734375 20.484375 22.875 
Q 19 22.015625 18.109375 20.40625 
Q 17.234375 18.796875 17.234375 16.015625 
Q 17.234375 12.25 18.96875 10.421875 
Q 20.703125 8.59375 23.578125 8.59375 
Q 26.21875 8.59375 28.359375 9.71875 
Q 30.515625 10.84375 32 12.671875 
Q 33.5 14.5 34.328125 16.890625 
Q 35.15625 19.28125 35.15625 21.78125 
z
" id="LiberationSans-Bold-61"/>
     </defs>
     <g style="fill:#555555;" transform="translate(691.9984375 342.93625)scale(0.24 -0.24)">
      <use xlink:href="#LiberationSans-Bold-46"/>
      <use x="61.083984375" xlink:href="#LiberationSans-Bold-72"/>
      <use x="100.0" xlink:href="#LiberationSans-Bold-61"/>
      <use x="155.615234375" xlink:href="#LiberationSans-Bold-6d"/>
      <use x="244.53125" xlink:href="#LiberationSans-Bold-65"/>
      <use x="300.146484375" xlink:href="#LiberationSans-Bold-20"/>
      <use x="327.9296875" xlink:href="#LiberationSans-Bold-53"/>
      <use x="394.62890625" xlink:href="#LiberationSans-Bold-68"/>
      <use x="455.712890625" xlink:href="#LiberationSans-Bold-69"/>
      <use x="483.49609375" xlink:href="#LiberationSans-Bold-66"/>
      <use x="516.796875" xlink:href="#LiberationSans-Bold-74"/>
     </g>
    </g>
   </g>
   <g id="matplotlib.axis_4">
    <g id="ytick_10">
     <g id="line2d_63">
      <path clip-path="url(#pbd7ec5a063)" d="M 565.953125 285.7 
L 950.0625 285.7 
" style="fill:none;stroke:#ffffff;stroke-linecap:round;stroke-width:1.6;"/>
     </g>
     <g id="line2d_64">
      <g>
       <use style="fill:#555555;stroke:#555555;stroke-width:1.6;" x="565.953125" xlink:href="#mae061d9909" y="285.7"/>
      </g>
     </g>
     <g id="line2d_65">
      <g>
       <use style="fill:#555555;stroke:#555555;stroke-width:1.6;" x="950.0625" xlink:href="#mae061d9909" y="285.7"/>
      </g>
     </g>
     <g id="text_26">
      <!-- −0.4 -->
      <defs>
       <path d="M 9.125 0 
L 9.125 10.6875 
L 18.65625 10.6875 
L 18.65625 0 
z
" id="LiberationSans-2e"/>
      </defs>
      <g style="fill:#555555;" transform="translate(515.271875 290.871875)scale(0.2 -0.2)">
       <use xlink:href="#LiberationSans-2212"/>
       <use x="58.3984375" xlink:href="#LiberationSans-30"/>
       <use x="114.013671875" xlink:href="#LiberationSans-2e"/>
       <use x="141.796875" xlink:href="#LiberationSans-34"/>
      </g>
     </g>
    </g>
    <g id="ytick_11">
     <g id="line2d_66">
      <path clip-path="url(#pbd7ec5a063)" d="M 565.953125 247.778571 
L 950.0625 247.778571 
" style="fill:none;stroke:#ffffff;stroke-linecap:round;stroke-width:1.6;"/>
     </g>
     <g id="line2d_67">
      <g>
       <use style="fill:#555555;stroke:#555555;stroke-width:1.6;" x="565.953125" xlink:href="#mae061d9909" y="247.778571429"/>
      </g>
     </g>
     <g id="line2d_68">
      <g>
       <use style="fill:#555555;stroke:#555555;stroke-width:1.6;" x="950.0625" xlink:href="#mae061d9909" y="247.778571429"/>
      </g>
     </g>
     <g id="text_27">
      <!-- −0.2 -->
      <g style="fill:#555555;" transform="translate(515.271875 252.950446429)scale(0.2 -0.2)">
       <use xlink:href="#LiberationSans-2212"/>
       <use x="58.3984375" xlink:href="#LiberationSans-30"/>
       <use x="114.013671875" xlink:href="#LiberationSans-2e"/>
       <use x="141.796875" xlink:href="#LiberationSans-32"/>
      </g>
     </g>
    </g>
    <g id="ytick_12">
     <g id="line2d_69">
      <path clip-path="url(#pbd7ec5a063)" d="M 565.953125 209.857143 
L 950.0625 209.857143 
" style="fill:none;stroke:#ffffff;stroke-linecap:round;stroke-width:1.6;"/>
     </g>
     <g id="line2d_70">
      <g>
       <use style="fill:#555555;stroke:#555555;stroke-width:1.6;" x="565.953125" xlink:href="#mae061d9909" y="209.857142857"/>
      </g>
     </g>
     <g id="line2d_71">
      <g>
       <use style="fill:#555555;stroke:#555555;stroke-width:1.6;" x="950.0625" xlink:href="#mae061d9909" y="209.857142857"/>
      </g>
     </g>
     <g id="text_28">
      <!-- 0.0 -->
      <g style="fill:#555555;" transform="translate(526.953125 215.029017857)scale(0.2 -0.2)">
       <use xlink:href="#LiberationSans-30"/>
       <use x="55.615234375" xlink:href="#LiberationSans-2e"/>
       <use x="83.3984375" xlink:href="#LiberationSans-30"/>
      </g>
     </g>
    </g>
    <g id="ytick_13">
     <g id="line2d_72">
      <path clip-path="url(#pbd7ec5a063)" d="M 565.953125 171.935714 
L 950.0625 171.935714 
" style="fill:none;stroke:#ffffff;stroke-linecap:round;stroke-width:1.6;"/>
     </g>
     <g id="line2d_73">
      <g>
       <use style="fill:#555555;stroke:#555555;stroke-width:1.6;" x="565.953125" xlink:href="#mae061d9909" y="171.935714286"/>
      </g>
     </g>
     <g id="line2d_74">
      <g>
       <use style="fill:#555555;stroke:#555555;stroke-width:1.6;" x="950.0625" xlink:href="#mae061d9909" y="171.935714286"/>
      </g>
     </g>
     <g id="text_29">
      <!-- 0.2 -->
      <g style="fill:#555555;" transform="translate(526.953125 177.107589286)scale(0.2 -0.2)">
       <use xlink:href="#LiberationSans-30"/>
       <use x="55.615234375" xlink:href="#LiberationSans-2e"/>
       <use x="83.3984375" xlink:href="#LiberationSans-32"/>
      </g>
     </g>
    </g>
    <g id="ytick_14">
     <g id="line2d_75">
      <path clip-path="url(#pbd7ec5a063)" d="M 565.953125 134.014286 
L 950.0625 134.014286 
" style="fill:none;stroke:#ffffff;stroke-linecap:round;stroke-width:1.6;"/>
     </g>
     <g id="line2d_76">
      <g>
       <use style="fill:#555555;stroke:#555555;stroke-width:1.6;" x="565.953125" xlink:href="#mae061d9909" y="134.014285714"/>
      </g>
     </g>
     <g id="line2d_77">
      <g>
       <use style="fill:#555555;stroke:#555555;stroke-width:1.6;" x="950.0625" xlink:href="#mae061d9909" y="134.014285714"/>
      </g>
     </g>
     <g id="text_30">
      <!-- 0.4 -->
      <g style="fill:#555555;" transform="translate(526.953125 139.186160714)scale(0.2 -0.2)">
       <use xlink:href="#LiberationSans-30"/>
       <use x="55.615234375" xlink:href="#LiberationSans-2e"/>
       <use x="83.3984375" xlink:href="#LiberationSans-34"/>
      </g>
     </g>
    </g>
    <g id="ytick_15">
     <g id="line2d_78">
      <path clip-path="url(#pbd7ec5a063)" d="M 565.953125 96.092857 
L 950.0625 96.092857 
" style="fill:none;stroke:#ffffff;stroke-linecap:round;stroke-width:1.6;"/>
     </g>
     <g id="line2d_79">
      <g>
       <use style="fill:#555555;stroke:#555555;stroke-width:1.6;" x="565.953125" xlink:href="#mae061d9909" y="96.0928571429"/>
      </g>
     </g>
     <g id="line2d_80">
      <g>
       <use style="fill:#555555;stroke:#555555;stroke-width:1.6;" x="950.0625" xlink:href="#mae061d9909" y="96.0928571429"/>
      </g>
     </g>
     <g id="text_31">
      <!-- 0.6 -->
      <g style="fill:#555555;" transform="translate(526.953125 101.264732143)scale(0.2 -0.2)">
       <use xlink:href="#LiberationSans-30"/>
       <use x="55.615234375" xlink:href="#LiberationSans-2e"/>
       <use x="83.3984375" xlink:href="#LiberationSans-36"/>
      </g>
     </g>
    </g>
    <g id="ytick_16">
     <g id="line2d_81">
      <path clip-path="url(#pbd7ec5a063)" d="M 565.953125 58.171429 
L 950.0625 58.171429 
" style="fill:none;stroke:#ffffff;stroke-linecap:round;stroke-width:1.6;"/>
     </g>
     <g id="line2d_82">
      <g>
       <use style="fill:#555555;stroke:#555555;stroke-width:1.6;" x="565.953125" xlink:href="#mae061d9909" y="58.1714285714"/>
      </g>
     </g>
     <g id="line2d_83">
      <g>
       <use style="fill:#555555;stroke:#555555;stroke-width:1.6;" x="950.0625" xlink:href="#mae061d9909" y="58.1714285714"/>
      </g>
     </g>
     <g id="text_32">
      <!-- 0.8 -->
      <g style="fill:#555555;" transform="translate(526.953125 63.3433035714)scale(0.2 -0.2)">
       <use xlink:href="#LiberationSans-30"/>
       <use x="55.615234375" xlink:href="#LiberationSans-2e"/>
       <use x="83.3984375" xlink:href="#LiberationSans-38"/>
      </g>
     </g>
    </g>
    <g id="ytick_17">
     <g id="line2d_84">
      <path clip-path="url(#pbd7ec5a063)" d="M 565.953125 20.25 
L 950.0625 20.25 
" style="fill:none;stroke:#ffffff;stroke-linecap:round;stroke-width:1.6;"/>
     </g>
     <g id="line2d_85">
      <g>
       <use style="fill:#555555;stroke:#555555;stroke-width:1.6;" x="565.953125" xlink:href="#mae061d9909" y="20.25"/>
      </g>
     </g>
     <g id="line2d_86">
      <g>
       <use style="fill:#555555;stroke:#555555;stroke-width:1.6;" x="950.0625" xlink:href="#mae061d9909" y="20.25"/>
      </g>
     </g>
     <g id="text_33">
      <!-- 1.0 -->
      <g style="fill:#555555;" transform="translate(526.953125 25.421875)scale(0.2 -0.2)">
       <use xlink:href="#LiberationSans-31"/>
       <use x="55.615234375" xlink:href="#LiberationSans-2e"/>
       <use x="83.3984375" xlink:href="#LiberationSans-30"/>
      </g>
     </g>
    </g>
    <g id="text_34">
     <!-- Pearson Correlation -->
     <defs>
      <path d="M 38.8125 10.359375 
Q 42.875 10.359375 45.828125 11.5 
Q 48.78125 12.640625 50.953125 14.5 
Q 53.125 16.359375 54.5625 18.703125 
Q 56 21.046875 56.9375 23.4375 
L 69.484375 18.703125 
Q 67.96875 14.984375 65.53125 11.421875 
Q 63.09375 7.859375 59.421875 5.125 
Q 55.765625 2.390625 50.703125 0.703125 
Q 45.65625 -0.984375 38.8125 -0.984375 
Q 29.890625 -0.984375 23.34375 1.671875 
Q 16.796875 4.34375 12.515625 9.109375 
Q 8.25 13.875 6.171875 20.40625 
Q 4.109375 26.953125 4.109375 34.71875 
Q 4.109375 42.78125 6.171875 49.265625 
Q 8.25 55.765625 12.453125 60.328125 
Q 16.65625 64.890625 23.078125 67.359375 
Q 29.5 69.828125 38.1875 69.828125 
Q 44.921875 69.828125 49.96875 68.40625 
Q 55.03125 67 58.71875 64.421875 
Q 62.40625 61.859375 64.8125 58.375 
Q 67.234375 54.890625 68.609375 50.6875 
L 55.90625 47.21875 
Q 55.21875 49.421875 53.796875 51.4375 
Q 52.390625 53.46875 50.21875 55.03125 
Q 48.046875 56.59375 45.109375 57.546875 
Q 42.1875 58.5 38.484375 58.5 
Q 33.25 58.5 29.484375 56.8125 
Q 25.734375 55.125 23.3125 52 
Q 20.90625 48.875 19.75 44.5 
Q 18.609375 40.140625 18.609375 34.71875 
Q 18.609375 29.34375 19.75 24.875 
Q 20.90625 20.40625 23.34375 17.1875 
Q 25.78125 13.96875 29.609375 12.15625 
Q 33.453125 10.359375 38.8125 10.359375 
" id="LiberationSans-Bold-43"/>
      <path d="M 63.28125 47.015625 
Q 63.28125 42.578125 61.78125 38.453125 
Q 60.296875 34.328125 57.21875 31.15625 
Q 54.15625 27.984375 49.40625 26.09375 
Q 44.671875 24.21875 38.1875 24.21875 
L 21.09375 24.21875 
L 21.09375 0 
L 6.6875 0 
L 6.6875 68.796875 
L 37.59375 68.796875 
Q 44.1875 68.796875 49.015625 67.203125 
Q 53.859375 65.625 57.03125 62.734375 
Q 60.203125 59.859375 61.734375 55.859375 
Q 63.28125 51.859375 63.28125 47.015625 
M 48.78125 46.78125 
Q 48.78125 52.09375 45.578125 54.859375 
Q 42.390625 57.625 35.984375 57.625 
L 21.09375 57.625 
L 21.09375 35.296875 
L 36.375 35.296875 
Q 39.59375 35.296875 41.90625 36.125 
Q 44.234375 36.96875 45.765625 38.46875 
Q 47.3125 39.984375 48.046875 42.109375 
Q 48.78125 44.234375 48.78125 46.78125 
" id="LiberationSans-Bold-50"/>
     </defs>
     <g style="fill:#555555;" transform="translate(500.291875 267.666875)rotate(-90.0)scale(0.24 -0.24)">
      <use xlink:href="#LiberationSans-Bold-50"/>
      <use x="66.69921875" xlink:href="#LiberationSans-Bold-65"/>
      <use x="122.314453125" xlink:href="#LiberationSans-Bold-61"/>
      <use x="177.9296875" xlink:href="#LiberationSans-Bold-72"/>
      <use x="216.845703125" xlink:href="#LiberationSans-Bold-73"/>
      <use x="272.4609375" xlink:href="#LiberationSans-Bold-6f"/>
      <use x="333.544921875" xlink:href="#LiberationSans-Bold-6e"/>
      <use x="394.62890625" xlink:href="#LiberationSans-Bold-20"/>
      <use x="422.412109375" xlink:href="#LiberationSans-Bold-43"/>
      <use x="494.62890625" xlink:href="#LiberationSans-Bold-6f"/>
      <use x="555.712890625" xlink:href="#LiberationSans-Bold-72"/>
      <use x="594.62890625" xlink:href="#LiberationSans-Bold-72"/>
      <use x="633.544921875" xlink:href="#LiberationSans-Bold-65"/>
      <use x="689.16015625" xlink:href="#LiberationSans-Bold-6c"/>
      <use x="716.943359375" xlink:href="#LiberationSans-Bold-61"/>
      <use x="772.55859375" xlink:href="#LiberationSans-Bold-74"/>
      <use x="805.859375" xlink:href="#LiberationSans-Bold-69"/>
      <use x="833.642578125" xlink:href="#LiberationSans-Bold-6f"/>
      <use x="894.7265625" xlink:href="#LiberationSans-Bold-6e"/>
     </g>
    </g>
   </g>
   <g id="line2d_87">
    <path clip-path="url(#pbd7ec5a063)" d="M 565.953125 250.851884 
L 585.158594 241.321606 
L 604.364062 228.751016 
L 623.569531 220.04684 
L 642.775 218.604723 
L 661.980469 218.604474 
L 681.185937 206.976471 
L 700.391406 173.779299 
L 719.596875 123.37347 
L 738.802344 76.071303 
L 758.007812 56.668453 
L 777.213281 76.606086 
L 796.41875 127.277762 
L 815.624219 183.538423 
L 834.829687 221.791181 
L 854.035156 234.953046 
L 873.240625 233.945052 
L 892.446094 235.809459 
L 911.651562 249.085577 
L 930.857031 268.108873 
L 950.0625 279.479129 
" style="fill:none;stroke:#3b7ea1;stroke-linecap:round;stroke-width:4.0;"/>
   </g>
   <g id="line2d_88">
    <path clip-path="url(#pbd7ec5a063)" d="M 757.877276 285.7 
L 757.877276 20.25 
" style="fill:none;stroke:#c4820e;stroke-dasharray:6.000000,6.000000;stroke-dashoffset:0.0;stroke-width:4.0;"/>
   </g>
   <g id="patch_10">
    <path d="M 565.953125 20.25 
L 950.0625 20.25 
" style="fill:none;stroke:#ffffff;stroke-linecap:square;stroke-linejoin:miter;"/>
   </g>
   <g id="patch_11">
    <path d="M 950.0625 285.7 
L 950.0625 20.25 
" style="fill:none;stroke:#ffffff;stroke-linecap:square;stroke-linejoin:miter;"/>
   </g>
   <g id="patch_12">
    <path d="M 565.953125 285.7 
L 950.0625 285.7 
" style="fill:none;stroke:#ffffff;stroke-linecap:square;stroke-linejoin:miter;"/>
   </g>
   <g id="patch_13">
    <path d="M 565.953125 285.7 
L 565.953125 20.25 
" style="fill:none;stroke:#ffffff;stroke-linecap:square;stroke-linejoin:miter;"/>
   </g>
  </g>
 </g>
 <defs>
  <clipPath id="p4787f01922">
   <rect height="265.45" width="384.109375" x="73.625" y="20.25"/>
  </clipPath>
  <clipPath id="pbd7ec5a063">
   <rect height="265.45" width="384.109375" x="565.953125" y="20.25"/>
  </clipPath>
 </defs>
</svg>
